<?xml version="1.0" standalone="no"?>
<!DOCTYPE svg PUBLIC "-//W3C//DTD SVG 1.1//EN" "http://www.w3.org/Graphics/SVG/1.1/DTD/svg11.dtd" >
<svg xmlns="http://www.w3.org/2000/svg">
<metadata></metadata>
<defs>
<font id="th_sarabun_newregular" horiz-adv-x="0" >
<font-face units-per-em="2048" ascent="1638" descent="-410" />
<missing-glyph horiz-adv-x="675" />
<glyph unicode="A&#x300;" horiz-adv-x="1253" d="M0 0l563 1513h127l563 -1513h-135l-172 479h-643l-168 -479h-135zM342 584h567l-282 794zM485 1903l123 30l156 -284h-96z" />
<glyph unicode="A&#x301;" horiz-adv-x="1253" d="M0 0l563 1513h127l563 -1513h-135l-172 479h-643l-168 -479h-135zM342 584h567l-282 794zM486 1649l155 284l123 -30l-182 -254h-96z" />
<glyph unicode="A&#x303;" horiz-adv-x="1253" d="M0 0l563 1513h127l563 -1513h-135l-172 479h-643l-168 -479h-135zM342 584h567l-282 794zM342 1649q2 94 44 140t109 46q33 0 67 -15.5t66.5 -36t63.5 -35.5t63 -15q53 0 62 110h78q-6 -188 -156 -188q-31 0 -65.5 15.5t-67.5 35.5t-62.5 35.5t-52.5 15.5 q-25 0 -47 -27.5t-24 -80.5h-78z" />
<glyph unicode="E&#x300;" horiz-adv-x="1099" d="M170 0v1491h811v-102h-690v-549h614v-103h-614v-635h690v-102h-811zM409 1903l123 30l156 -284h-96z" />
<glyph unicode="E&#x301;" horiz-adv-x="1099" d="M170 0v1491h811v-102h-690v-549h614v-103h-614v-635h690v-102h-811zM412 1649l155 284l123 -30l-182 -254h-96z" />
<glyph unicode="I&#x300;" horiz-adv-x="458" d="M90 1903l123 30l156 -284h-96zM170 0v1491h121v-1491h-121z" />
<glyph unicode="I&#x301;" horiz-adv-x="458" d="M93 1649l155 284l123 -30l-182 -254h-96zM170 0v1491h121v-1491h-121z" />
<glyph unicode="O&#x300;" horiz-adv-x="1521" d="M70 743q0 334 192.5 554.5t499.5 220.5t499.5 -220.5t192.5 -554.5q0 -336 -192.5 -555t-499.5 -219t-499.5 219t-192.5 555zM190 743q0 -276 160 -471.5t412 -195.5q250 0 409.5 195.5t159.5 471.5q0 274 -159.5 470t-409.5 196q-252 0 -412 -196t-160 -470zM620 1903 l123 30l156 -284h-96z" />
<glyph unicode="O&#x301;" horiz-adv-x="1521" d="M70 743q0 334 192.5 554.5t499.5 220.5t499.5 -220.5t192.5 -554.5q0 -336 -192.5 -555t-499.5 -219t-499.5 219t-192.5 555zM190 743q0 -276 160 -471.5t412 -195.5q250 0 409.5 195.5t159.5 471.5q0 274 -159.5 470t-409.5 196q-252 0 -412 -196t-160 -470zM621 1649 l155 284l123 -30l-182 -254h-96z" />
<glyph unicode="O&#x303;" horiz-adv-x="1521" d="M70 743q0 334 192.5 554.5t499.5 220.5t499.5 -220.5t192.5 -554.5q0 -336 -192.5 -555t-499.5 -219t-499.5 219t-192.5 555zM190 743q0 -276 160 -471.5t412 -195.5q250 0 409.5 195.5t159.5 471.5q0 274 -159.5 470t-409.5 196q-252 0 -412 -196t-160 -470zM477 1649 q2 94 44 140t109 46q33 0 67 -15.5t66.5 -36t63.5 -35.5t63 -15q53 0 62 110h78q-6 -188 -156 -188q-31 0 -65.5 15.5t-67.5 35.5t-62.5 35.5t-52.5 15.5q-25 0 -47 -27.5t-24 -80.5h-78z" />
<glyph unicode="U&#x300;" horiz-adv-x="1458" d="M170 631v860h121v-858q0 -295 120.5 -426t317.5 -131q201 0 321.5 131t118.5 426v858h121v-860q0 -659 -561 -660q-559 1 -559 660zM534 1903l123 30l156 -284h-96z" />
<glyph unicode="U&#x301;" horiz-adv-x="1458" d="M170 631v860h121v-858q0 -295 120.5 -426t317.5 -131q201 0 321.5 131t118.5 426v858h121v-860q0 -659 -561 -660q-559 1 -559 660zM621 1649l155 284l123 -30l-182 -254h-96z" />
<glyph unicode="Y&#x301;" horiz-adv-x="1144" d="M0 1491h141l432 -729l433 729h141l-514 -834v-657h-119v655zM480 1649l155 284l123 -30l-182 -254h-96z" />
<glyph unicode="a&#x300;" horiz-adv-x="1077" d="M82 266q0 397 692 398h19v20q0 102 -48 180q-72 125 -243 125q-111 0 -338 -71l-17 112q176 57 363 57q406 0 405 -444v-383q0 -131 37 -260l-108 -23l-45 173q-143 -178 -379 -179q-137 0 -237.5 79t-100.5 216zM211 289q0 -104 62.5 -158.5t156.5 -54.5q246 0 346 209 q16 35 17 59v213q-582 0 -582 -268zM397 1477l123 30l156 -284h-96z" />
<glyph unicode="a&#x301;" horiz-adv-x="1077" d="M82 266q0 397 692 398h19v20q0 102 -48 180q-72 125 -243 125q-111 0 -338 -71l-17 112q176 57 363 57q406 0 405 -444v-383q0 -131 37 -260l-108 -23l-45 173q-143 -178 -379 -179q-137 0 -237.5 79t-100.5 216zM211 289q0 -104 62.5 -158.5t156.5 -54.5q246 0 346 209 q16 35 17 59v213q-582 0 -582 -268zM398 1223l155 284l123 -30l-182 -254h-96z" />
<glyph unicode="a&#x303;" horiz-adv-x="1077" d="M82 266q0 397 692 398h19v20q0 102 -48 180q-72 125 -243 125q-111 0 -338 -71l-17 112q176 57 363 57q406 0 405 -444v-383q0 -131 37 -260l-108 -23l-45 173q-143 -178 -379 -179q-137 0 -237.5 79t-100.5 216zM211 289q0 -104 62.5 -158.5t156.5 -54.5q246 0 346 209 q16 35 17 59v213q-582 0 -582 -268zM254 1223q2 94 44 140t109 46q33 0 67 -15.5t66.5 -36t63.5 -35.5t63 -15q53 0 62 110h78q-6 -188 -156 -188q-31 0 -65.5 15.5t-67.5 35.5t-62.5 35.5t-52.5 15.5q-25 0 -47 -27.5t-24 -80.5h-78z" />
<glyph unicode="e&#x300;" horiz-adv-x="1171" d="M84 504q0 264 150.5 423.5t381.5 159.5q449 0 459 -561h-872q8 -213 128 -330.5t312 -117.5q186 0 373 72l8 -103q-180 -76 -393 -76q-246 0 -396.5 151t-150.5 382zM211 623h747q-2 129 -71 229q-94 137 -285 137q-172 0 -283 -125q-88 -100 -108 -241zM444 1477l123 30 l156 -284h-96z" />
<glyph unicode="e&#x301;" horiz-adv-x="1171" d="M84 504q0 264 150.5 423.5t381.5 159.5q449 0 459 -561h-872q8 -213 128 -330.5t312 -117.5q186 0 373 72l8 -103q-180 -76 -393 -76q-246 0 -396.5 151t-150.5 382zM211 623h747q-2 129 -71 229q-94 137 -285 137q-172 0 -283 -125q-88 -100 -108 -241zM445 1223 l155 284l123 -30l-182 -254h-96z" />
<glyph unicode="i&#x300;" horiz-adv-x="446" d="M84 1477l123 30l156 -284h-96zM164 0v1065h119v-1065h-119z" />
<glyph unicode="i&#x301;" horiz-adv-x="446" d="M84 1223l155 284l123 -30l-182 -254h-96zM164 0v1065h119v-1065h-119z" />
<glyph unicode="o&#x300;" horiz-adv-x="1245" d="M88 530q0 233 147.5 395t387.5 162q242 0 389 -161.5t147 -395.5q0 -236 -147.5 -398.5t-388.5 -162.5q-240 0 -387.5 162.5t-147.5 398.5zM207 530q0 -195 117.5 -326.5t298.5 -131.5q182 0 299.5 132t117.5 326q0 193 -117.5 323t-299.5 130q-180 0 -298 -130 t-118 -323zM481 1477l123 30l156 -284h-96z" />
<glyph unicode="o&#x301;" horiz-adv-x="1245" d="M88 530q0 233 147.5 395t387.5 162q242 0 389 -161.5t147 -395.5q0 -236 -147.5 -398.5t-388.5 -162.5q-240 0 -387.5 162.5t-147.5 398.5zM207 530q0 -195 117.5 -326.5t298.5 -131.5q182 0 299.5 132t117.5 326q0 193 -117.5 323t-299.5 130q-180 0 -298 -130 t-118 -323zM484 1223l155 284l123 -30l-182 -254h-96z" />
<glyph unicode="o&#x303;" horiz-adv-x="1245" d="M88 530q0 233 147.5 395t387.5 162q242 0 389 -161.5t147 -395.5q0 -236 -147.5 -398.5t-388.5 -162.5q-240 0 -387.5 162.5t-147.5 398.5zM207 530q0 -195 117.5 -326.5t298.5 -131.5q182 0 299.5 132t117.5 326q0 193 -117.5 323t-299.5 130q-180 0 -298 -130 t-118 -323zM340 1223q2 94 44 140t109 46q33 0 67 -15.5t66.5 -36t63.5 -35.5t63 -15q53 0 62 110h78q-6 -188 -156 -188q-31 0 -65.5 15.5t-67.5 35.5t-62.5 35.5t-52.5 15.5q-25 0 -47 -27.5t-24 -80.5h-78z" />
<glyph unicode="u&#x300;" horiz-adv-x="1220" d="M164 467v598h121v-576q0 -412 288 -411q135 0 244 88q119 100 119 254v645h123v-805q0 -117 53 -256l-115 -27q-39 106 -51 207q-137 -213 -401 -213q-381 0 -381 496zM469 1477l123 30l156 -284h-96z" />
<glyph unicode="u&#x301;" horiz-adv-x="1220" d="M164 467v598h121v-576q0 -412 288 -411q135 0 244 88q119 100 119 254v645h123v-805q0 -117 53 -256l-115 -27q-39 106 -51 207q-137 -213 -401 -213q-381 0 -381 496zM471 1223l155 284l123 -30l-182 -254h-96z" />
<glyph unicode="y&#x301;" horiz-adv-x="1054" d="M10 1065h131l398 -901l372 901h136l-469 -1065q-186 -416 -494 -489l-27 98q266 59 404 426q0 8 -10 37zM389 1223l155 284l123 -30l-182 -254h-96z" />
<glyph unicode="I&#x303;" horiz-adv-x="458" d="M-53 1649q2 94 44 140t109 46q33 0 67 -15.5t66.5 -36t63.5 -35.5t63 -15q53 0 62 110h78q-6 -188 -156 -188q-31 0 -65.5 15.5t-67.5 35.5t-62.5 35.5t-52.5 15.5q-25 0 -47 -27.5t-24 -80.5h-78zM170 0v1491h121v-1491h-121z" />
<glyph unicode="i&#x303;" horiz-adv-x="446" d="M-59 1223q2 94 44 140t109 46q33 0 67 -15.5t66.5 -36t63.5 -35.5t63 -15q53 0 62 110h78q-6 -188 -156 -188q-31 0 -65.5 15.5t-67.5 35.5t-62.5 35.5t-52.5 15.5q-25 0 -47 -27.5t-24 -80.5h-78zM164 0v1065h119v-1065h-119z" />
<glyph unicode="U&#x303;" horiz-adv-x="1490" d="M186 631v860h121v-858q0 -295 120.5 -426t317.5 -131q201 0 321.5 131t118.5 426v858h121v-860q0 -659 -561 -660q-559 1 -559 660zM461 1649q2 94 44 140t109 46q33 0 67 -15.5t66.5 -36t63.5 -35.5t63 -15q53 0 62 110h78q-6 -188 -156 -188q-31 0 -65.5 15.5 t-67.5 35.5t-62.5 35.5t-52.5 15.5q-25 0 -47 -27.5t-24 -80.5h-78z" />
<glyph unicode="u&#x303;" horiz-adv-x="1267" d="M164 467v598h121v-576q0 -412 288 -411q135 0 244 88q119 100 119 254v645h123v-805q0 -117 53 -256l-115 -27q-39 106 -51 207q-137 -213 -401 -213q-381 0 -381 496zM348 1223q2 94 44 140t109 46q33 0 67 -15.5t66.5 -36t63.5 -35.5t63 -15q53 0 62 110h78 q-6 -188 -156 -188q-31 0 -65.5 15.5t-67.5 35.5t-62.5 35.5t-52.5 15.5q-25 0 -47 -27.5t-24 -80.5h-78z" />
<glyph unicode="A&#x323;" horiz-adv-x="1253" d="M0 0l563 1513h127l563 -1513h-135l-172 479h-643l-168 -479h-135zM342 584h567l-282 794zM534 -242q0 31 26.5 59.5t65.5 28.5q41 0 65.5 -28.5t24.5 -59.5q0 -37 -24.5 -63.5t-65.5 -26.5q-39 0 -65.5 26.5t-26.5 63.5z" />
<glyph unicode="a&#x323;" horiz-adv-x="1077" d="M82 266q0 397 692 398h19v20q0 102 -48 180q-72 125 -243 125q-111 0 -338 -71l-17 112q176 57 363 57q406 0 405 -444v-383q0 -131 37 -260l-108 -23l-45 173q-143 -178 -379 -179q-137 0 -237.5 79t-100.5 216zM211 289q0 -104 62.5 -158.5t156.5 -54.5q246 0 346 209 q16 35 17 59v213q-582 0 -582 -268zM446 -242q0 31 26.5 59.5t65.5 28.5q41 0 65.5 -28.5t24.5 -59.5q0 -37 -24.5 -63.5t-65.5 -26.5q-39 0 -65.5 26.5t-26.5 63.5z" />
<glyph unicode="A&#x309;" horiz-adv-x="1253" d="M0 0l563 1513h127l563 -1513h-135l-172 479h-643l-168 -479h-135zM342 584h567l-282 794zM446 1952q68 125 215 125q86 0 139.5 -45t53.5 -129q0 -98 -88 -167t-88 -106h-99q4 80 90 142.5t86 130.5q0 43 -29.5 66.5t-78.5 23.5q-82 0 -141 -88z" />
<glyph unicode="a&#x309;" horiz-adv-x="1077" d="M82 266q0 397 692 398h19v20q0 102 -48 180q-72 125 -243 125q-111 0 -338 -71l-17 112q176 57 363 57q406 0 405 -444v-383q0 -131 37 -260l-108 -23l-45 173q-143 -178 -379 -179q-137 0 -237.5 79t-100.5 216zM211 289q0 -104 62.5 -158.5t156.5 -54.5q246 0 346 209 q16 35 17 59v213q-582 0 -582 -268zM359 1492q61 113 193 113q78 0 126 -40.5t48 -116.5q0 -88 -79.5 -150t-79.5 -95h-89q4 72 81.5 128t77.5 117q0 39 -26.5 60t-70.5 21q-74 0 -127 -79z" />
<glyph unicode="&#xc2;&#x301;" horiz-adv-x="1253" d="M0 0l563 1513h127l563 -1513h-135l-172 479h-643l-168 -479h-135zM342 584h567l-282 794zM367 1655l217 244h88l215 -244h-115l-145 162l-144 -162h-116zM882 1818l140 255l111 -27l-164 -228h-87z" />
<glyph unicode="&#xe2;&#x301;" horiz-adv-x="1077" d="M82 266q0 397 692 398h19v20q0 102 -48 180q-72 125 -243 125q-111 0 -338 -71l-17 112q176 57 363 57q406 0 405 -444v-383q0 -131 37 -260l-108 -23l-45 173q-143 -178 -379 -179q-137 0 -237.5 79t-100.5 216zM211 289q0 -104 62.5 -158.5t156.5 -54.5q246 0 346 209 q16 35 17 59v213q-582 0 -582 -268zM279 1229l217 244h88l215 -244h-115l-145 162l-144 -162h-116zM757 1398l140 255l111 -27l-164 -228h-87z" />
<glyph unicode="&#xc2;&#x300;" horiz-adv-x="1253" d="M0 0l563 1513h127l563 -1513h-135l-172 479h-643l-168 -479h-135zM342 584h567l-282 794zM367 1655l217 244h88l215 -244h-115l-145 162l-144 -162h-116zM786 2046l111 27l141 -255h-87z" />
<glyph unicode="&#xe2;&#x300;" horiz-adv-x="1077" d="M82 266q0 397 692 398h19v20q0 102 -48 180q-72 125 -243 125q-111 0 -338 -71l-17 112q176 57 363 57q406 0 405 -444v-383q0 -131 37 -260l-108 -23l-45 173q-143 -178 -379 -179q-137 0 -237.5 79t-100.5 216zM211 289q0 -104 62.5 -158.5t156.5 -54.5q246 0 346 209 q16 35 17 59v213q-582 0 -582 -268zM279 1229l217 244h88l215 -244h-115l-145 162l-144 -162h-116zM677 1626l111 27l141 -255h-87z" />
<glyph unicode="&#xc2;&#x309;" horiz-adv-x="1253" d="M0 0l563 1513h127l563 -1513h-135l-172 479h-643l-168 -479h-135zM342 584h567l-282 794zM367 1655l217 244h88l215 -244h-115l-145 162l-144 -162h-116zM793 2100q61 113 193 113q78 0 126 -40.5t48 -116.5q0 -88 -79.5 -150t-79.5 -95h-89q4 72 81.5 128t77.5 117 q0 39 -26.5 60t-70.5 21q-74 0 -127 -79z" />
<glyph unicode="&#xe2;&#x309;" horiz-adv-x="1077" d="M82 266q0 397 692 398h19v20q0 102 -48 180q-72 125 -243 125q-111 0 -338 -71l-17 112q176 57 363 57q406 0 405 -444v-383q0 -131 37 -260l-108 -23l-45 173q-143 -178 -379 -179q-137 0 -237.5 79t-100.5 216zM211 289q0 -104 62.5 -158.5t156.5 -54.5q246 0 346 209 q16 35 17 59v213q-582 0 -582 -268zM279 1229l217 244h88l215 -244h-115l-145 162l-144 -162h-116zM651 1717q61 113 193 113q78 0 126 -40.5t48 -116.5q0 -88 -79.5 -150t-79.5 -95h-89q4 72 81.5 128t77.5 117q0 39 -26.5 60t-70.5 21q-74 0 -127 -79z" />
<glyph unicode="&#xc2;&#x303;" horiz-adv-x="1253" d="M0 0l563 1513h127l563 -1513h-135l-172 479h-643l-168 -479h-135zM342 584h567l-282 794zM348 1981q2 94 44 140t109 46q33 0 67 -15.5t66.5 -36t63.5 -35.5t63 -15q53 0 62 110h78q-6 -188 -156 -188q-31 0 -65.5 15.5t-67.5 35.5t-62.5 35.5t-52.5 15.5 q-25 0 -47 -27.5t-24 -80.5h-78zM367 1655l217 244h88l215 -244h-115l-145 162l-144 -162h-116z" />
<glyph unicode="&#xe2;&#x303;" horiz-adv-x="1077" d="M82 266q0 397 692 398h19v20q0 102 -48 180q-72 125 -243 125q-111 0 -338 -71l-17 112q176 57 363 57q406 0 405 -444v-383q0 -131 37 -260l-108 -23l-45 173q-143 -178 -379 -179q-137 0 -237.5 79t-100.5 216zM211 289q0 -104 62.5 -158.5t156.5 -54.5q246 0 346 209 q16 35 17 59v213q-582 0 -582 -268zM260 1553q2 94 44 140t109 46q33 0 67 -15.5t66.5 -36t63.5 -35.5t63 -15q53 0 62 110h78q-6 -188 -156 -188q-31 0 -65.5 15.5t-67.5 35.5t-62.5 35.5t-52.5 15.5q-25 0 -47 -27.5t-24 -80.5h-78zM279 1229l217 244h88l215 -244h-115 l-145 162l-144 -162h-116z" />
<glyph unicode="&#xc2;&#x323;" horiz-adv-x="1253" d="M0 0l563 1513h127l563 -1513h-135l-172 479h-643l-168 -479h-135zM342 584h567l-282 794zM367 1655l217 244h88l215 -244h-115l-145 162l-144 -162h-116zM534 -242q0 31 26.5 59.5t65.5 28.5q41 0 65.5 -28.5t24.5 -59.5q0 -37 -24.5 -63.5t-65.5 -26.5q-39 0 -65.5 26.5 t-26.5 63.5z" />
<glyph unicode="&#xe2;&#x323;" horiz-adv-x="1077" d="M82 266q0 397 692 398h19v20q0 102 -48 180q-72 125 -243 125q-111 0 -338 -71l-17 112q176 57 363 57q406 0 405 -444v-383q0 -131 37 -260l-108 -23l-45 173q-143 -178 -379 -179q-137 0 -237.5 79t-100.5 216zM211 289q0 -104 62.5 -158.5t156.5 -54.5q246 0 346 209 q16 35 17 59v213q-582 0 -582 -268zM279 1229l217 244h88l215 -244h-115l-145 162l-144 -162h-116zM446 -242q0 31 26.5 59.5t65.5 28.5q41 0 65.5 -28.5t24.5 -59.5q0 -37 -24.5 -63.5t-65.5 -26.5q-39 0 -65.5 26.5t-26.5 63.5z" />
<glyph unicode="&#x102;&#x301;" horiz-adv-x="1253" d="M0 0l563 1513h127l563 -1513h-135l-172 479h-643l-168 -479h-135zM342 584h567l-282 794zM344 1845h109q12 -35 35 -59q51 -57 139 -57q86 0 133 57q27 25 39 59h107q-16 -84 -76 -137q-82 -76 -203 -76q-123 0 -207 76q-58 53 -76 137zM560 1875l140 255l111 -27 l-164 -228h-87z" />
<glyph unicode="&#x103;&#x301;" horiz-adv-x="1077" d="M82 266q0 397 692 398h19v20q0 102 -48 180q-72 125 -243 125q-111 0 -338 -71l-17 112q176 57 363 57q406 0 405 -444v-383q0 -131 37 -260l-108 -23l-45 173q-143 -178 -379 -179q-137 0 -237.5 79t-100.5 216zM211 289q0 -104 62.5 -158.5t156.5 -54.5q246 0 346 209 q16 35 17 59v213q-582 0 -582 -268zM258 1419h109q12 -35 35 -59q51 -57 139 -57q86 0 133 57q27 25 39 59h107q-16 -84 -76 -137q-82 -76 -203 -76q-123 0 -207 76q-58 53 -76 137zM474 1457l140 255l111 -27l-164 -228h-87z" />
<glyph unicode="&#x102;&#x300;" horiz-adv-x="1253" d="M0 0l563 1513h127l563 -1513h-135l-172 479h-643l-168 -479h-135zM342 584h567l-282 794zM344 1845h109q12 -35 35 -59q51 -57 139 -57q86 0 133 57q27 25 39 59h107q-16 -84 -76 -137q-82 -76 -203 -76q-123 0 -207 76q-58 53 -76 137zM440 2109l111 27l141 -255h-87z " />
<glyph unicode="&#x103;&#x300;" horiz-adv-x="1077" d="M82 266q0 397 692 398h19v20q0 102 -48 180q-72 125 -243 125q-111 0 -338 -71l-17 112q176 57 363 57q406 0 405 -444v-383q0 -131 37 -260l-108 -23l-45 173q-143 -178 -379 -179q-137 0 -237.5 79t-100.5 216zM211 289q0 -104 62.5 -158.5t156.5 -54.5q246 0 346 209 q16 35 17 59v213q-582 0 -582 -268zM258 1419h109q12 -35 35 -59q51 -57 139 -57q86 0 133 57q27 25 39 59h107q-16 -84 -76 -137q-82 -76 -203 -76q-123 0 -207 76q-58 53 -76 137zM352 1683l111 27l141 -255h-87z" />
<glyph unicode="&#x102;&#x309;" horiz-adv-x="1253" d="M0 0l563 1513h127l563 -1513h-135l-172 479h-643l-168 -479h-135zM342 584h567l-282 794zM344 1845h109q12 -35 35 -59q51 -57 139 -57q86 0 133 57q27 25 39 59h107q-16 -84 -76 -137q-82 -76 -203 -76q-123 0 -207 76q-58 53 -76 137zM445 2172q61 113 193 113 q78 0 126 -40.5t48 -116.5q0 -88 -79.5 -150t-79.5 -95h-89q4 72 81.5 128t77.5 117q0 39 -26.5 60t-70.5 21q-74 0 -127 -79z" />
<glyph unicode="&#x103;&#x309;" horiz-adv-x="1077" d="M82 266q0 397 692 398h19v20q0 102 -48 180q-72 125 -243 125q-111 0 -338 -71l-17 112q176 57 363 57q406 0 405 -444v-383q0 -131 37 -260l-108 -23l-45 173q-143 -178 -379 -179q-137 0 -237.5 79t-100.5 216zM211 289q0 -104 62.5 -158.5t156.5 -54.5q246 0 346 209 q16 35 17 59v213q-582 0 -582 -268zM258 1419h109q12 -35 35 -59q51 -57 139 -57q86 0 133 57q27 25 39 59h107q-16 -84 -76 -137q-82 -76 -203 -76q-123 0 -207 76q-58 53 -76 137zM361 1756q61 113 193 113q78 0 126 -40.5t48 -116.5q0 -88 -79.5 -150t-79.5 -95h-89 q4 72 81.5 128t77.5 117q0 39 -26.5 60t-70.5 21q-74 0 -127 -79z" />
<glyph unicode="&#x102;&#x303;" horiz-adv-x="1253" d="M0 0l563 1513h127l563 -1513h-135l-172 479h-643l-168 -479h-135zM342 584h567l-282 794zM342 1950q2 94 44 140t109 46q33 0 67 -15.5t66.5 -36t63.5 -35.5t63 -15q53 0 62 110h78q-6 -188 -156 -188q-31 0 -65.5 15.5t-67.5 35.5t-62.5 35.5t-52.5 15.5 q-25 0 -47 -27.5t-24 -80.5h-78zM344 1845h109q12 -35 35 -59q51 -57 139 -57q86 0 133 57q27 25 39 59h107q-16 -84 -76 -137q-82 -76 -203 -76q-123 0 -207 76q-58 53 -76 137z" />
<glyph unicode="&#x103;&#x303;" horiz-adv-x="1077" d="M82 266q0 397 692 398h19v20q0 102 -48 180q-72 125 -243 125q-111 0 -338 -71l-17 112q176 57 363 57q406 0 405 -444v-383q0 -131 37 -260l-108 -23l-45 173q-143 -178 -379 -179q-137 0 -237.5 79t-100.5 216zM211 289q0 -104 62.5 -158.5t156.5 -54.5q246 0 346 209 q16 35 17 59v213q-582 0 -582 -268zM254 1518q2 94 44 140t109 46q33 0 67 -15.5t66.5 -36t63.5 -35.5t63 -15q53 0 62 110h78q-6 -188 -156 -188q-31 0 -65.5 15.5t-67.5 35.5t-62.5 35.5t-52.5 15.5q-25 0 -47 -27.5t-24 -80.5h-78zM258 1419h109q12 -35 35 -59 q51 -57 139 -57q86 0 133 57q27 25 39 59h107q-16 -84 -76 -137q-82 -76 -203 -76q-123 0 -207 76q-58 53 -76 137z" />
<glyph unicode="&#x102;&#x323;" horiz-adv-x="1253" d="M0 0l563 1513h127l563 -1513h-135l-172 479h-643l-168 -479h-135zM342 584h567l-282 794zM344 1845h109q12 -35 35 -59q51 -57 139 -57q86 0 133 57q27 25 39 59h107q-16 -84 -76 -137q-82 -76 -203 -76q-123 0 -207 76q-58 53 -76 137zM534 -242q0 31 26.5 59.5 t65.5 28.5q41 0 65.5 -28.5t24.5 -59.5q0 -37 -24.5 -63.5t-65.5 -26.5q-39 0 -65.5 26.5t-26.5 63.5z" />
<glyph unicode="&#x103;&#x323;" horiz-adv-x="1077" d="M82 266q0 397 692 398h19v20q0 102 -48 180q-72 125 -243 125q-111 0 -338 -71l-17 112q176 57 363 57q406 0 405 -444v-383q0 -131 37 -260l-108 -23l-45 173q-143 -178 -379 -179q-137 0 -237.5 79t-100.5 216zM211 289q0 -104 62.5 -158.5t156.5 -54.5q246 0 346 209 q16 35 17 59v213q-582 0 -582 -268zM258 1419h109q12 -35 35 -59q51 -57 139 -57q86 0 133 57q27 25 39 59h107q-16 -84 -76 -137q-82 -76 -203 -76q-123 0 -207 76q-58 53 -76 137zM446 -242q0 31 26.5 59.5t65.5 28.5q41 0 65.5 -28.5t24.5 -59.5q0 -37 -24.5 -63.5 t-65.5 -26.5q-39 0 -65.5 26.5t-26.5 63.5z" />
<glyph unicode="E&#x323;" horiz-adv-x="1099" d="M170 0v1491h811v-102h-690v-549h614v-103h-614v-635h690v-102h-811zM457 -242q0 31 26.5 59.5t65.5 28.5q41 0 65.5 -28.5t24.5 -59.5q0 -37 -24.5 -63.5t-65.5 -26.5q-39 0 -65.5 26.5t-26.5 63.5z" />
<glyph unicode="e&#x323;" horiz-adv-x="1171" d="M84 504q0 264 150.5 423.5t381.5 159.5q449 0 459 -561h-872q8 -213 128 -330.5t312 -117.5q186 0 373 72l8 -103q-180 -76 -393 -76q-246 0 -396.5 151t-150.5 382zM211 623h747q-2 129 -71 229q-94 137 -285 137q-172 0 -283 -125q-88 -100 -108 -241zM493 -242 q0 31 26.5 59.5t65.5 28.5q41 0 65.5 -28.5t24.5 -59.5q0 -37 -24.5 -63.5t-65.5 -26.5q-39 0 -65.5 26.5t-26.5 63.5z" />
<glyph unicode="E&#x309;" horiz-adv-x="1099" d="M170 0v1491h811v-102h-690v-549h614v-103h-614v-635h690v-102h-811zM370 1952q68 125 215 125q86 0 139.5 -45t53.5 -129q0 -98 -88 -167t-88 -106h-99q4 80 90 142.5t86 130.5q0 43 -29.5 66.5t-78.5 23.5q-82 0 -141 -88z" />
<glyph unicode="e&#x309;" horiz-adv-x="1171" d="M84 504q0 264 150.5 423.5t381.5 159.5q449 0 459 -561h-872q8 -213 128 -330.5t312 -117.5q186 0 373 72l8 -103q-180 -76 -393 -76q-246 0 -396.5 151t-150.5 382zM211 623h747q-2 129 -71 229q-94 137 -285 137q-172 0 -283 -125q-88 -100 -108 -241zM406 1492 q61 113 193 113q78 0 126 -40.5t48 -116.5q0 -88 -79.5 -150t-79.5 -95h-89q4 72 81.5 128t77.5 117q0 39 -26.5 60t-70.5 21q-74 0 -127 -79z" />
<glyph unicode="E&#x303;" horiz-adv-x="1099" d="M170 0v1491h811v-102h-690v-549h614v-103h-614v-635h690v-102h-811zM267 1649q2 94 44 140t109 46q33 0 67 -15.5t66.5 -36t63.5 -35.5t63 -15q53 0 62 110h78q-6 -188 -156 -188q-31 0 -65.5 15.5t-67.5 35.5t-62.5 35.5t-52.5 15.5q-25 0 -47 -27.5t-24 -80.5h-78z" />
<glyph unicode="e&#x303;" horiz-adv-x="1171" d="M84 434q0 264 150.5 423.5t381.5 159.5q449 0 459 -561h-872q8 -213 128 -330.5t312 -117.5q186 0 373 72l8 -103q-180 -76 -393 -76q-246 0 -396.5 151t-150.5 382zM211 553h747q-2 129 -71 229q-94 137 -285 137q-172 0 -283 -125q-88 -100 -108 -241zM301 1153 q2 94 44 140t109 46q33 0 67 -15.5t66.5 -36t63.5 -35.5t63 -15q53 0 62 110h78q-6 -188 -156 -188q-31 0 -65.5 15.5t-67.5 35.5t-62.5 35.5t-52.5 15.5q-25 0 -47 -27.5t-24 -80.5h-78z" />
<glyph unicode="&#xca;&#x301;" horiz-adv-x="1099" d="M170 0v1491h811v-102h-690v-549h614v-103h-614v-635h690v-102h-811zM289 1655l217 244h88l215 -244h-115l-145 162l-144 -162h-116zM773 1818l140 255l111 -27l-164 -228h-87z" />
<glyph unicode="&#xea;&#x301;" horiz-adv-x="1171" d="M84 504q0 264 150.5 423.5t381.5 159.5q449 0 459 -561h-872q8 -213 128 -330.5t312 -117.5q186 0 373 72l8 -103q-180 -76 -393 -76q-246 0 -396.5 151t-150.5 382zM211 623h747q-2 129 -71 229q-94 137 -285 137q-172 0 -283 -125q-88 -100 -108 -241zM326 1229 l217 244h88l215 -244h-115l-145 162l-144 -162h-116zM841 1398l140 255l111 -27l-164 -228h-87z" />
<glyph unicode="&#xca;&#x300;" horiz-adv-x="1099" d="M170 0v1491h811v-102h-690v-549h614v-103h-614v-635h690v-102h-811zM289 1655l217 244h88l215 -244h-115l-145 162l-144 -162h-116zM680 2046l111 27l141 -255h-87z" />
<glyph unicode="&#xea;&#x300;" horiz-adv-x="1171" d="M84 504q0 264 150.5 423.5t381.5 159.5q449 0 459 -561h-872q8 -213 128 -330.5t312 -117.5q186 0 373 72l8 -103q-180 -76 -393 -76q-246 0 -396.5 151t-150.5 382zM211 623h747q-2 129 -71 229q-94 137 -285 137q-172 0 -283 -125q-88 -100 -108 -241zM326 1229 l217 244h88l215 -244h-115l-145 162l-144 -162h-116zM727 1624l123 30l156 -284h-96z" />
<glyph unicode="&#xca;&#x309;" horiz-adv-x="1099" d="M170 0v1491h811v-102h-690v-549h614v-103h-614v-635h690v-102h-811zM289 1655l217 244h88l215 -244h-115l-145 162l-144 -162h-116zM705 2100q61 113 193 113q78 0 126 -40.5t48 -116.5q0 -88 -79.5 -150t-79.5 -95h-89q4 72 81.5 128t77.5 117q0 39 -26.5 60t-70.5 21 q-74 0 -127 -79z" />
<glyph unicode="&#xea;&#x309;" horiz-adv-x="1171" d="M84 504q0 264 150.5 423.5t381.5 159.5q449 0 459 -561h-872q8 -213 128 -330.5t312 -117.5q186 0 373 72l8 -103q-180 -76 -393 -76q-246 0 -396.5 151t-150.5 382zM211 623h747q-2 129 -71 229q-94 137 -285 137q-172 0 -283 -125q-88 -100 -108 -241zM326 1229 l217 244h88l215 -244h-115l-145 162l-144 -162h-116zM731 1717q61 113 193 113q78 0 126 -40.5t48 -116.5q0 -88 -79.5 -150t-79.5 -95h-89q4 72 81.5 128t77.5 117q0 39 -26.5 60t-70.5 21q-74 0 -127 -79z" />
<glyph unicode="&#xca;&#x303;" horiz-adv-x="1099" d="M170 0v1491h811v-102h-690v-549h614v-103h-614v-635h690v-102h-811zM264 1981q2 94 44 140t109 46q33 0 67 -15.5t66.5 -36t63.5 -35.5t63 -15q53 0 62 110h78q-6 -188 -156 -188q-31 0 -65.5 15.5t-67.5 35.5t-62.5 35.5t-52.5 15.5q-25 0 -47 -27.5t-24 -80.5h-78z M289 1655l217 244h88l215 -244h-115l-145 162l-144 -162h-116z" />
<glyph unicode="&#xea;&#x303;" horiz-adv-x="1171" d="M84 504q0 264 150.5 423.5t381.5 159.5q449 0 459 -561h-872q8 -213 128 -330.5t312 -117.5q186 0 373 72l8 -103q-180 -76 -393 -76q-246 0 -396.5 151t-150.5 382zM211 623h747q-2 129 -71 229q-94 137 -285 137q-172 0 -283 -125q-88 -100 -108 -241zM301 1553 q2 94 44 140t109 46q33 0 67 -15.5t66.5 -36t63.5 -35.5t63 -15q53 0 62 110h78q-6 -188 -156 -188q-31 0 -65.5 15.5t-67.5 35.5t-62.5 35.5t-52.5 15.5q-25 0 -47 -27.5t-24 -80.5h-78zM326 1229l217 244h88l215 -244h-115l-145 162l-144 -162h-116z" />
<glyph unicode="&#xca;&#x323;" horiz-adv-x="1099" d="M170 0v1491h811v-102h-690v-549h614v-103h-614v-635h690v-102h-811zM289 1655l217 244h88l215 -244h-115l-145 162l-144 -162h-116zM457 -242q0 31 26.5 59.5t65.5 28.5q41 0 65.5 -28.5t24.5 -59.5q0 -37 -24.5 -63.5t-65.5 -26.5q-39 0 -65.5 26.5t-26.5 63.5z" />
<glyph unicode="&#xea;&#x323;" horiz-adv-x="1171" d="M84 504q0 264 150.5 423.5t381.5 159.5q449 0 459 -561h-872q8 -213 128 -330.5t312 -117.5q186 0 373 72l8 -103q-180 -76 -393 -76q-246 0 -396.5 151t-150.5 382zM211 623h747q-2 129 -71 229q-94 137 -285 137q-172 0 -283 -125q-88 -100 -108 -241zM326 1229 l217 244h88l215 -244h-115l-145 162l-144 -162h-116zM493 -242q0 31 26.5 59.5t65.5 28.5q41 0 65.5 -28.5t24.5 -59.5q0 -37 -24.5 -63.5t-65.5 -26.5q-39 0 -65.5 26.5t-26.5 63.5z" />
<glyph unicode="I&#x309;" horiz-adv-x="458" d="M51 1952q68 125 215 125q86 0 139.5 -45t53.5 -129q0 -98 -88 -167t-88 -106h-99q4 80 90 142.5t86 130.5q0 43 -29.5 66.5t-78.5 23.5q-82 0 -141 -88zM170 0v1491h121v-1491h-121z" />
<glyph unicode="i&#x309;" horiz-adv-x="446" d="M45 1526q68 125 215 125q86 0 139.5 -45t53.5 -129q0 -98 -88 -167t-88 -106h-99q4 80 90 142.5t86 130.5q0 43 -29.5 66.5t-78.5 23.5q-82 0 -141 -88zM164 0v1065h119v-1065h-119z" />
<glyph unicode="I&#x323;" horiz-adv-x="458" d="M141 -242q0 31 26.5 59.5t65.5 28.5q41 0 65.5 -28.5t24.5 -59.5q0 -37 -24.5 -63.5t-65.5 -26.5q-39 0 -65.5 26.5t-26.5 63.5zM170 0v1491h121v-1491h-121z" />
<glyph unicode="i&#x323;" horiz-adv-x="446" d="M123 1389q0 43 26.5 71.5t69.5 28.5q45 0 72.5 -28.5t27.5 -71.5q0 -45 -27.5 -72t-72.5 -27q-43 0 -69.5 27t-26.5 72zM135 -242q0 31 26.5 59.5t65.5 28.5q41 0 65.5 -28.5t24.5 -59.5q0 -37 -24.5 -63.5t-65.5 -26.5q-39 0 -65.5 26.5t-26.5 63.5zM164 0v1065h121 v-1065h-121z" />
<glyph unicode="O&#x323;" horiz-adv-x="1521" d="M70 743q0 334 192.5 554.5t499.5 220.5t499.5 -220.5t192.5 -554.5q0 -336 -192.5 -555t-499.5 -219t-499.5 219t-192.5 555zM190 743q0 -276 160 -471.5t412 -195.5q250 0 409.5 195.5t159.5 471.5q0 274 -159.5 470t-409.5 196q-252 0 -412 -196t-160 -470zM670 -242 q0 31 26.5 59.5t65.5 28.5q41 0 65.5 -28.5t24.5 -59.5q0 -37 -24.5 -63.5t-65.5 -26.5q-39 0 -65.5 26.5t-26.5 63.5z" />
<glyph unicode="o&#x323;" horiz-adv-x="1245" d="M88 530q0 233 147.5 395t387.5 162q242 0 389 -161.5t147 -395.5q0 -236 -147.5 -398.5t-388.5 -162.5q-240 0 -387.5 162.5t-147.5 398.5zM207 530q0 -195 117.5 -326.5t298.5 -131.5q182 0 299.5 132t117.5 326q0 193 -117.5 323t-299.5 130q-180 0 -298 -130 t-118 -323zM532 -242q0 31 26.5 59.5t65.5 28.5q41 0 65.5 -28.5t24.5 -59.5q0 -37 -24.5 -63.5t-65.5 -26.5q-39 0 -65.5 26.5t-26.5 63.5z" />
<glyph unicode="O&#x309;" horiz-adv-x="1521" d="M70 743q0 334 192.5 554.5t499.5 220.5t499.5 -220.5t192.5 -554.5q0 -336 -192.5 -555t-499.5 -219t-499.5 219t-192.5 555zM190 743q0 -276 160 -471.5t412 -195.5q250 0 409.5 195.5t159.5 471.5q0 274 -159.5 470t-409.5 196q-252 0 -412 -196t-160 -470zM579 1952 q68 125 215 125q86 0 139.5 -45t53.5 -129q0 -98 -88 -167t-88 -106h-99q4 80 90 142.5t86 130.5q0 43 -29.5 66.5t-78.5 23.5q-82 0 -141 -88z" />
<glyph unicode="o&#x309;" horiz-adv-x="1245" d="M88 530q0 233 147.5 395t387.5 162q242 0 389 -161.5t147 -395.5q0 -236 -147.5 -398.5t-388.5 -162.5q-240 0 -387.5 162.5t-147.5 398.5zM207 530q0 -195 117.5 -326.5t298.5 -131.5q182 0 299.5 132t117.5 326q0 193 -117.5 323t-299.5 130q-180 0 -298 -130 t-118 -323zM442 1526q68 125 215 125q86 0 139.5 -45t53.5 -129q0 -98 -88 -167t-88 -106h-99q4 80 90 142.5t86 130.5q0 43 -29.5 66.5t-78.5 23.5q-82 0 -141 -88z" />
<glyph unicode="&#xd4;&#x301;" horiz-adv-x="1521" d="M70 743q0 334 192.5 554.5t499.5 220.5t499.5 -220.5t192.5 -554.5q0 -336 -192.5 -555t-499.5 -219t-499.5 219t-192.5 555zM190 743q0 -276 160 -471.5t412 -195.5q250 0 409.5 195.5t159.5 471.5q0 274 -159.5 470t-409.5 196q-252 0 -412 -196t-160 -470zM502 1655 l217 244h88l215 -244h-115l-145 162l-144 -162h-116zM1052 1818l140 255l111 -27l-164 -228h-87z" />
<glyph unicode="&#xf4;&#x301;" horiz-adv-x="1245" d="M88 530q0 233 147.5 395t387.5 162q242 0 389 -161.5t147 -395.5q0 -236 -147.5 -398.5t-388.5 -162.5q-240 0 -387.5 162.5t-147.5 398.5zM207 530q0 -195 117.5 -326.5t298.5 -131.5q182 0 299.5 132t117.5 326q0 193 -117.5 323t-299.5 130q-180 0 -298 -130 t-118 -323zM363 1229l217 244h88l215 -244h-115l-145 162l-144 -162h-116zM888 1398l140 255l111 -27l-164 -228h-87z" />
<glyph unicode="&#xd4;&#x300;" horiz-adv-x="1521" d="M70 743q0 334 192.5 554.5t499.5 220.5t499.5 -220.5t192.5 -554.5q0 -336 -192.5 -555t-499.5 -219t-499.5 219t-192.5 555zM190 743q0 -276 160 -471.5t412 -195.5q250 0 409.5 195.5t159.5 471.5q0 274 -159.5 470t-409.5 196q-252 0 -412 -196t-160 -470zM502 1655 l217 244h88l215 -244h-115l-145 162l-144 -162h-116zM954 2046l111 27l141 -255h-87z" />
<glyph unicode="&#xf4;&#x300;" horiz-adv-x="1245" d="M88 530q0 233 147.5 395t387.5 162q242 0 389 -161.5t147 -395.5q0 -236 -147.5 -398.5t-388.5 -162.5q-240 0 -387.5 162.5t-147.5 398.5zM207 530q0 -195 117.5 -326.5t298.5 -131.5q182 0 299.5 132t117.5 326q0 193 -117.5 323t-299.5 130q-180 0 -298 -130 t-118 -323zM363 1229l217 244h88l215 -244h-115l-145 162l-144 -162h-116zM796 1626l111 27l141 -255h-87z" />
<glyph unicode="&#xd4;&#x309;" horiz-adv-x="1521" d="M70 743q0 334 192.5 554.5t499.5 220.5t499.5 -220.5t192.5 -554.5q0 -336 -192.5 -555t-499.5 -219t-499.5 219t-192.5 555zM190 743q0 -276 160 -471.5t412 -195.5q250 0 409.5 195.5t159.5 471.5q0 274 -159.5 470t-409.5 196q-252 0 -412 -196t-160 -470zM502 1655 l217 244h88l215 -244h-115l-145 162l-144 -162h-116zM932 2100q61 113 193 113q78 0 126 -40.5t48 -116.5q0 -88 -79.5 -150t-79.5 -95h-89q4 72 81.5 128t77.5 117q0 39 -26.5 60t-70.5 21q-74 0 -127 -79z" />
<glyph unicode="&#xf4;&#x309;" horiz-adv-x="1245" d="M88 530q0 233 147.5 395t387.5 162q242 0 389 -161.5t147 -395.5q0 -236 -147.5 -398.5t-388.5 -162.5q-240 0 -387.5 162.5t-147.5 398.5zM207 530q0 -195 117.5 -326.5t298.5 -131.5q182 0 299.5 132t117.5 326q0 193 -117.5 323t-299.5 130q-180 0 -298 -130 t-118 -323zM363 1229l217 244h88l215 -244h-115l-145 162l-144 -162h-116zM758 1717q61 113 193 113q78 0 126 -40.5t48 -116.5q0 -88 -79.5 -150t-79.5 -95h-89q4 72 81.5 128t77.5 117q0 39 -26.5 60t-70.5 21q-74 0 -127 -79z" />
<glyph unicode="&#xd4;&#x303;" horiz-adv-x="1521" d="M70 743q0 334 192.5 554.5t499.5 220.5t499.5 -220.5t192.5 -554.5q0 -336 -192.5 -555t-499.5 -219t-499.5 219t-192.5 555zM190 743q0 -276 160 -471.5t412 -195.5q250 0 409.5 195.5t159.5 471.5q0 274 -159.5 470t-409.5 196q-252 0 -412 -196t-160 -470zM477 1981 q2 94 44 140t109 46q33 0 67 -15.5t66.5 -36t63.5 -35.5t63 -15q53 0 62 110h78q-6 -188 -156 -188q-31 0 -65.5 15.5t-67.5 35.5t-62.5 35.5t-52.5 15.5q-25 0 -47 -27.5t-24 -80.5h-78zM502 1655l217 244h88l215 -244h-115l-145 162l-144 -162h-116z" />
<glyph unicode="&#xf4;&#x303;" horiz-adv-x="1245" d="M88 530q0 233 147.5 395t387.5 162q242 0 389 -161.5t147 -395.5q0 -236 -147.5 -398.5t-388.5 -162.5q-240 0 -387.5 162.5t-147.5 398.5zM207 530q0 -195 117.5 -326.5t298.5 -131.5q182 0 299.5 132t117.5 326q0 193 -117.5 323t-299.5 130q-180 0 -298 -130 t-118 -323zM340 1553q2 94 44 140t109 46q33 0 67 -15.5t66.5 -36t63.5 -35.5t63 -15q53 0 62 110h78q-6 -188 -156 -188q-31 0 -65.5 15.5t-67.5 35.5t-62.5 35.5t-52.5 15.5q-25 0 -47 -27.5t-24 -80.5h-78zM363 1229l217 244h88l215 -244h-115l-145 162l-144 -162h-116z " />
<glyph unicode="&#xd4;&#x323;" horiz-adv-x="1521" d="M70 743q0 334 192.5 554.5t499.5 220.5t499.5 -220.5t192.5 -554.5q0 -336 -192.5 -555t-499.5 -219t-499.5 219t-192.5 555zM190 743q0 -276 160 -471.5t412 -195.5q250 0 409.5 195.5t159.5 471.5q0 274 -159.5 470t-409.5 196q-252 0 -412 -196t-160 -470zM502 1655 l217 244h88l215 -244h-115l-145 162l-144 -162h-116zM670 -242q0 31 26.5 59.5t65.5 28.5q41 0 65.5 -28.5t24.5 -59.5q0 -37 -24.5 -63.5t-65.5 -26.5q-39 0 -65.5 26.5t-26.5 63.5z" />
<glyph unicode="&#xf4;&#x323;" horiz-adv-x="1245" d="M88 530q0 233 147.5 395t387.5 162q242 0 389 -161.5t147 -395.5q0 -236 -147.5 -398.5t-388.5 -162.5q-240 0 -387.5 162.5t-147.5 398.5zM207 530q0 -195 117.5 -326.5t298.5 -131.5q182 0 299.5 132t117.5 326q0 193 -117.5 323t-299.5 130q-180 0 -298 -130 t-118 -323zM363 1229l217 244h88l215 -244h-115l-145 162l-144 -162h-116zM532 -242q0 31 26.5 59.5t65.5 28.5q41 0 65.5 -28.5t24.5 -59.5q0 -37 -24.5 -63.5t-65.5 -26.5q-39 0 -65.5 26.5t-26.5 63.5z" />
<glyph unicode="&#x1a0;&#x301;" horiz-adv-x="1521" d="M70 743q0 334 192.5 554.5t499.5 220.5q272 0 461 -181q131 141 131 295h100q0 -70 -45 -162q-53 -111 -137 -186q182 -215 182 -541q0 -336 -192.5 -555t-499.5 -219t-499.5 219t-192.5 555zM190 743q0 -276 160 -471.5t412 -195.5q250 0 409.5 195.5t159.5 471.5 q0 274 -159.5 470t-409.5 196q-252 0 -412 -196t-160 -470zM609 1649l155 284l123 -30l-182 -254h-96z" />
<glyph unicode="&#x1a1;&#x301;" horiz-adv-x="1245" d="M88 530q0 233 147.5 395t387.5 162q211 0 360 -135q115 106 123 295h104q-6 -190 -176 -348q125 -156 125 -369q0 -236 -147.5 -398.5t-388.5 -162.5q-240 0 -387.5 162.5t-147.5 398.5zM207 530q0 -195 117.5 -326.5t298.5 -131.5q182 0 299.5 132t117.5 326 q0 193 -117.5 323t-299.5 130q-180 0 -298 -130t-118 -323zM471 1223l155 284l123 -30l-182 -254h-96z" />
<glyph unicode="&#x1a0;&#x300;" horiz-adv-x="1521" d="M70 743q0 334 192.5 554.5t499.5 220.5q272 0 461 -181q131 141 131 295h100q0 -70 -45 -162q-53 -111 -137 -186q182 -215 182 -541q0 -336 -192.5 -555t-499.5 -219t-499.5 219t-192.5 555zM190 743q0 -276 160 -471.5t412 -195.5q250 0 409.5 195.5t159.5 471.5 q0 274 -159.5 470t-409.5 196q-252 0 -412 -196t-160 -470zM639 1903l123 30l156 -284h-96z" />
<glyph unicode="&#x1a1;&#x300;" horiz-adv-x="1245" d="M88 530q0 233 147.5 395t387.5 162q211 0 360 -135q115 106 123 295h104q-6 -190 -176 -348q125 -156 125 -369q0 -236 -147.5 -398.5t-388.5 -162.5q-240 0 -387.5 162.5t-147.5 398.5zM207 530q0 -195 117.5 -326.5t298.5 -131.5q182 0 299.5 132t117.5 326 q0 193 -117.5 323t-299.5 130q-180 0 -298 -130t-118 -323zM501 1477l123 30l156 -284h-96z" />
<glyph unicode="&#x1a0;&#x309;" horiz-adv-x="1521" d="M70 743q0 334 192.5 554.5t499.5 220.5q272 0 461 -181q131 141 131 295h100q0 -70 -45 -162q-53 -111 -137 -186q182 -215 182 -541q0 -336 -192.5 -555t-499.5 -219t-499.5 219t-192.5 555zM190 743q0 -276 160 -471.5t412 -195.5q250 0 409.5 195.5t159.5 471.5 q0 274 -159.5 470t-409.5 196q-252 0 -412 -196t-160 -470zM579 1952q68 125 215 125q86 0 139.5 -45t53.5 -129q0 -98 -88 -167t-88 -106h-99q4 80 90 142.5t86 130.5q0 43 -29.5 66.5t-78.5 23.5q-82 0 -141 -88z" />
<glyph unicode="&#x1a1;&#x309;" horiz-adv-x="1245" d="M88 530q0 233 147.5 395t387.5 162q211 0 360 -135q115 106 123 295h104q-6 -190 -176 -348q125 -156 125 -369q0 -236 -147.5 -398.5t-388.5 -162.5q-240 0 -387.5 162.5t-147.5 398.5zM207 530q0 -195 117.5 -326.5t298.5 -131.5q182 0 299.5 132t117.5 326 q0 193 -117.5 323t-299.5 130q-180 0 -298 -130t-118 -323zM442 1492q61 113 193 113q78 0 126 -40.5t48 -116.5q0 -88 -79.5 -150t-79.5 -95h-89q4 72 81.5 128t77.5 117q0 39 -26.5 60t-70.5 21q-74 0 -127 -79z" />
<glyph unicode="&#x1a0;&#x303;" horiz-adv-x="1521" d="M70 743q0 334 192.5 554.5t499.5 220.5q272 0 461 -181q131 141 131 295h100q0 -70 -45 -162q-53 -111 -137 -186q182 -215 182 -541q0 -336 -192.5 -555t-499.5 -219t-499.5 219t-192.5 555zM190 743q0 -276 160 -471.5t412 -195.5q250 0 409.5 195.5t159.5 471.5 q0 274 -159.5 470t-409.5 196q-252 0 -412 -196t-160 -470zM477 1649q2 94 44 140t109 46q33 0 67 -15.5t66.5 -36t63.5 -35.5t63 -15q53 0 62 110h78q-6 -188 -156 -188q-31 0 -65.5 15.5t-67.5 35.5t-62.5 35.5t-52.5 15.5q-25 0 -47 -27.5t-24 -80.5h-78z" />
<glyph unicode="&#x1a1;&#x303;" horiz-adv-x="1245" d="M88 530q0 233 147.5 395t387.5 162q211 0 360 -135q115 106 123 295h104q-6 -190 -176 -348q125 -156 125 -369q0 -236 -147.5 -398.5t-388.5 -162.5q-240 0 -387.5 162.5t-147.5 398.5zM207 530q0 -195 117.5 -326.5t298.5 -131.5q182 0 299.5 132t117.5 326 q0 193 -117.5 323t-299.5 130q-180 0 -298 -130t-118 -323zM340 1223q2 94 44 140t109 46q33 0 67 -15.5t66.5 -36t63.5 -35.5t63 -15q53 0 62 110h78q-6 -188 -156 -188q-31 0 -65.5 15.5t-67.5 35.5t-62.5 35.5t-52.5 15.5q-25 0 -47 -27.5t-24 -80.5h-78z" />
<glyph unicode="&#x1a0;&#x323;" horiz-adv-x="1521" d="M70 743q0 334 192.5 554.5t499.5 220.5q272 0 461 -181q131 141 131 295h100q0 -70 -45 -162q-53 -111 -137 -186q182 -215 182 -541q0 -336 -192.5 -555t-499.5 -219t-499.5 219t-192.5 555zM190 743q0 -276 160 -471.5t412 -195.5q250 0 409.5 195.5t159.5 471.5 q0 274 -159.5 470t-409.5 196q-252 0 -412 -196t-160 -470zM670 -242q0 31 26.5 59.5t65.5 28.5q41 0 65.5 -28.5t24.5 -59.5q0 -37 -24.5 -63.5t-65.5 -26.5q-39 0 -65.5 26.5t-26.5 63.5z" />
<glyph unicode="&#x1a1;&#x323;" horiz-adv-x="1245" d="M88 530q0 233 147.5 395t387.5 162q211 0 360 -135q115 106 123 295h104q-6 -190 -176 -348q125 -156 125 -369q0 -236 -147.5 -398.5t-388.5 -162.5q-240 0 -387.5 162.5t-147.5 398.5zM207 530q0 -195 117.5 -326.5t298.5 -131.5q182 0 299.5 132t117.5 326 q0 193 -117.5 323t-299.5 130q-180 0 -298 -130t-118 -323zM532 -242q0 31 26.5 59.5t65.5 28.5q41 0 65.5 -28.5t24.5 -59.5q0 -37 -24.5 -63.5t-65.5 -26.5q-39 0 -65.5 26.5t-26.5 63.5z" />
<glyph unicode="U&#x323;" horiz-adv-x="1458" d="M170 631v860h121v-858q0 -295 120.5 -426t317.5 -131q201 0 321.5 131t118.5 426v858h121v-860q0 -659 -561 -660q-559 1 -559 660zM639 -242q0 31 26.5 59.5t65.5 28.5q41 0 65.5 -28.5t24.5 -59.5q0 -37 -24.5 -63.5t-65.5 -26.5q-39 0 -65.5 26.5t-26.5 63.5z" />
<glyph unicode="u&#x323;" horiz-adv-x="1220" d="M164 467v598h121v-576q0 -412 288 -411q135 0 244 88q119 100 119 254v645h123v-805q0 -117 53 -256l-115 -27q-39 106 -51 207q-137 -213 -401 -213q-381 0 -381 496zM520 -242q0 31 26.5 59.5t65.5 28.5q41 0 65.5 -28.5t24.5 -59.5q0 -37 -24.5 -63.5t-65.5 -26.5 q-39 0 -65.5 26.5t-26.5 63.5z" />
<glyph unicode="U&#x309;" horiz-adv-x="1458" d="M170 631v860h121v-858q0 -295 120.5 -426t317.5 -131q201 0 321.5 131t118.5 426v858h121v-860q0 -659 -561 -660q-559 1 -559 660zM549 1952q68 125 215 125q86 0 139.5 -45t53.5 -129q0 -98 -88 -167t-88 -106h-99q4 80 90 142.5t86 130.5q0 43 -29.5 66.5t-78.5 23.5 q-82 0 -141 -88z" />
<glyph unicode="u&#x309;" horiz-adv-x="1220" d="M164 467v598h121v-576q0 -412 288 -411q135 0 244 88q119 100 119 254v645h123v-805q0 -117 53 -256l-115 -27q-39 106 -51 207q-137 -213 -401 -213q-381 0 -381 496zM430 1492q61 113 193 113q78 0 126 -40.5t48 -116.5q0 -88 -79.5 -150t-79.5 -95h-89q4 72 81.5 128 t77.5 117q0 39 -26.5 60t-70.5 21q-74 0 -127 -79z" />
<glyph unicode="&#x1af;&#x301;" horiz-adv-x="1458" d="M170 631v860h121v-858q0 -295 120.5 -426t317.5 -131q201 0 321.5 131t118.5 426v858h121v-137q141 123 152 278h100q-29 -223 -252 -372v-629q0 -659 -561 -660q-559 1 -559 660zM650 1649l155 284l123 -30l-182 -254h-96z" />
<glyph unicode="&#x1b0;&#x301;" horiz-adv-x="1167" d="M164 467v598h121v-576q0 -412 288 -411q135 0 244 88q119 100 119 254v645h123v-129q125 121 137 311h100q-20 -258 -237 -397v-590q0 -117 53 -256l-115 -27q-39 106 -51 207q-137 -213 -401 -213q-381 0 -381 496zM502 1223l155 284l123 -30l-182 -254h-96z" />
<glyph unicode="&#x1af;&#x300;" horiz-adv-x="1458" d="M170 631v860h121v-858q0 -295 120.5 -426t317.5 -131q201 0 321.5 131t118.5 426v858h121v-137q141 123 152 278h100q-29 -223 -252 -372v-629q0 -659 -561 -660q-559 1 -559 660zM563 1903l123 30l156 -284h-96z" />
<glyph unicode="&#x1b0;&#x300;" horiz-adv-x="1167" d="M164 467v598h121v-576q0 -412 288 -411q135 0 244 88q119 100 119 254v645h123v-129q125 121 137 311h100q-20 -258 -237 -397v-590q0 -117 53 -256l-115 -27q-39 106 -51 207q-137 -213 -401 -213q-381 0 -381 496zM401 1477l123 30l156 -284h-96z" />
<glyph unicode="&#x1af;&#x309;" horiz-adv-x="1458" d="M170 631v860h121v-858q0 -295 120.5 -426t317.5 -131q201 0 321.5 131t118.5 426v858h121v-137q141 123 152 278h100q-29 -223 -252 -372v-629q0 -659 -561 -660q-559 1 -559 660zM530 1952q68 125 215 125q86 0 139.5 -45t53.5 -129q0 -98 -88 -167t-88 -106h-99 q4 80 90 142.5t86 130.5q0 43 -29.5 66.5t-78.5 23.5q-82 0 -141 -88z" />
<glyph unicode="&#x1b0;&#x309;" horiz-adv-x="1167" d="M164 467v598h121v-576q0 -412 288 -411q135 0 244 88q119 100 119 254v645h123v-129q125 121 137 311h100q-20 -258 -237 -397v-590q0 -117 53 -256l-115 -27q-39 106 -51 207q-137 -213 -401 -213q-381 0 -381 496zM432 1492q61 113 193 113q78 0 126 -40.5t48 -116.5 q0 -88 -79.5 -150t-79.5 -95h-89q4 72 81.5 128t77.5 117q0 39 -26.5 60t-70.5 21q-74 0 -127 -79z" />
<glyph unicode="&#x1af;&#x303;" horiz-adv-x="1458" d="M170 631v860h121v-858q0 -295 120.5 -426t317.5 -131q201 0 321.5 131t118.5 426v858h121v-137q141 123 152 278h100q-29 -223 -252 -372v-629q0 -659 -561 -660q-559 1 -559 660zM461 1649q2 94 44 140t109 46q33 0 67 -15.5t66.5 -36t63.5 -35.5t63 -15q53 0 62 110h78 q-6 -188 -156 -188q-31 0 -65.5 15.5t-67.5 35.5t-62.5 35.5t-52.5 15.5q-25 0 -47 -27.5t-24 -80.5h-78z" />
<glyph unicode="&#x1b0;&#x303;" horiz-adv-x="1167" d="M164 467v598h121v-576q0 -412 288 -411q135 0 244 88q119 100 119 254v645h123v-129q125 121 137 311h100q-20 -258 -237 -397v-590q0 -117 53 -256l-115 -27q-39 106 -51 207q-137 -213 -401 -213q-381 0 -381 496zM346 1223q2 94 44 140t109 46q33 0 67 -15.5t66.5 -36 t63.5 -35.5t63 -15q53 0 62 110h78q-6 -188 -156 -188q-31 0 -65.5 15.5t-67.5 35.5t-62.5 35.5t-52.5 15.5q-25 0 -47 -27.5t-24 -80.5h-78z" />
<glyph unicode="&#x1af;&#x323;" horiz-adv-x="1458" d="M170 631v860h121v-858q0 -295 120.5 -426t317.5 -131q201 0 321.5 131t118.5 426v858h121v-137q141 123 152 278h100q-29 -223 -252 -372v-629q0 -659 -561 -660q-559 1 -559 660zM639 -242q0 31 26.5 59.5t65.5 28.5q41 0 65.5 -28.5t24.5 -59.5q0 -37 -24.5 -63.5 t-65.5 -26.5q-39 0 -65.5 26.5t-26.5 63.5z" />
<glyph unicode="&#x1b0;&#x323;" horiz-adv-x="1167" d="M164 467v598h121v-576q0 -412 288 -411q135 0 244 88q119 100 119 254v645h123v-129q125 121 137 311h100q-20 -258 -237 -397v-590q0 -117 53 -256l-115 -27q-39 106 -51 207q-137 -213 -401 -213q-381 0 -381 496zM491 -242q0 31 26.5 59.5t65.5 28.5q41 0 65.5 -28.5 t24.5 -59.5q0 -37 -24.5 -63.5t-65.5 -26.5q-39 0 -65.5 26.5t-26.5 63.5z" />
<glyph unicode="Y&#x300;" horiz-adv-x="1144" d="M0 1491h141l432 -729l433 729h141l-514 -834v-657h-119v655zM395 1903l123 30l156 -284h-96z" />
<glyph unicode="y&#x300;" horiz-adv-x="1054" d="M10 1065h131l398 -901l372 901h136l-469 -1065q-186 -416 -494 -489l-27 98q266 59 404 426q0 8 -10 37zM327 1477l123 30l156 -284h-96z" />
<glyph unicode="Y&#x323;" horiz-adv-x="1144" d="M0 1491h141l432 -729l433 729h141l-514 -834v-657h-119v655zM481 -242q0 31 26.5 59.5t65.5 28.5q41 0 65.5 -28.5t24.5 -59.5q0 -37 -24.5 -63.5t-65.5 -26.5q-39 0 -65.5 26.5t-26.5 63.5z" />
<glyph unicode="y&#x323;" horiz-adv-x="1054" d="M10 1065h131l398 -901l372 901h136l-469 -1065q-186 -416 -494 -489l-27 98q266 59 404 426q0 8 -10 37zM651 -242q0 31 26.5 59.5t65.5 28.5q41 0 65.5 -28.5t24.5 -59.5q0 -37 -24.5 -63.5t-65.5 -26.5q-39 0 -65.5 26.5t-26.5 63.5z" />
<glyph unicode="Y&#x309;" horiz-adv-x="1144" d="M0 1491h141l432 -729l433 729h141l-514 -834v-657h-119v655zM393 1952q68 125 215 125q86 0 139.5 -45t53.5 -129q0 -98 -88 -167t-88 -106h-99q4 80 90 142.5t86 130.5q0 43 -29.5 66.5t-78.5 23.5q-82 0 -141 -88z" />
<glyph unicode="y&#x309;" horiz-adv-x="1054" d="M10 1065h131l398 -901l372 901h136l-469 -1065q-186 -416 -494 -489l-27 98q266 59 404 426q0 8 -10 37zM344 1492q61 113 193 113q78 0 126 -40.5t48 -116.5q0 -88 -79.5 -150t-79.5 -95h-89q4 72 81.5 128t77.5 117q0 39 -26.5 60t-70.5 21q-74 0 -127 -79z" />
<glyph unicode="Y&#x303;" horiz-adv-x="1144" d="M0 1491h141l432 -729l433 729h141l-514 -834v-657h-119v655zM289 1649q2 94 44 140t109 46q33 0 67 -15.5t66.5 -36t63.5 -35.5t63 -15q53 0 62 110h78q-6 -188 -156 -188q-31 0 -65.5 15.5t-67.5 35.5t-62.5 35.5t-52.5 15.5q-25 0 -47 -27.5t-24 -80.5h-78z" />
<glyph unicode="y&#x303;" horiz-adv-x="1054" d="M10 1065h131l398 -901l372 901h136l-469 -1065q-186 -416 -494 -489l-27 98q266 59 404 426q0 8 -10 37zM246 1223q2 94 44 140t109 46q33 0 67 -15.5t66.5 -36t63.5 -35.5t63 -15q53 0 62 110h78q-6 -188 -156 -188q-31 0 -65.5 15.5t-67.5 35.5t-62.5 35.5t-52.5 15.5 q-25 0 -47 -27.5t-24 -80.5h-78z" />
<glyph unicode="&#xe4f;&#x22;" horiz-adv-x="1386" d="M176 510q0 219 153.5 374.5t375.5 155.5q217 0 373.5 -156.5t156.5 -373.5q0 -221 -155.5 -374.5t-374.5 -153.5q-221 0 -375 153.5t-154 374.5zM285 510q0 -178 120.5 -300t299.5 -122q176 0 297.5 124t121.5 298q0 176 -121.5 298t-297.5 122q-174 0 -297 -122 t-123 -298zM395 510q0 129 91.5 220t218.5 91q129 0 220 -91t91 -220q0 -127 -91 -220t-220 -93q-127 0 -218.5 93t-91.5 220zM484 1710h147l-33 -504h-84zM504 510q0 -84 58.5 -142.5t142.5 -58.5q86 0 143 58.5t57 142.5q0 82 -57 141.5t-143 59.5q-84 0 -142.5 -59.5 t-58.5 -141.5zM756 1710h148l-33 -504h-84z" />
<glyph unicode="&#xe24;&#xe32;" horiz-adv-x="1800" d="M82 852q25 172 163 286.5t316 114.5q201 0 325 -112.5t124 -311.5v-1456h-113v1444q0 160 -94 248t-248 88q-106 0 -203.5 -61.5t-134.5 -155.5q190 -14 246 -133q-72 -16 -128 -84t-56 -146v-202q51 20 94 20q88 0 149.5 -60.5t61.5 -148.5t-61.5 -147.5t-149.5 -59.5 t-147.5 59.5t-59.5 147.5v387q0 170 160 248q-84 35 -244 35zM272 178q0 -43 30 -72.5t75 -29.5q43 0 74.5 29.5t31.5 72.5q0 45 -31.5 76t-74.5 31q-45 0 -75 -31t-30 -76zM887 922q2 131 104 231t262 100q182 0 277.5 -88t95.5 -231v-1561h-113v1563q0 94 -70.5 155.5 t-193.5 61.5q-109 0 -174.5 -73.5t-71.5 -157.5h-116z" />
<glyph unicode="&#xe26;&#xe32;" horiz-adv-x="1945" d="M76 178q0 86 59.5 146.5t143.5 60.5q35 0 75 -14q-18 143 -18 219q0 143 125 225q-84 37 -166 37q-41 0 -59 -2q14 174 151 288.5t318 114.5q201 0 326.5 -114.5t125.5 -311.5v-1454h-115v1442q0 154 -95 246t-245 92q-106 0 -205.5 -61.5t-136.5 -155.5 q166 -14 254 -137q-170 -55 -170 -230q0 -121 29 -250q12 -55 12 -131q0 -92 -61.5 -152.5t-144.5 -60.5q-84 0 -143.5 59.5t-59.5 143.5zM176 178q0 -43 30 -72.5t73 -29.5q45 0 75.5 29.5t30.5 72.5q0 45 -30.5 76t-75.5 31q-43 0 -73 -31t-30 -76zM1031 922 q2 131 104 231t262 100q182 0 277.5 -88t95.5 -231v-1561h-113v1563q0 94 -70.5 155.5t-193.5 61.5q-109 0 -174.5 -73.5t-71.5 -157.5h-116z" />
<glyph unicode="&#xfb01;" horiz-adv-x="1085" d="M31 969v96h157v53q0 223 111 356.5t324 133.5q152 0 268 -84l-53 -94q-121 74 -236 73q-293 0 -293 -385v-53h615v-1065h-121v969h-494v-969h-121v969h-157z" />
<glyph unicode="&#xfb02;" horiz-adv-x="1265" d="M31 969v96h157v33q0 252 137.5 381t348.5 129q123 0 250 -64v-960q0 -229 41 -334q63 -162 245 -166l-14 -107q-393 18 -393 560v936q-63 31 -154 30q-98 0 -163.5 -32.5t-104.5 -86t-55.5 -125t-16.5 -147.5v-47h307v-96h-307v-969h-121v969h-157z" />
<glyph unicode="PSK&#x2e;Design&#x28;c&#x29;" horiz-adv-x="2988" d="M182 623v79h2536v-79h-2536zM207 383q0 131 153 131q117 0 129 -94h-81q-4 41 -54 41q-72 0 -71 -78q0 -80 67 -80q53 0 58 39h81q-10 -94 -135 -94q-147 0 -147 135zM225 1147v704h344q281 0 281 -225q0 -229 -313 -229h-129v-250h-183zM408 1538h118q137 0 138 92 q0 86 -138 86h-118v-178zM508 0l61 135h47l58 -135h-41l-12 29h-64l-12 -29h-37zM508 379q0 129 156 129q154 0 153 -129q0 -131 -160 -131q-149 0 -149 131zM567 53h47l-22 53zM580 379q0 -78 84 -78q80 0 79 76q0 80 -79 80q-84 0 -84 -78zM680 0v135h31v-106h69v-29h-100 zM791 0v135h30v-106h70v-29h-100zM803 1124q0 51 12 99h119q-4 -23 -4 -54q0 -248 311 -247q137 0 248 65q141 84 141 242q0 119 -164 180q-147 51 -297 100q-164 70 -163 201q0 213 163 326q143 98 373 98q156 0 249 -65.5t93 -184.5q0 -47 -16 -104h-113q6 43 6 59 q0 188 -207 189q-188 0 -299.5 -72t-111.5 -195q0 -82 57 -123t236.5 -92t252 -112.5t72.5 -161.5q0 -248 -182 -363q-143 -94 -369 -94q-193 0 -300 81t-107 228zM852 260v248h129q109 0 109 -84q0 -86 -119 -86h-53v-78h-66zM918 389h47q53 0 53 35q0 31 -53 31h-47v-66z M963 0v135h65q53 0 53 -35q0 -25 -24 -34q18 -6 30 -66h-40q0 12 -5 25q-8 29 -26 28h-19v-53h-34zM997 82h19q25 0 24 12q0 16 -24 17h-19v-29zM1081 508h82l74 -107q10 12 70 107h71l-112 -164v-84h-72v88zM1104 0v135h26v-135h-26zM1151 66q0 72 78 71q59 0 61 -49h-33 q-4 23 -28 23q-41 0 -41 -41q0 -45 43 -45q16 0 26 4v20h-28v27h61v-66q-27 -14 -59 -14q-80 0 -80 70zM1311 0v135h32v-53h70v53h35v-135h-35v57h-70v-57h-32zM1409 260v248h141q106 0 107 -66q0 -41 -53 -59q47 -10 47 -59l12 -64h-68l-16 64q-2 31 -53 30h-43v-94h-74z M1456 106v29h129v-29h-43v-106h-39v106h-47zM1483 395h47q55 0 55 35q0 25 -55 25h-47v-60zM1663 0v135h70q51 0 51 -35q0 -25 -27 -34q20 -6 33 -66h-39q0 12 -2 25q-10 29 -25 28h-22v-53h-39zM1692 260v248h77v-248h-77zM1702 82h22q20 0 21 12q0 16 -21 17h-22v-29z M1798 0v135h105v-29h-70v-24h65v-25h-65v-28h72v-29h-107zM1804 383q0 127 154 127q125 0 135 -84h-82q-6 35 -55 35q-76 0 -76 -76q0 -82 84 -82l51 6v45h-59v41h137v-125q-57 -16 -129 -16q-160 0 -160 129zM1917 47h35q0 -23 24 -22q23 0 23 12q0 4 -39 18.5t-39 38.5 q0 43 55 43q57 0 58 -43h-35q0 18 -23 19q-20 0 -20 -17q0 -12 40 -21t40 -34q0 -45 -62 -45q-57 0 -57 51zM1997 1147v704h186v-301l258 301h219l-278 -313l301 -391h-242l-258 356v-356h-186zM2052 0v135h107v-29h-72v-24h65v-25h-65v-28h72v-29h-107zM2134 260v248h76 v-98h125v98h71v-248h-71v100h-125v-100h-76zM2169 0v135h65q47 0 47 -35q0 -25 -24 -34q18 -6 31 -66h-37q0 12 -4 25q-10 29 -25 28h-22v-53h-31zM2200 82h22q20 0 21 12q0 16 -21 17h-22v-29zM2277 135h39l37 -100l37 100h35l-53 -135h-37zM2431 0v135h104v-29h-65v-24h61 v-25h-61v-28h65v-29h-104zM2435 451v57h272v-57h-104v-191h-72v191h-96zM2550 0v135h63q76 0 76 -69q0 -66 -76 -66h-63zM2589 31h24q41 0 41 35q0 41 -41 40h-24v-75zM2597 2116q0 82 52 133t130 51q82 0 135.5 -51t53.5 -133t-53.5 -132.5t-135.5 -50.5q-78 0 -130 50.5 t-52 132.5zM2630 2111q0 -66 44 -109.5t105 -43.5q66 0 113 44t47 109q0 66 -47 112t-113 46q-61 0 -105 -46t-44 -112zM2679 2118q0 113 98 112q84 0 90 -73h-51q-8 31 -39 30q-41 0 -41 -65q0 -76 43 -76q35 0 37 41h53q-14 -82 -92 -82q-98 0 -98 113z" />
<glyph unicode="&#xd;" />
<glyph unicode=" "  horiz-adv-x="675" />
<glyph unicode="&#x09;" horiz-adv-x="675" />
<glyph unicode="&#xa0;" horiz-adv-x="675" />
<glyph unicode="!" horiz-adv-x="458" d="M119 88q0 43 31.5 76t74.5 33q45 0 78 -33t33 -76q0 -45 -33 -75.5t-78 -30.5q-43 0 -74.5 30.5t-31.5 75.5zM154 1489h147l-25 -1112h-100z" />
<glyph unicode="&#x22;" horiz-adv-x="651" d="M117 1563h147l-33 -504h-84zM389 1563h148l-33 -504h-84z" />
<glyph unicode="#" horiz-adv-x="1261" d="M106 430v94h191l82 398h-273v94h291l88 420h95l-88 -420h389l90 420h98l-88 -420h162v-94h-180l-82 -398h262v-94h-287l-88 -418h-92l92 418h-395l-90 -418h-93l93 418h-177zM389 524h393l82 398h-391z" />
<glyph unicode="$" horiz-adv-x="1130" d="M164 160l55 96q125 -106 313 -106q141 0 227.5 73.5t86.5 186.5q0 182 -277 299q-375 156 -374 389q0 133 91 227t244 117v237h107v-237q154 -10 287 -92l-56 -101q-106 92 -282 92q-137 0 -213 -77q-63 -63 -64 -152q0 -94 66.5 -154.5t228.5 -134.5q186 -80 264 -159 q96 -100 97 -248q0 -125 -84 -226q-98 -109 -267 -141v-231h-110v231q-201 0 -340 111z" />
<glyph unicode="%" horiz-adv-x="1832" d="M106 1047q0 444 336 444q334 0 334 -444t-334 -445q-336 1 -336 445zM219 1047q0 -344 223 -345q221 0 222 345q0 344 -222 344q-223 0 -223 -344zM403 -29l910 1520h106l-909 -1520h-107zM1053 436q0 444 336 445q336 0 335 -445q0 -446 -335 -446q-336 0 -336 446z M1165 436q0 -346 224 -346q221 0 221 346q0 344 -221 344q-224 0 -224 -344z" />
<glyph unicode="&#x26;" horiz-adv-x="1325" d="M59 401q0 297 318 455q-135 178 -135 320q0 150 100 259t268 109q139 0 226.5 -86t87.5 -221q0 -250 -381 -422q180 -201 469 -498q106 143 166 486h116q-76 -399 -211 -553q121 -119 265 -250h-158q-59 57 -174 166q-233 -195 -506 -195q-186 0 -318.5 124t-132.5 306z M178 416q0 -152 103.5 -248t257.5 -96q236 0 405 170q-287 285 -506 534q-260 -137 -260 -360zM356 1188q0 -123 133 -295q326 158 326 332q0 92 -51 153q-59 72 -166 72q-109 0 -175.5 -78t-66.5 -184z" />
<glyph unicode="'" horiz-adv-x="374" d="M117 1563h143l-29 -504h-84z" />
<glyph unicode="(" horiz-adv-x="593" d="M63 733q0 508 345 934h124q-350 -401 -350 -934q0 -498 348 -915h-120q-347 378 -347 915z" />
<glyph unicode=")" horiz-adv-x="593" d="M63 -182q346 436 347 925q0 494 -347 924h119q348 -391 348 -924q0 -520 -348 -925h-119z" />
<glyph unicode="*" horiz-adv-x="892" d="M57 1116v119l322 -23l-201 267l119 69l152 -288l147 288l119 -69l-201 -267l324 23v-119l-324 27l201 -269l-105 -65l-166 309l-161 -309l-105 65l201 269z" />
<glyph unicode="+" horiz-adv-x="1286" d="M119 516v105h471v497h108v-497h471v-105h-471v-516h-108v516h-471z" />
<glyph unicode="," horiz-adv-x="505" d="M94 -295q162 111 182 272q-51 0 -86.5 35t-35.5 82t34.5 83t81.5 36q49 0 82 -38t33 -91q-6 -168 -102 -297q-66 -90 -146 -129z" />
<glyph unicode="-" horiz-adv-x="675" d="M63 516v105h547v-105h-547z" />
<glyph unicode="." horiz-adv-x="505" d="M143 88q0 43 32 76t75 33q45 0 77.5 -33t32.5 -76q0 -45 -32.5 -75.5t-77.5 -30.5q-43 0 -75 30.5t-32 75.5z" />
<glyph unicode="/" horiz-adv-x="845" d="M-57 -90l800 1634h127l-807 -1634h-120z" />
<glyph unicode="0" horiz-adv-x="1132" d="M96 711q0 317 111 536q129 254 360 254t361 -254q106 -219 106 -536q0 -260 -100 -473q-129 -272 -367 -273q-242 0 -370 273q-101 211 -101 473zM223 715q0 -225 74 -408q94 -236 270 -235q172 0 267 235q76 182 75 408q0 272 -80 461q-92 219 -262 219 q-172 0 -266 -219q-78 -187 -78 -461z" />
<glyph unicode="1" horiz-adv-x="1132" d="M236 1182l360 315q68 0 68 -119v-1265h235v-113h-596v113h236v1194l-236 -203z" />
<glyph unicode="2" horiz-adv-x="1132" d="M82 0q12 78 43 178q135 139 298 296t363 396q100 135 101 258q0 121 -79 187.5t-204 66.5q-281 0 -319 -282l-113 30q18 182 145 279q113 88 291 88q174 0 289 -107.5t115 -271.5q0 -238 -375 -598q-274 -270 -387 -397h801l-27 -123h-942z" />
<glyph unicode="3" horiz-adv-x="1132" d="M106 82l54 96q117 -88 303 -88q182 0 311 123t129 285q0 123 -75.5 203.5t-190.5 80.5q-135 0 -211 -71l-59 100q119 92 237 186q178 150 178 234q0 154 -213 153q-233 0 -350 -233l-88 45q51 139 173 220t276 81q131 0 225 -70.5t94 -191.5q0 -145 -256 -338h19 q166 0 266 -111.5t100 -281.5q0 -238 -163 -385.5t-421 -153.5q-207 -6 -338 117z" />
<glyph unicode="4" horiz-adv-x="1132" d="M100 348q6 467 211 789.5t547 392.5v-1067h223l-16 -115h-207v-348h-125v348h-633zM236 463h497v907q-217 -106 -356 -373q-135 -253 -141 -534z" />
<glyph unicode="5" horiz-adv-x="1132" d="M76 90l53 98q43 -29 94 -53q86 -41 215 -41q170 0 300 109.5t130 306.5q0 170 -112 254q-94 76 -246 76q-131 0 -209 -103l-65 -8l47 760h667l-22 -119h-527l-28 -442q82 31 176 30q180 0 309 -112q139 -125 139 -332q0 -242 -163.5 -390.5t-419.5 -148.5 q-217 0 -338 115z" />
<glyph unicode="6" horiz-adv-x="1132" d="M119 524q0 358 222 642t568 352l9 -93q-209 -59 -381 -221q-195 -182 -267 -434q12 47 90 100q100 63 232 64q184 0 301 -141.5t117 -337.5q0 -205 -115 -342.5t-311 -137.5q-223 0 -353 168q-112 152 -112 381zM244 455q0 -154 94 -263.5t229 -109.5q150 0 233 109.5 t83 263.5q0 156 -84 265t-232 109q-135 0 -229 -109t-94 -265z" />
<glyph unicode="7" horiz-adv-x="1132" d="M102 1370l48 119h880l-24 -125q-209 -276 -336 -598t-127 -766h-133q0 473 188 905q45 100 151.5 280.5t108.5 184.5h-756z" />
<glyph unicode="8" horiz-adv-x="1132" d="M102 401q0 154 90.5 264.5t227.5 139.5q-117 35 -193.5 124t-76.5 193q0 166 116.5 272.5t300.5 106.5q182 0 298 -106.5t116 -272.5q0 -104 -77 -193t-193 -124q139 -29 228 -139.5t89 -264.5q0 -201 -126 -313.5t-339 -112.5q-209 0 -335 112.5t-126 313.5zM229 391 q0 -141 95.5 -224t242.5 -83q143 0 239.5 83t96.5 224q0 123 -85 234.5t-255 119.5q-166 -8 -250 -119.5t-84 -234.5zM276 1130q0 -195 287 -266q293 72 293 266q0 111 -79 182.5t-210 71.5q-135 0 -213 -71.5t-78 -182.5z" />
<glyph unicode="9" horiz-adv-x="1132" d="M119 1024q0 205 114.5 342t311.5 137q223 0 352 -168q113 -152 113 -379q0 -360 -223.5 -643.5t-567.5 -349.5l-8 90q209 59 381 223q195 180 266 433q-12 -47 -90 -101q-100 -63 -231 -63q-186 0 -302 141t-116 338zM244 1024q0 -156 85 -265.5t232 -109.5 q135 0 228.5 109.5t93.5 265.5q0 154 -93.5 263.5t-228.5 109.5q-152 0 -234.5 -109.5t-82.5 -263.5z" />
<glyph unicode=":" horiz-adv-x="505" d="M143 88q0 43 32 76t75 33q45 0 77.5 -33t32.5 -76q0 -45 -32.5 -75.5t-77.5 -30.5q-43 0 -75 30.5t-32 75.5zM143 887q0 43 32 76.5t75 33.5q45 0 77.5 -33.5t32.5 -76.5t-32.5 -75t-77.5 -32q-43 0 -75 32t-32 75z" />
<glyph unicode=";" horiz-adv-x="505" d="M94 -295q162 111 182 272q-51 0 -86.5 35t-35.5 82t34.5 83t81.5 36q49 0 82 -38t33 -91q-6 -168 -102 -297q-66 -90 -146 -129zM143 887q0 43 32 76.5t75 33.5q45 0 77.5 -33.5t32.5 -76.5t-32.5 -75t-77.5 -32q-43 0 -75 32t-32 75z" />
<glyph unicode="&#x3c;" horiz-adv-x="1286" d="M137 545v86l1010 551v-117l-883 -479l883 -473v-119z" />
<glyph unicode="=" horiz-adv-x="1286" d="M172 319v105h944v-105h-944zM172 727v102h944v-102h-944z" />
<glyph unicode="&#x3e;" horiz-adv-x="1286" d="M137 -6v119l885 477l-885 475v117l1010 -551v-86z" />
<glyph unicode="?" horiz-adv-x="884" d="M96 1417q152 96 320 96q180 0 274 -104q84 -90 84 -225q0 -166 -196 -375q-154 -164 -154 -324q0 -55 8 -100h-106q-16 47 -17 111q0 166 171 356t171 326q0 225 -256 225q-147 0 -252 -80zM266 88q0 43 32 76t75 33t76.5 -33t33.5 -76q0 -45 -33.5 -75.5t-76.5 -30.5 t-75 30.5t-32 75.5z" />
<glyph unicode="@" horiz-adv-x="1679" d="M72 408q0 342 219 575q233 252 612 252q313 0 503.5 -194.5t190.5 -489.5q0 -213 -131 -363.5t-284 -158.5l-99 -6l-30 141q-125 -160 -332 -160q-37 0 -59 2q-100 16 -171 88t-71 166q0 350 627 350v17q0 266 -254 266q-137 0 -236 -76l-33 80q121 90 275 90 q358 0 358 -397v-336q0 -70 12 -129q121 6 221.5 129t100.5 289q0 260 -163 430t-441 170q-295 0 -490 -193q-207 -207 -207 -534q0 -268 173.5 -445.5t427.5 -177.5q215 0 366 94l43 -90q-188 -100 -420 -100q-295 0 -501.5 200t-206.5 511zM537 279q0 -188 190 -189 q225 0 313 199q6 12 7 41v190q-510 -5 -510 -241z" />
<glyph unicode="A" horiz-adv-x="1253" d="M0 0l563 1513h127l563 -1513h-135l-172 479h-643l-168 -479h-135zM342 584h567l-282 794z" />
<glyph unicode="B" horiz-adv-x="1183" d="M170 12v1458q156 39 313 39q541 0 541 -374q0 -113 -66.5 -205t-181.5 -133q115 -29 211 -128.5t96 -252.5q0 -434 -628 -434h-9q-134 0 -276 30zM291 100q86 -18 188 -18q201 0 330 72q156 88 156 260q0 166 -130 245.5t-327 79.5h-217v-639zM291 840h254q166 0 266 88 q92 82 92 202q0 276 -420 277q-98 0 -192 -23v-544z" />
<glyph unicode="C" horiz-adv-x="1271" d="M72 750q0 334 202.5 548.5t505.5 214.5q242 0 408 -77l-37 -101q-170 72 -365 72q-242 0 -409 -178q-180 -188 -180 -484q0 -295 180 -481q168 -180 409 -180q195 0 365 72l37 -99q-166 -80 -408 -80q-303 0 -505.5 218.5t-202.5 554.5z" />
<glyph unicode="D" horiz-adv-x="1349" d="M170 16v1454q287 37 444 37q285 0 463 -190q182 -201 183 -541q0 -788 -709 -788h-6q-98 0 -375 28zM291 113q158 -18 299 -19q254 0 400.5 180.5t146.5 501.5q0 299 -156 467q-143 158 -377 158q-96 0 -313 -25v-1263z" />
<glyph unicode="E" horiz-adv-x="1099" d="M170 0v1491h811v-102h-690v-549h614v-103h-614v-635h690v-102h-811z" />
<glyph unicode="F" horiz-adv-x="1099" d="M170 0v1491h842v-102h-721v-568h674v-104h-674v-717h-121z" />
<glyph unicode="G" horiz-adv-x="1331" d="M72 750q0 332 178 538q186 219 506 219q227 0 401 -75l-39 -101q-188 72 -368 72q-236 0 -394.5 -184.5t-158.5 -473.5q0 -307 137 -484t387 -177q197 0 360 80v481h-379v100h498v-714q-25 18 -65 18l-186 -33q-180 -32 -243 -32h-4q-287 0 -458.5 209t-171.5 557z" />
<glyph unicode="H" horiz-adv-x="1380" d="M170 0v1491h121v-645h799v645h122v-1491h-122v743h-799v-743h-121z" />
<glyph unicode="I" horiz-adv-x="458" d="M170 0v1491h121v-1491h-121z" />
<glyph unicode="J" horiz-adv-x="825" d="M-4 18l33 99q72 -39 190 -39q164 0 241 96t77 346v971h120v-1002q0 -518 -438 -518q-123 0 -223 47z" />
<glyph unicode="K" horiz-adv-x="1177" d="M170 0v1491h121v-717l743 735l123 -32l-620 -621l686 -827l-111 -45l-661 792l-160 -160v-616h-121z" />
<glyph unicode="L" horiz-adv-x="1105" d="M170 0v1491h121v-1389h733v-102h-854z" />
<glyph unicode="M" horiz-adv-x="1716" d="M125 0l104 1491h144l485 -1337l485 1337h146l102 -1491h-114l-95 1317l-483 -1317h-82l-481 1317l-94 -1317h-117z" />
<glyph unicode="N" horiz-adv-x="1380" d="M170 0v1491h139l785 -1301v1301h118v-1491h-129l-788 1319v-1319h-125z" />
<glyph unicode="O" horiz-adv-x="1521" d="M70 743q0 334 192.5 554.5t499.5 220.5t499.5 -220.5t192.5 -554.5q0 -336 -192.5 -555t-499.5 -219t-499.5 219t-192.5 555zM190 743q0 -276 160 -471.5t412 -195.5q250 0 409.5 195.5t159.5 471.5q0 274 -159.5 470t-409.5 196q-252 0 -412 -196t-160 -470z" />
<glyph unicode="P" horiz-adv-x="1183" d="M170 0v1477q180 30 349 30h11q225 0 379 -104q172 -119 172 -326q0 -233 -188 -362q-158 -107 -390 -107h-18q-100 0 -194 19v-627h-121zM291 733q82 -22 208 -22h11q455 27 455 358q0 332 -439 332q-156 0 -235 -17v-651z" />
<glyph unicode="Q" horiz-adv-x="1525" d="M70 743q0 334 192.5 554.5t499.5 220.5t499.5 -220.5t192.5 -554.5q0 -270 -131 -473q-139 -213 -377 -274q184 -78 426 -90l-43 -117q-311 74 -567 180q-307 0 -499.5 219t-192.5 555zM190 743q0 -276 160 -471.5t412 -195.5q250 0 409.5 195.5t159.5 471.5 q0 274 -159.5 470t-409.5 196q-252 0 -412 -196t-160 -470z" />
<glyph unicode="R" horiz-adv-x="1185" d="M170 0v1473q169 34 356 34h11q240 -4 381 -94q164 -106 163 -307q0 -279 -288 -385q166 -90 249 -338q41 -129 80 -383h-118q-86 680 -424 680h-289v-680h-121zM291 776h278q186 0 291 84t105 230q0 311 -428 311q-174 0 -246 -23v-602z" />
<glyph unicode="S" horiz-adv-x="1101" d="M84 84l51 106q153 -114 369 -114h4q176 0 275.5 83t99.5 220q0 125 -77 201.5t-255 134.5q-416 135 -416 420q0 166 128 275.5t335 109.5q211 0 342 -78q-29 -53 -53 -99q-135 74 -291 74q-176 0 -270 -92q-76 -76 -76 -174q0 -207 334 -322q215 -74 309 -161 q111 -104 111 -279q0 -170 -123 -283q-137 -135 -385 -135q-246 0 -412 113z" />
<glyph unicode="T" horiz-adv-x="1185" d="M-16 1389v102h1220v-102h-549v-1389h-118v1389h-553z" />
<glyph unicode="U" horiz-adv-x="1458" d="M170 631v860h121v-858q0 -295 120.5 -426t317.5 -131q201 0 321 131q119 129 119 416v10v858h121v-860q0 -659 -561 -660q-559 1 -559 660z" />
<glyph unicode="V" horiz-adv-x="1220" d="M0 1491h137l473 -1350l473 1350h140l-547 -1491h-131z" />
<glyph unicode="W" horiz-adv-x="1841" d="M0 1491h137l379 -1350l336 1350h137l336 -1350l379 1350h139l-452 -1491h-131l-338 1354l-338 -1354h-133z" />
<glyph unicode="X" horiz-adv-x="1308" d="M53 0l531 764l-508 727h147l432 -651l432 651h148l-508 -727l530 -764h-145l-457 674l-458 -674h-144z" />
<glyph unicode="Y" horiz-adv-x="1144" d="M0 1491h141l432 -729l433 729h141l-514 -834v-657h-119v655z" />
<glyph unicode="Z" horiz-adv-x="1327" d="M70 0v82l1011 1307h-950l19 102h1087v-84l-1008 -1305h1049l-25 -102h-1183z" />
<glyph unicode="[" horiz-adv-x="612" d="M164 -244v1829h416v-94h-308v-1641h308v-94h-416z" />
<glyph unicode="\" horiz-adv-x="819" d="M-29 1513h123l780 -1601h-124z" />
<glyph unicode="]" horiz-adv-x="612" d="M35 -150h307v1641h-307v94h420v-1829h-420v94z" />
<glyph unicode="^" horiz-adv-x="1290" d="M135 498l451 1005h112l453 -1005h-117l-391 886l-393 -886h-115z" />
<glyph unicode="_" horiz-adv-x="1101" d="M0 -477h1104v-96h-1104v96z" />
<glyph unicode="`" horiz-adv-x="638" d="M184 1477l123 30l156 -284h-96z" />
<glyph unicode="a" horiz-adv-x="1077" d="M82 266q0 397 692 398h19v20q0 102 -48 180q-72 125 -243 125q-111 0 -338 -71l-17 112q176 57 363 57q406 0 405 -444v-383q0 -131 37 -260l-108 -23l-45 173q-143 -178 -379 -179q-137 0 -237.5 79t-100.5 216zM211 289q0 -104 62.5 -158.5t156.5 -54.5q246 0 346 209 q16 35 17 59v213q-582 0 -582 -268z" />
<glyph unicode="b" horiz-adv-x="1255" d="M154 0q10 82 10 260v1323h121v-721q139 225 405 225q221 0 350 -153.5t129 -388.5q0 -256 -135 -415t-364 -159q-250 0 -398 217q0 -106 -6 -188h-112zM285 426q0 -150 106.5 -250t263.5 -100q395 0 396 467q0 197 -100.5 321.5t-282.5 124.5q-152 0 -260 -102 q-123 -111 -123 -283v-178z" />
<glyph unicode="c" horiz-adv-x="1036" d="M84 530q0 252 150.5 404.5t414.5 152.5q195 0 328 -75l-43 -101q-117 76 -291 76q-193 0 -316.5 -122t-123.5 -335t124 -335.5t316 -122.5q174 0 291 75l43 -100q-133 -76 -328 -76q-264 0 -414.5 152.5t-150.5 406.5z" />
<glyph unicode="d" horiz-adv-x="1255" d="M88 545q0 236 128 389t351 153q266 0 404 -225v721h123v-1323q0 -178 10 -260h-115q-6 82 -6 188q-145 -217 -397 -217q-229 0 -363.5 159t-134.5 415zM207 543q0 -467 395 -467q156 0 262.5 100t106.5 250v178q0 172 -121 283q-111 102 -260 102q-182 0 -282.5 -124.5 t-100.5 -321.5z" />
<glyph unicode="e" horiz-adv-x="1171" d="M84 504q0 264 150.5 423.5t381.5 159.5q449 0 459 -561h-872q8 -213 128 -330.5t312 -117.5q186 0 373 72l8 -103q-180 -76 -393 -76q-246 0 -396.5 151t-150.5 382zM211 623h747q-2 129 -71 229q-94 137 -285 137q-172 0 -283 -125q-88 -100 -108 -241z" />
<glyph unicode="f" horiz-adv-x="645" d="M16 969v96h181v41q0 502 381 502q119 0 178 -52l-35 -86q-70 33 -154 33q-250 0 -250 -397v-41h306v-96h-306v-969h-122v969h-179z" />
<glyph unicode="g" horiz-adv-x="972" d="M113 692q0 170 106.5 273.5t251.5 103.5h416v-100l-154 14q129 -125 129 -268q0 -176 -108.5 -279.5t-268.5 -103.5q-96 0 -166 35q-18 -47 -18 -91q0 -82 254 -153q301 -86 301 -307q0 -135 -97 -221.5t-286 -86.5q-166 0 -303 84l43 101q135 -78 270 -78q115 0 191 53 t76 137q0 152 -248 232q-152 47 -207 86q-98 59 -98 153q0 55 32 150q-116 125 -116 266zM223 696q0 -127 84 -200q78 -70 178 -70q113 0 192 71.5t79 200.5q0 104 -66 183q-76 94 -205 94q-125 0 -193.5 -83t-68.5 -196z" />
<glyph unicode="h" horiz-adv-x="1220" d="M164 0v1583h121v-709q129 213 358 213q416 0 416 -483v-604h-123v604q0 383 -320 383q-127 0 -229 -108.5t-102 -233.5v-645h-121z" />
<glyph unicode="i" horiz-adv-x="446" d="M123 1389q0 43 26.5 71.5t69.5 28.5q45 0 72.5 -28.5t27.5 -71.5q0 -45 -27.5 -72t-72.5 -27q-43 0 -69.5 27t-26.5 72zM164 0v1065h121v-1065h-121z" />
<glyph unicode="j" horiz-adv-x="485" d="M-131 -367q215 18 285 150q47 92 47 274v1008h123v-1042q-6 -477 -443 -486zM160 1389q0 43 26.5 71.5t69.5 28.5q45 0 72.5 -28.5t27.5 -71.5q0 -45 -27.5 -72t-72.5 -27q-43 0 -69.5 27t-26.5 72z" />
<glyph unicode="k" horiz-adv-x="989" d="M164 0v1583h121v-997l530 495l125 -24l-457 -434l541 -619l-121 -35l-508 586l-110 -106v-449h-121z" />
<glyph unicode="l" horiz-adv-x="626" d="M164 537v1046h121v-999q0 -229 41 -334q63 -162 243 -166l-12 -107q-393 19 -393 560z" />
<glyph unicode="m" horiz-adv-x="1882" d="M141 1065h115q23 -66 27 -191q121 213 356 213q217 0 324 -237q124 237 378 237h2q176 0 276.5 -133t100.5 -362v-592h-123v590q0 180 -73.5 288.5t-212.5 108.5q-123 0 -215 -95t-92 -216v-676h-123v645q0 342 -271 342q-125 0 -225 -108.5t-100 -233.5v-645h-121v803 q0 84 -23 262z" />
<glyph unicode="n" horiz-adv-x="1220" d="M141 1065h115q23 -66 27 -191q121 213 360 213q416 0 416 -483v-604h-123v604q0 383 -320 383q-127 0 -229 -108.5t-102 -233.5v-645h-121v803q0 84 -23 262z" />
<glyph unicode="o" horiz-adv-x="1245" d="M88 530q0 233 147.5 395t387.5 162q242 0 389 -161.5t147 -395.5q0 -236 -147.5 -398.5t-388.5 -162.5q-240 0 -387.5 162.5t-147.5 398.5zM207 530q0 -195 117.5 -326.5t298.5 -131.5q182 0 299.5 132t117.5 326q0 193 -117.5 323t-299.5 130q-180 0 -298 -130 t-118 -323z" />
<glyph unicode="p" horiz-adv-x="1255" d="M154 1059h112q6 -82 6 -189q147 217 398 217q229 0 364 -158.5t135 -414.5q0 -236 -127 -383q-131 -160 -352 -160q-266 0 -405 226v-721h-121v1323q0 182 -10 260zM285 455q0 -172 123 -283q109 -102 260 -102q182 0 288 127q96 123 97 319q0 221 -101.5 344t-296.5 123 q-158 0 -264 -100.5t-106 -249.5v-178z" />
<glyph unicode="q" horiz-adv-x="1255" d="M154 514q0 256 135 414.5t362 158.5q252 0 400 -217q0 106 6 189h112q-10 -78 -10 -260v-1323h-123v721q-137 -225 -403 -226q-223 0 -354 160q-125 147 -125 383zM270 516q0 -197 97 -319q106 -127 288 -127q150 0 260 102q121 111 121 283v178q0 150 -106.5 250 t-261.5 100q-195 0 -296.5 -123t-101.5 -344z" />
<glyph unicode="r" horiz-adv-x="679" d="M131 1065h105q34 -66 34 -205v-8q100 235 320 235h2q29 0 59 -6v-104q-8 4 -37 4q-242 0 -319 -301q-10 -35 -10 -107v-573h-121v717q0 235 -33 348z" />
<glyph unicode="s" horiz-adv-x="882" d="M90 57l47 99q152 -80 264 -80q262 0 263 196q0 154 -248 230q-285 88 -285 289q0 121 93 208.5t259 87.5t262 -71l-49 -101q-94 74 -235 74q-100 0 -156.5 -53t-56.5 -131q0 -125 244 -209q284 -98 284 -311q0 -136 -101.5 -225t-283.5 -89q-156 0 -301 86z" />
<glyph unicode="t" horiz-adv-x="745" d="M18 969v96h213v317l123 56v-373h342v-96h-342v-652q0 -239 159 -239h1q96 0 143 18l13 -96q-61 -29 -166 -29q-137 0 -209 107q-63 94 -64 235v656h-213z" />
<glyph unicode="u" horiz-adv-x="1220" d="M164 467v598h121v-576q0 -411 287 -411h1q135 0 244 88q119 100 119 254v645h123v-805q0 -117 53 -256l-115 -27q-39 106 -51 207q-137 -213 -401 -213q-381 0 -381 496z" />
<glyph unicode="v" horiz-adv-x="1067" d="M10 1065h125l395 -934l404 934h125l-479 -1065h-109z" />
<glyph unicode="w" horiz-adv-x="1587" d="M10 1065h127l283 -922l319 922h117l301 -922l309 922h123l-383 -1065h-106l-307 940l-322 -940h-115z" />
<glyph unicode="x" horiz-adv-x="995" d="M0 0l432 543l-403 522h137l338 -432l336 432h135l-408 -520l430 -545h-145l-356 461l-355 -461h-141z" />
<glyph unicode="y" horiz-adv-x="1054" d="M10 1065h131l398 -901l372 901h136l-469 -1065q-186 -416 -494 -489l-27 98q266 59 404 426q0 8 -10 37z" />
<glyph unicode="z" horiz-adv-x="1005" d="M47 0v76l752 889h-715l18 100h850l-2 -84l-749 -881h768l-25 -100h-897z" />
<glyph unicode="{" horiz-adv-x="651" d="M41 590v94q195 6 195 162q0 63 -23 187t-23 184q0 297 340 296h33v-94h-47q-215 0 -215 -215q43 -317 43 -348q0 -160 -125 -219q125 -59 125 -221q0 -31 -43 -346q0 -217 215 -217h47v-95h-33q-340 0 -340 299q0 59 23 182t23 187q0 158 -195 164z" />
<glyph unicode="|" horiz-adv-x="479" d="M188 -545v2200h103v-2200h-103z" />
<glyph unicode="}" horiz-adv-x="651" d="M88 -147h47q215 0 215 217q-43 315 -43 346q0 162 125 221q-125 59 -125 219q0 31 43 348q0 215 -215 215h-47v94h35q338 0 338 -296q0 -59 -22.5 -183.5t-22.5 -187.5q0 -156 194 -162v-94q-195 -6 -194 -164q0 -63 22.5 -186t22.5 -183q0 -299 -338 -299h-35v95z" />
<glyph unicode="~" horiz-adv-x="1302" d="M82 473v25q0 133 73.5 207.5t176.5 74.5q119 0 327.5 -98t321.5 -98q135 0 141 196h97v-18q0 -145 -78 -223q-66 -66 -166 -66q-123 0 -328 101.5t-315 101.5q-147 0 -154 -203h-96z" />
<glyph unicode="&#xa1;" horiz-adv-x="473" d="M119 952q0 47 34.5 82t82.5 35q47 0 80.5 -35t33.5 -82t-33.5 -80.5t-80.5 -33.5t-82 33.5t-35 80.5zM147 -438l31 1089h111l30 -1089h-172z" />
<glyph unicode="&#xa2;" horiz-adv-x="1286" d="M100 745q0 260 138 433q152 188 417 235v285h103v-273q23 4 65 5q188 0 353 -60l-25 -113q-141 72 -322 72q-287 0 -446.5 -152.5t-159.5 -437.5q0 -268 148 -409q156 -152 440 -152q199 0 336 64l37 -92q-150 -80 -410 -80h-16v-254h-103v260q-240 35 -389 190 q-166 172 -166 479z" />
<glyph unicode="&#xa3;" horiz-adv-x="1286" d="M178 0v78q266 164 266 418q0 72 -14 180h-248v98h238q-25 150 -25 254q0 416 402 416q127 0 260 -62l-39 -92q-125 51 -227 51q-287 0 -287 -317q0 -115 28 -250h355v-98h-342q12 -72 12 -160q0 -262 -168 -414h717v-102h-928z" />
<glyph unicode="&#xa4;" horiz-adv-x="1286" d="M70 229l120 127q-121 152 -120 349q0 201 120 358l-120 125l90 96l125 -131q164 129 354 129q201 0 358 -129l133 131l89 -96l-125 -125q119 -139 118 -358q0 -207 -118 -349l125 -127l-91 -94l-131 131q-145 -131 -358 -131q-203 0 -354 131l-125 -131zM190 705 q0 -190 133.5 -323.5t315.5 -133.5q188 0 318 136t130 321q0 188 -130 327t-318 139q-182 0 -315.5 -136.5t-133.5 -329.5z" />
<glyph unicode="&#xa5;" horiz-adv-x="1286" d="M106 1438h144l393 -662l391 662h148l-480 -776h379v-95h-379v-178h379v-92h-379v-238h-116v238h-375v92h375v178h-375v90h375z" />
<glyph unicode="&#xa6;" horiz-adv-x="479" d="M188 -385v780h103v-780h-103zM188 711v778h103v-778h-103z" />
<glyph unicode="&#xa7;" horiz-adv-x="1171" d="M172 780q0 137 141 250q-72 74 -71 170q0 135 104.5 218t269.5 83q166 0 306 -82l-54 -90q-111 80 -266 80q-106 0 -177 -54.5t-71 -135.5q0 -84 90 -142q59 -37 224 -94q332 -113 331 -321q0 -145 -131 -271q76 -74 76 -188q0 -150 -113.5 -238t-281.5 -88 q-199 0 -324 105l51 88q102 -98 279 -99q129 0 206 59.5t77 157.5q0 135 -174 213q-160 61 -320 129q-172 86 -172 250zM279 786q0 -88 110 -153q66 -41 225 -96q147 -53 189 -86q80 98 80 194q0 63 -65.5 128t-172.5 101q-188 61 -260 107q-106 -91 -106 -195z" />
<glyph unicode="&#xa8;" horiz-adv-x="663" d="M43 1323q0 41 26.5 68.5t67.5 27.5t70 -27.5t29 -68.5t-29 -67.5t-70 -26.5t-67.5 26.5t-26.5 67.5zM432 1323q0 41 26.5 68.5t67.5 27.5t69 -27.5t28 -68.5t-28 -67.5t-69 -26.5t-67.5 26.5t-26.5 67.5z" />
<glyph unicode="&#xa9;" horiz-adv-x="1679" d="M78 752q0 313 224 537t538 224q313 0 537.5 -224t224.5 -537t-224.5 -537.5t-537.5 -224.5t-537.5 224.5t-224.5 537.5zM190 752q0 -268 189.5 -459t460.5 -191q270 0 459.5 190.5t189.5 459.5q0 270 -189.5 459.5t-459.5 189.5t-460 -189.5t-190 -459.5zM383 729 q0 221 128 348t335 127q197 0 297 -76l-37 -94q-119 70 -260 70q-338 -20 -338 -359q0 -342 342 -360q160 0 268 78l41 -96q-119 -90 -330 -91q-203 0 -324.5 131.5t-121.5 321.5z" />
<glyph unicode="&#xaa;" horiz-adv-x="770" d="M76 977q0 246 469 252v20q0 45 -25 86q-49 72 -160 72q-106 0 -194 -66l-35 78q117 82 252 82q272 0 272 -336v-209q0 -92 9 -182h-97l-16 103q-88 -113 -234 -113q-241 0 -241 213zM184 977q0 -119 152 -119q59 0 134 46t75 106v131q-361 0 -361 -164z" />
<glyph unicode="&#xab;" horiz-adv-x="931" d="M35 555l344 414h131l-344 -414l348 -405h-131zM383 555l344 414h131l-344 -414l348 -405h-133z" />
<glyph unicode="&#xac;" horiz-adv-x="1314" d="M72 750v102h1140v-567h-122v465h-1018z" />
<glyph unicode="&#xad;" horiz-adv-x="675" d="M63 516v105h547v-105h-547z" />
<glyph unicode="&#xae;" horiz-adv-x="1679" d="M78 752q0 313 224 537t538 224q313 0 537.5 -224t224.5 -537t-224.5 -537.5t-537.5 -224.5t-537.5 224.5t-224.5 537.5zM190 752q0 -268 189.5 -459t460.5 -191q270 0 459.5 190.5t189.5 459.5q0 270 -189.5 459.5t-459.5 189.5t-460 -189.5t-190 -459.5zM549 291v913 q113 20 260 25q166 0 258 -71t92 -193q0 -162 -129 -232q123 -111 160 -442h-121q-57 399 -205 399h-190v-399h-125zM674 805h170q86 0 139 38t53 107q0 168 -215 168q-84 0 -147 -8v-305z" />
<glyph unicode="&#xaf;" horiz-adv-x="1101" d="M0 1655v96h1104v-96h-1104z" />
<glyph unicode="&#xb0;" horiz-adv-x="663" d="M63 1243q0 111 78 190.5t189 79.5q109 0 188.5 -79.5t79.5 -190.5q0 -109 -80 -187.5t-188 -78.5q-111 0 -189 78.5t-78 187.5zM156 1243q0 -72 50 -123t124 -51q72 0 123 51t51 123q0 74 -51.5 127t-122.5 53q-74 0 -124 -53t-50 -127z" />
<glyph unicode="&#xb1;" horiz-adv-x="1286" d="M119 0v100h1050v-100h-1050zM119 631v98h471v389h108v-389h471v-98h-471v-418h-108v418h-471z" />
<glyph unicode="&#xb2;" horiz-adv-x="794" d="M78 614q6 129 217 330q84 78 164 162t80 170q0 133 -136 133q-150 0 -165 -172l-107 20q12 119 85 184.5t179 65.5q109 0 179.5 -62.5t70.5 -168.5q0 -129 -168 -305q-127 -131 -254 -260h434l-12 -97h-567z" />
<glyph unicode="&#xb3;" horiz-adv-x="794" d="M111 676l45 100q74 -59 168 -59q115 0 180 60.5t65 152.5q0 139 -131 139q-88 0 -137 -45l-45 80q158 109 176 125q72 59 72 114q0 63 -103 64q-129 0 -182 -137l-90 47q84 193 281 192q199 0 198 -161q0 -57 -44 -117t-97 -80q207 -14 207 -217q0 -143 -94.5 -230.5 t-247.5 -89.5q-137 -4 -221 62z" />
<glyph unicode="&#xb4;" horiz-adv-x="663" d="M170 1655l156 284h157l-217 -284h-96z" />
<glyph unicode="&#xb5;" horiz-adv-x="1271" d="M178 -438v1503h119v-608q0 -379 319 -379q139 0 252 105.5t113 232.5v649h119v-805q0 -195 22 -260h-116q-16 88 -17 164v33q-178 -225 -399 -226q-182 0 -293 160v-569h-119z" />
<glyph unicode="&#xb6;" horiz-adv-x="1171" d="M141 1006q0 483 621 483q166 0 244 -16v-1670h-107v1586h-149v-1586h-111v760h-12q-188 0 -326 111q-160 125 -160 332z" />
<glyph unicode="&#xb7;" horiz-adv-x="505" d="M143 567q0 43 32 76t75 33q45 0 77.5 -33t32.5 -76t-32.5 -74.5t-77.5 -31.5q-43 0 -75 31.5t-32 74.5z" />
<glyph unicode="&#xb8;" horiz-adv-x="663" d="M111 -395l30 69q66 -31 123 -30q119 0 119 86q0 80 -199 94l123 188h101l-84 -118q156 -37 155 -148q0 -182 -219 -182q-75 0 -149 41z" />
<glyph unicode="&#xb9;" horiz-adv-x="794" d="M184 1319l224 199q66 -8 65 -88v-725h135v-74h-383v74h137v643l-118 -105z" />
<glyph unicode="&#xba;" horiz-adv-x="892" d="M63 1128q0 154 113 269.5t268 115.5q154 0 269.5 -115.5t115.5 -269.5q0 -158 -115.5 -270.5t-269.5 -112.5q-156 0 -268.5 112.5t-112.5 270.5zM172 1128q0 -113 80 -192.5t192 -79.5q113 0 195 80t82 192q0 113 -82 194t-195 81t-192.5 -81t-79.5 -194z" />
<glyph unicode="&#xbb;" horiz-adv-x="919" d="M59 150l349 405l-345 414h132l344 -414l-349 -405h-131zM408 150l348 405l-346 414h133l344 -414l-348 -405h-131z" />
<glyph unicode="&#xbc;" horiz-adv-x="1679" d="M94 1260l223 196q66 -6 66 -86v-713h133v-73h-381v73h137v631l-118 -104zM354 -29l889 1493h105l-891 -1493h-103zM975 195q2 209 119 428q137 268 342 274v-600h137l-6 -102h-131v-195h-111v195h-350zM1090 297h235v465q-88 -76 -160 -225q-67 -140 -75 -240z" />
<glyph unicode="&#xbd;" horiz-adv-x="1679" d="M94 1260l223 196q66 -6 66 -86v-713h133v-73h-381v73h137v631l-118 -104zM354 -29l889 1493h105l-891 -1493h-103zM1018 0q6 129 217 330q84 78 164 163t80 169q0 135 -136 135q-150 0 -165 -174l-107 20q12 119 85 184.5t179 65.5q113 0 183.5 -61.5t70.5 -169.5 q0 -129 -170 -306q-129 -131 -243 -260h421l-12 -96h-567z" />
<glyph unicode="&#xbe;" horiz-adv-x="1679" d="M111 639l45 100q74 -59 168 -59q115 0 180 59.5t65 153.5q0 137 -131 137q-88 0 -137 -43l-45 78q158 111 176 125q72 59 72 117q0 63 -103 63q-141 0 -182 -139l-90 47q84 195 281 195q199 0 198 -162q0 -57 -44 -116.5t-97 -82.5q207 -31 207 -215q0 -145 -94.5 -231 t-247.5 -88q-137 -5 -221 61zM354 -29l889 1493h105l-891 -1493h-103zM975 195q2 209 119 428q137 268 342 274v-600h137l-6 -102h-131v-195h-111v195h-350zM1090 297h235v465q-88 -76 -160 -225q-67 -140 -75 -240z" />
<glyph unicode="&#xbf;" horiz-adv-x="905" d="M106 -150q0 166 197 375q154 164 154 324q0 55 -8 100h106q14 -47 14 -110q0 -166 -170 -357.5t-170 -324.5q0 -227 256 -228q147 0 252 82l45 -94q-150 -96 -319 -96q-178 0 -273 102q-84 92 -84 227zM389 952q0 47 34 82t81 35t82 -35t35 -82t-35 -80.5t-82 -33.5 t-81 33.5t-34 80.5z" />
<glyph unicode="&#xc2;" horiz-adv-x="1253" d="M0 0l563 1513h127l563 -1513h-135l-172 479h-643l-168 -479h-135zM342 584h567l-282 794zM367 1655l217 244h88l215 -244h-115l-145 162l-144 -162h-116z" />
<glyph unicode="&#xc4;" horiz-adv-x="1253" d="M0 0l563 1513h127l563 -1513h-135l-172 479h-643l-168 -479h-135zM334 1749q0 41 26.5 68.5t67.5 27.5t70 -27.5t29 -68.5t-29 -67.5t-70 -26.5t-67.5 26.5t-26.5 67.5zM342 584h567l-282 794zM723 1749q0 41 26.5 68.5t67.5 27.5t69 -27.5t28 -68.5t-28 -67.5t-69 -26.5 t-67.5 26.5t-26.5 67.5z" />
<glyph unicode="&#xc5;" horiz-adv-x="1253" d="M0 0l563 1513h127l563 -1513h-135l-172 479h-643l-168 -479h-135zM342 584h567l-282 794zM398 1804q0 98 67.5 167t157.5 69q96 0 163.5 -68.5t67.5 -167.5q0 -90 -67.5 -157.5t-163.5 -67.5q-90 0 -157.5 67.5t-67.5 157.5zM494 1802q0 -53 38 -91t95 -38q59 0 98 38 t39 91q0 59 -39 98t-98 39q-57 0 -95 -39t-38 -98z" />
<glyph unicode="&#xc6;" horiz-adv-x="1822" d="M-23 0l799 1491h891v-102h-715l76 -551h604v-105h-590l95 -631h567v-102h-670l-88 614h-514l-326 -614h-129zM483 715h447l-84 688z" />
<glyph unicode="&#xc7;" horiz-adv-x="1271" d="M72 750q0 334 202.5 548.5t505.5 214.5q242 0 408 -77l-37 -101q-170 72 -365 72q-242 0 -409 -178q-180 -188 -180 -484q0 -295 180 -481q168 -180 409 -180q195 0 365 72l37 -99q-166 -80 -408 -80q-303 0 -505.5 218.5t-202.5 554.5zM453 -395l30 69q66 -31 123 -30 q119 0 119 86q0 80 -199 94l123 188h101l-84 -118q156 -37 155 -148q0 -182 -219 -182q-75 0 -149 41z" />
<glyph unicode="&#xca;" horiz-adv-x="1099" d="M170 0v1491h811v-102h-690v-549h614v-103h-614v-635h690v-102h-811zM289 1655l217 244h88l215 -244h-115l-145 162l-144 -162h-116z" />
<glyph unicode="&#xcb;" horiz-adv-x="1099" d="M170 0v1491h811v-102h-690v-549h614v-103h-614v-635h690v-102h-811zM260 1749q0 41 26.5 68.5t67.5 27.5t70 -27.5t29 -68.5t-29 -67.5t-70 -26.5t-67.5 26.5t-26.5 67.5zM649 1749q0 41 26.5 68.5t67.5 27.5t69 -27.5t28 -68.5t-28 -67.5t-69 -26.5t-67.5 26.5 t-26.5 67.5z" />
<glyph unicode="&#xce;" horiz-adv-x="458" d="M15 1655l217 244h88l215 -244h-115l-145 162l-144 -162h-116zM170 0v1491h121v-1491h-121z" />
<glyph unicode="&#xcf;" horiz-adv-x="458" d="M-16 1749q0 41 26.5 68.5t67.5 27.5t70 -27.5t29 -68.5t-29 -67.5t-70 -26.5t-67.5 26.5t-26.5 67.5zM170 0v1491h121v-1491h-121zM373 1749q0 41 26.5 68.5t67.5 27.5t69 -27.5t28 -68.5t-28 -67.5t-69 -26.5t-67.5 26.5t-26.5 67.5z" />
<glyph unicode="&#xd0;" horiz-adv-x="1349" d="M16 668v102h154v700q287 37 444 37q285 0 463 -190q182 -201 183 -541q0 -788 -709 -788q-94 0 -381 28v652h-154zM291 113q158 -18 299 -19q254 0 400.5 180.5t146.5 501.5q0 299 -156 467q-143 158 -377 158q-96 0 -313 -25v-606h526v-102h-526v-555z" />
<glyph unicode="&#xd1;" horiz-adv-x="1380" d="M170 0v1491h139l785 -1301v1301h118v-1491h-129l-788 1319v-1319h-125zM408 1649q2 94 44 140t109 46q33 0 67 -15.5t66.5 -36t63.5 -35.5t63 -15q53 0 62 110h78q-6 -188 -156 -188q-31 0 -65.5 15.5t-67.5 35.5t-62.5 35.5t-52.5 15.5q-25 0 -47 -27.5t-24 -80.5h-78z " />
<glyph unicode="&#xd4;" horiz-adv-x="1521" d="M70 743q0 334 192.5 554.5t499.5 220.5t499.5 -220.5t192.5 -554.5q0 -336 -192.5 -555t-499.5 -219t-499.5 219t-192.5 555zM190 743q0 -276 160 -471.5t412 -195.5q250 0 409.5 195.5t159.5 471.5q0 274 -159.5 470t-409.5 196q-252 0 -412 -196t-160 -470zM502 1655 l217 244h88l215 -244h-115l-145 162l-144 -162h-116z" />
<glyph unicode="&#xd6;" horiz-adv-x="1521" d="M70 743q0 334 192.5 554.5t499.5 220.5t499.5 -220.5t192.5 -554.5q0 -336 -192.5 -555t-499.5 -219t-499.5 219t-192.5 555zM190 743q0 -276 160 -471.5t412 -195.5q250 0 409.5 195.5t159.5 471.5q0 274 -159.5 470t-409.5 196q-252 0 -412 -196t-160 -470zM469 1749 q0 41 26.5 68.5t67.5 27.5t70 -27.5t29 -68.5t-29 -67.5t-70 -26.5t-67.5 26.5t-26.5 67.5zM858 1749q0 41 26.5 68.5t67.5 27.5t69 -27.5t28 -68.5t-28 -67.5t-69 -26.5t-67.5 26.5t-26.5 67.5z" />
<glyph unicode="&#xd7;" horiz-adv-x="1286" d="M147 111l414 434l-414 436l82 76l414 -434l414 434l80 -76l-414 -436l414 -434l-80 -76l-414 432l-414 -432z" />
<glyph unicode="&#xd8;" horiz-adv-x="1521" d="M70 743q0 334 192.5 554.5t499.5 220.5q160 0 291 -64l45 90h127l-74 -147q59 -43 109 -101q195 -219 194 -553q0 -336 -192.5 -555t-499.5 -219q-160 0 -289 56l-57 -115h-119l82 168q-61 47 -119 110q-190 219 -190 555zM190 743q0 -276 160 -473q39 -47 82 -82 l572 1166q-111 55 -242 55q-252 0 -412 -196t-160 -470zM524 129q106 -53 238 -53q250 0 409.5 195.5t159.5 471.5q0 274 -160 469q-35 45 -73 76z" />
<glyph unicode="&#xdb;" horiz-adv-x="1458" d="M170 631v860h121v-858q0 -295 120.5 -426t317.5 -131q201 0 321.5 131t118.5 426v858h121v-860q0 -659 -561 -660q-559 1 -559 660zM469 1655l217 244h88l215 -244h-115l-145 162l-144 -162h-116z" />
<glyph unicode="&#xdc;" horiz-adv-x="1458" d="M170 631v860h121v-858q0 -295 120.5 -426t317.5 -131q201 0 321.5 131t118.5 426v858h121v-860q0 -659 -561 -660q-559 1 -559 660zM438 1749q0 41 26.5 68.5t67.5 27.5t70 -27.5t29 -68.5t-29 -67.5t-70 -26.5t-67.5 26.5t-26.5 67.5zM827 1749q0 41 26.5 68.5 t67.5 27.5t69 -27.5t28 -68.5t-28 -67.5t-69 -26.5t-67.5 26.5t-26.5 67.5z" />
<glyph unicode="&#xde;" horiz-adv-x="1189" d="M188 0v1491h119v-295q131 35 256 35q211 0 365 -101q172 -115 172 -309q0 -236 -159 -356.5t-431 -120.5q-78 0 -203 27v-371h-119zM307 479q113 -35 209 -35q227 0 347 96.5t120 264.5q0 166 -127 254q-111 72 -293 71q-115 0 -256 -43v-608z" />
<glyph unicode="&#xdf;" horiz-adv-x="1226" d="M129 -432q59 123 59 262v1122q0 573 457 574q158 0 262.5 -98.5t104.5 -264.5q0 -127 -103.5 -211t-103.5 -155q0 -53 103.5 -144.5t125.5 -122.5q82 -111 82 -211q0 -154 -94 -247q-104 -100 -285 -101q-154 0 -266 64l37 102q119 -61 231 -61q125 0 195 63.5t70 161.5 q0 106 -160 245.5t-160 258.5q0 86 106.5 187.5t106.5 164.5q0 256 -274 256q-313 0 -314 -514v-1069q0 -168 -67 -293z" />
<glyph unicode="&#xe2;" horiz-adv-x="1077" d="M82 266q0 397 692 398h19v20q0 102 -48 180q-72 125 -243 125q-111 0 -338 -71l-17 112q176 57 363 57q406 0 405 -444v-383q0 -131 37 -260l-108 -23l-45 173q-143 -178 -379 -179q-137 0 -237.5 79t-100.5 216zM211 289q0 -104 62.5 -158.5t156.5 -54.5q246 0 346 209 q16 35 17 59v213q-582 0 -582 -268zM279 1229l217 244h88l215 -244h-115l-145 162l-144 -162h-116z" />
<glyph unicode="&#xe4;" horiz-adv-x="1077" d="M82 266q0 397 692 398h19v20q0 102 -48 180q-72 125 -243 125q-111 0 -338 -71l-17 112q176 57 363 57q406 0 405 -444v-383q0 -131 37 -260l-108 -23l-45 173q-143 -178 -379 -179q-137 0 -237.5 79t-100.5 216zM211 289q0 -104 62.5 -158.5t156.5 -54.5q246 0 346 209 q16 35 17 59v213q-582 0 -582 -268zM246 1323q0 41 26.5 68.5t67.5 27.5t70 -27.5t29 -68.5t-29 -67.5t-70 -26.5t-67.5 26.5t-26.5 67.5zM635 1323q0 41 26.5 68.5t67.5 27.5t69 -27.5t28 -68.5t-28 -67.5t-69 -26.5t-67.5 26.5t-26.5 67.5z" />
<glyph unicode="&#xe5;" horiz-adv-x="1077" d="M82 266q0 397 692 398h19v20q0 102 -48 180q-72 125 -243 125q-111 0 -338 -71l-17 112q176 57 363 57q406 0 405 -444v-383q0 -131 37 -260l-108 -23l-45 173q-143 -178 -379 -179q-137 0 -237.5 79t-100.5 216zM211 289q0 -104 62.5 -158.5t156.5 -54.5q246 0 346 209 q16 35 17 59v213q-582 0 -582 -268zM312 1378q0 98 67.5 167t157.5 69q96 0 163.5 -68.5t67.5 -167.5q0 -90 -67.5 -157.5t-163.5 -67.5q-90 0 -157.5 67.5t-67.5 157.5zM408 1376q0 -53 38 -91t95 -38q59 0 98 38t39 91q0 59 -39 98t-98 39q-57 0 -95 -39t-38 -98z" />
<glyph unicode="&#xe6;" horiz-adv-x="1904" d="M82 266q0 397 692 398h19v20q0 102 -48 180q-72 125 -243 125q-111 0 -338 -71l-17 112q176 57 363 57q289 0 373 -237q152 238 442 237q449 0 459 -561h-873q6 -213 127 -330.5t312 -117.5q188 0 374 72l9 -103q-182 -76 -396 -76q-322 0 -475 273q-88 -272 -442 -273 q-137 0 -237.5 79t-100.5 216zM211 289q0 -104 62.5 -158.5t156.5 -54.5q137 0 234 71q129 96 129 302v108q-582 0 -582 -268zM918 623h749q-4 129 -72 229q-94 137 -284 137q-174 0 -283 -125q-87 -100 -110 -241z" />
<glyph unicode="&#xe7;" horiz-adv-x="1036" d="M84 530q0 252 150.5 404.5t414.5 152.5q195 0 328 -75l-43 -101q-117 76 -291 76q-193 0 -316.5 -122t-123.5 -335t124 -335.5t316 -122.5q174 0 291 75l43 -100q-133 -76 -328 -76q-264 0 -414.5 152.5t-150.5 406.5zM354 -356l27 63q59 -28 111 -27q107 0 107 77 q0 72 -179 85l110 169h91l-75 -106q140 -34 139 -134q0 -163 -197 -163q-67 0 -134 36z" />
<glyph unicode="&#xea;" horiz-adv-x="1171" d="M84 504q0 264 150.5 423.5t381.5 159.5q449 0 459 -561h-872q8 -213 128 -330.5t312 -117.5q186 0 373 72l8 -103q-180 -76 -393 -76q-246 0 -396.5 151t-150.5 382zM211 623h747q-2 129 -71 229q-94 137 -285 137q-172 0 -283 -125q-88 -100 -108 -241zM326 1229 l217 244h88l215 -244h-115l-145 162l-144 -162h-116z" />
<glyph unicode="&#xeb;" horiz-adv-x="1171" d="M84 504q0 264 150.5 423.5t381.5 159.5q449 0 459 -561h-872q8 -213 128 -330.5t312 -117.5q186 0 373 72l8 -103q-180 -76 -393 -76q-246 0 -396.5 151t-150.5 382zM211 623h747q-2 129 -71 229q-94 137 -285 137q-172 0 -283 -125q-88 -100 -108 -241zM293 1323 q0 41 26.5 68.5t67.5 27.5t70 -27.5t29 -68.5t-29 -67.5t-70 -26.5t-67.5 26.5t-26.5 67.5zM682 1323q0 41 26.5 68.5t67.5 27.5t69 -27.5t28 -68.5t-28 -67.5t-69 -26.5t-67.5 26.5t-26.5 67.5z" />
<glyph unicode="&#xee;" horiz-adv-x="446" d="M9 1229l217 244h88l215 -244h-115l-145 162l-144 -162h-116zM164 0v1065h119v-1065h-119z" />
<glyph unicode="&#xef;" horiz-adv-x="446" d="M-23 1323q0 41 26.5 68.5t67.5 27.5t70 -27.5t29 -68.5t-29 -67.5t-70 -26.5t-67.5 26.5t-26.5 67.5zM164 0v1065h119v-1065h-119zM366 1323q0 41 26.5 68.5t67.5 27.5t69 -27.5t28 -68.5t-28 -67.5t-69 -26.5t-67.5 26.5t-26.5 67.5z" />
<glyph unicode="&#xf0;" horiz-adv-x="1132" d="M119 442q0 197 115.5 338.5t302.5 141.5q131 0 231 -64q72 -49 88 -94q-74 246 -264 426l-273 -172l-53 86l244 156q-139 106 -299 153l8 90q223 -43 395 -178l236 154l53 -84l-211 -138q51 -47 94 -104q223 -283 224 -643q0 -227 -113 -379q-129 -168 -352 -168 q-197 0 -311.5 137t-114.5 342zM244 442q0 -154 83 -263t234 -109q135 0 228.5 109.5t93.5 262.5q0 156 -93.5 265.5t-228.5 109.5q-147 0 -232 -109.5t-85 -265.5z" />
<glyph unicode="&#xf1;" horiz-adv-x="1220" d="M141 1065h115q23 -66 27 -191q121 213 360 213q416 0 416 -483v-604h-123v604q0 383 -320 383q-127 0 -229 -108.5t-102 -233.5v-645h-121v803q0 84 -23 262zM326 1223q2 94 44 140t109 46q33 0 67 -15.5t66.5 -36t63.5 -35.5t63 -15q53 0 62 110h78q-6 -188 -156 -188 q-31 0 -65.5 15.5t-67.5 35.5t-62.5 35.5t-52.5 15.5q-25 0 -47 -27.5t-24 -80.5h-78z" />
<glyph unicode="&#xf4;" horiz-adv-x="1245" d="M88 530q0 233 147.5 395t387.5 162q242 0 389 -161.5t147 -395.5q0 -236 -147.5 -398.5t-388.5 -162.5q-240 0 -387.5 162.5t-147.5 398.5zM207 530q0 -195 117.5 -326.5t298.5 -131.5q182 0 299.5 132t117.5 326q0 193 -117.5 323t-299.5 130q-180 0 -298 -130 t-118 -323zM363 1229l217 244h88l215 -244h-115l-145 162l-144 -162h-116z" />
<glyph unicode="&#xf6;" horiz-adv-x="1245" d="M88 530q0 233 147.5 395t387.5 162q242 0 389 -161.5t147 -395.5q0 -236 -147.5 -398.5t-388.5 -162.5q-240 0 -387.5 162.5t-147.5 398.5zM207 530q0 -195 117.5 -326.5t298.5 -131.5q182 0 299.5 132t117.5 326q0 193 -117.5 323t-299.5 130q-180 0 -298 -130 t-118 -323zM332 1323q0 41 26.5 68.5t67.5 27.5t70 -27.5t29 -68.5t-29 -67.5t-70 -26.5t-67.5 26.5t-26.5 67.5zM721 1323q0 41 26.5 68.5t67.5 27.5t69 -27.5t28 -68.5t-28 -67.5t-69 -26.5t-67.5 26.5t-26.5 67.5z" />
<glyph unicode="&#xf7;" horiz-adv-x="1286" d="M119 516v105h1050v-105h-1050zM545 184q0 45 28.5 78t75.5 33q43 0 69.5 -33t26.5 -78q0 -43 -27.5 -74.5t-72.5 -31.5q-47 0 -73.5 31.5t-26.5 74.5zM545 946q4 43 31.5 75t72.5 32q43 0 72 -32t29 -75t-29 -75.5t-72 -32.5q-47 0 -75.5 32.5t-28.5 75.5z" />
<glyph unicode="&#xf8;" horiz-adv-x="1245" d="M88 530q0 233 147.5 395t387.5 162q115 0 229 -47l98 160h133l-133 -217q209 -160 209 -453q0 -236 -147.5 -398.5t-388.5 -162.5q-137 0 -263 62l-75 -121h-125l112 184q-184 160 -184 436zM207 530q0 -205 125 -340l465 756q-80 37 -174 37q-180 0 -298 -130t-118 -323 zM420 125q90 -53 203 -53q182 0 299.5 132t117.5 326q0 221 -149 357z" />
<glyph unicode="&#xfb;" horiz-adv-x="1220" d="M164 467v598h121v-576q0 -412 288 -411q135 0 244 88q119 100 119 254v645h123v-805q0 -117 53 -256l-115 -27q-39 106 -51 207q-137 -213 -401 -213q-381 0 -381 496zM351 1229l217 244h88l215 -244h-115l-145 162l-144 -162h-116z" />
<glyph unicode="&#xfc;" horiz-adv-x="1220" d="M164 467v598h121v-576q0 -412 288 -411q135 0 244 88q119 100 119 254v645h123v-805q0 -117 53 -256l-115 -27q-39 106 -51 207q-137 -213 -401 -213q-381 0 -381 496zM319 1323q0 41 26.5 68.5t67.5 27.5t70 -27.5t29 -68.5t-29 -67.5t-70 -26.5t-67.5 26.5t-26.5 67.5z M708 1323q0 41 26.5 68.5t67.5 27.5t69 -27.5t28 -68.5t-28 -67.5t-69 -26.5t-67.5 26.5t-26.5 67.5z" />
<glyph unicode="&#xfe;" horiz-adv-x="1351" d="M190 -438v1911h119v-603q162 217 436 217q225 0 373 -159q139 -152 139 -377q0 -272 -163 -432q-150 -147 -383 -148q-256 0 -402 195v-604h-119zM309 420q0 -31 17 -94q47 -106 152.5 -178t242.5 -72q184 0 302 125t118 348q0 190 -115 315t-303 125q-285 0 -387 -260 q-27 -61 -27 -125v-184z" />
<glyph unicode="&#xff;" horiz-adv-x="1054" d="M10 1065h131l398 -901l372 901h136l-469 -1065q-186 -416 -494 -489l-27 98q266 59 404 426q0 8 -10 37zM238 1323q0 41 26.5 68.5t67.5 27.5t70 -27.5t29 -68.5t-29 -67.5t-70 -26.5t-67.5 26.5t-26.5 67.5zM627 1323q0 41 26.5 68.5t67.5 27.5t69 -27.5t28 -68.5 t-28 -67.5t-69 -26.5t-67.5 26.5t-26.5 67.5z" />
<glyph unicode="&#x102;" horiz-adv-x="1253" d="M0 0l563 1513h127l563 -1513h-135l-172 479h-643l-168 -479h-135zM342 584h567l-282 794zM344 1845h109q12 -35 35 -59q51 -57 139 -57q86 0 133 57q27 25 39 59h107q-16 -84 -76 -137q-82 -76 -203 -76q-123 0 -207 76q-58 53 -76 137z" />
<glyph unicode="&#x103;" horiz-adv-x="1077" d="M82 266q0 397 692 398h19v20q0 102 -48 180q-72 125 -243 125q-111 0 -338 -71l-17 112q176 57 363 57q406 0 405 -444v-383q0 -131 37 -260l-108 -23l-45 173q-143 -178 -379 -179q-137 0 -237.5 79t-100.5 216zM211 289q0 -104 62.5 -158.5t156.5 -54.5q246 0 346 209 q16 35 17 59v213q-582 0 -582 -268zM258 1419h109q12 -35 35 -59q51 -57 139 -57q86 0 133 57q27 25 39 59h107q-16 -84 -76 -137q-82 -76 -203 -76q-123 0 -207 76q-58 53 -76 137z" />
<glyph unicode="&#x106;" horiz-adv-x="1271" d="M72 750q0 334 202.5 548.5t505.5 214.5q242 0 408 -77l-37 -101q-170 72 -365 72q-242 0 -409 -178q-180 -188 -180 -484q0 -295 180 -481q168 -180 409 -180q195 0 365 72l37 -99q-166 -80 -408 -80q-303 0 -505.5 218.5t-202.5 554.5zM496 1649l155 284l123 -30 l-182 -254h-96z" />
<glyph unicode="&#x107;" horiz-adv-x="1036" d="M84 530q0 252 150.5 404.5t414.5 152.5q195 0 328 -75l-43 -101q-117 76 -291 76q-193 0 -316.5 -122t-123.5 -335t124 -335.5t316 -122.5q174 0 291 75l43 -100q-133 -76 -328 -76q-264 0 -414.5 152.5t-150.5 406.5zM379 1223l155 284l123 -30l-182 -254h-96z" />
<glyph unicode="&#x10c;" horiz-adv-x="1271" d="M72 750q0 334 202.5 548.5t505.5 214.5q242 0 408 -77l-37 -101q-170 72 -365 72q-242 0 -409 -178q-180 -188 -180 -484q0 -295 180 -481q168 -180 409 -180q195 0 365 72l37 -99q-166 -80 -408 -80q-303 0 -505.5 218.5t-202.5 554.5zM475 1874h116l144 -164l145 164 h115l-215 -244h-88z" />
<glyph unicode="&#x10d;" horiz-adv-x="1036" d="M84 530q0 252 150.5 404.5t414.5 152.5q195 0 328 -75l-43 -101q-117 76 -291 76q-193 0 -316.5 -122t-123.5 -335t124 -335.5t316 -122.5q174 0 291 75l43 -100q-133 -76 -328 -76q-264 0 -414.5 152.5t-150.5 406.5zM363 1448h116l144 -164l145 164h115l-215 -244h-88z " />
<glyph unicode="&#x110;" horiz-adv-x="1349" d="M18 705v104h152v661q287 37 492 37q283 0 440.5 -192.5t157.5 -538.5q0 -375 -132 -563q-158 -225 -530 -225q-141 0 -428 28v689h-152zM291 113q158 -18 346 -19q500 0 500 682q0 301 -131 467q-129 158 -355 158q-143 0 -360 -25v-567h473v-104h-473v-592z" />
<glyph unicode="&#x111;" horiz-adv-x="1255" d="M88 545q0 236 128 389t351 153q270 0 404 -225v473h-408v103h408v145h123v-145h149v-103h-149v-1075q0 -178 10 -260h-115q-6 82 -6 188q-143 -217 -397 -217q-229 0 -363.5 159t-134.5 415zM207 543q0 -467 395 -467q156 0 262.5 100t106.5 250v178q0 172 -116 278.5 t-265 106.5q-182 0 -282.5 -124.5t-100.5 -321.5z" />
<glyph unicode="&#x11e;" horiz-adv-x="1331" d="M72 750q0 332 178 538q186 219 506 219q227 0 401 -75l-39 -101q-188 72 -368 72q-236 0 -394.5 -184.5t-158.5 -473.5q0 -307 137 -484t387 -177q197 0 360 80v481h-379v100h498v-714q-25 18 -65 18l-186 -33q-185 -33 -247 -32q-287 0 -458.5 209t-171.5 557zM383 1845 h109q12 -35 35 -59q51 -57 139 -57q86 0 133 57q27 25 39 59h107q-16 -84 -76 -137q-82 -76 -203 -76q-123 0 -207 76q-58 53 -76 137z" />
<glyph unicode="&#x11f;" horiz-adv-x="972" d="M113 692q0 170 106.5 273.5t251.5 103.5h416v-100l-154 14q129 -125 129 -268q0 -176 -108.5 -279.5t-268.5 -103.5q-96 0 -166 35q-18 -47 -18 -91q0 -82 254 -153q301 -86 301 -307q0 -135 -97 -221.5t-286 -86.5q-166 0 -303 84l43 101q135 -78 270 -78q115 0 191 53 t76 137q0 152 -248 232q-152 47 -207 86q-98 59 -98 153q0 55 32 150q-116 125 -116 266zM204 1419h109q12 -35 35 -59q51 -57 139 -57q86 0 133 57q27 25 39 59h107q-16 -84 -76 -137q-82 -76 -203 -76q-123 0 -207 76q-58 53 -76 137zM223 696q0 -127 84 -200 q78 -70 178 -70q113 0 192 71.5t79 200.5q0 104 -66 183q-76 94 -205 94q-125 0 -193.5 -83t-68.5 -196z" />
<glyph unicode="&#x130;" horiz-adv-x="458" d="M166 1692q0 45 29.5 77.5t74.5 32.5t77 -32.5t32 -77.5q0 -43 -32 -73t-77 -30t-74.5 30t-29.5 73zM170 0v1491h121v-1491h-121z" />
<glyph unicode="&#x131;" horiz-adv-x="446" d="M164 0v1065h119v-1065h-119z" />
<glyph unicode="&#x141;" horiz-adv-x="1130" d="M57 674l131 41v776h121v-735l680 215v-115l-680 -207v-547h733v-102h-854v608l-104 -30z" />
<glyph unicode="&#x142;" horiz-adv-x="653" d="M57 674l131 41v868h121v-827l258 84v-111l-258 -84v-61q0 -233 41 -334q59 -160 246 -166l-12 -107q-395 18 -396 560v71l-104 -30z" />
<glyph unicode="&#x152;" horiz-adv-x="2226" d="M70 743q0 334 192.5 554.5t499.5 220.5q338 0 534 -265v238h813v-102h-690v-549h615v-103h-615v-635h690v-102h-813v231q-197 -262 -534 -262q-307 0 -499.5 219t-192.5 555zM190 743q0 -276 160 -471.5t412 -195.5q178 0 320.5 103.5t213.5 275.5v549q-20 154 -178 278 q-166 127 -356 127q-252 0 -412 -196t-160 -470z" />
<glyph unicode="&#x153;" horiz-adv-x="2125" d="M88 530q0 233 147.5 395t387.5 162q340 0 477 -290q135 291 473 290q449 0 457 -561h-871q0 -223 122 -335.5t316 -112.5q186 0 373 72l10 -103q-182 -76 -395 -76q-344 0 -491 283q-141 -285 -471 -285q-240 0 -387.5 162.5t-147.5 398.5zM207 530q0 -195 117.5 -326.5 t298.5 -131.5q180 0 296.5 130t120.5 328q2 190 -114.5 321.5t-302.5 131.5q-180 0 -298 -130t-118 -323zM1165 623h750q-6 160 -102.5 263t-256.5 103q-154 0 -260 -101t-131 -265z" />
<glyph unicode="&#x15e;" horiz-adv-x="1118" d="M90 84l51 106q154 -115 373 -114q176 0 275.5 83t99.5 220q0 125 -77 201.5t-255 134.5q-416 135 -416 420q0 166 128 275.5t335 109.5q211 0 342 -78q-29 -53 -53 -99q-135 74 -291 74q-176 0 -270 -92q-76 -76 -76 -174q0 -207 334 -322q215 -74 309 -161 q111 -104 111 -279q0 -170 -123 -283q-137 -135 -385 -135q-246 0 -412 113zM377 -395l30 69q66 -31 123 -30q119 0 119 86q0 80 -199 94l123 188h101l-84 -118q156 -37 155 -148q0 -182 -219 -182q-75 0 -149 41z" />
<glyph unicode="&#x15f;" horiz-adv-x="901" d="M100 57l47 99q152 -80 264 -80q262 0 263 196q0 154 -248 230q-285 88 -285 289q0 121 93 208.5t259 87.5t262 -71l-49 -101q-94 74 -235 74q-100 0 -156.5 -53t-56.5 -131q0 -125 244 -209q285 -98 284 -313q0 -135 -101.5 -223.5t-283.5 -88.5q-156 0 -301 86z M288 -356l27 63q59 -28 111 -27q107 0 107 77q0 72 -179 85l110 169h91l-75 -106q140 -34 139 -134q0 -163 -197 -163q-67 0 -134 36z" />
<glyph unicode="&#x160;" horiz-adv-x="1101" d="M84 84l51 106q154 -115 373 -114q176 0 275.5 83t99.5 220q0 125 -77 201.5t-255 134.5q-416 135 -416 420q0 166 128 275.5t335 109.5q211 0 342 -78q-29 -53 -53 -99q-135 74 -291 74q-176 0 -270 -92q-76 -76 -76 -174q0 -207 334 -322q215 -74 309 -161 q111 -104 111 -279q0 -170 -123 -283q-137 -135 -385 -135q-246 0 -412 113zM291 1874h116l144 -164l145 164h115l-215 -244h-88z" />
<glyph unicode="&#x161;" horiz-adv-x="882" d="M90 57l47 99q152 -80 264 -80q262 0 263 196q0 154 -248 230q-285 88 -285 289q0 121 93 208.5t259 87.5t262 -71l-49 -101q-94 74 -235 74q-100 0 -156.5 -53t-56.5 -131q0 -125 244 -209q285 -98 284 -313q0 -135 -101.5 -223.5t-283.5 -88.5q-156 0 -301 86zM183 1448 h116l144 -164l145 164h115l-215 -244h-88z" />
<glyph unicode="&#x178;" horiz-adv-x="1196" d="M23 1491h141l432 -729l433 729h141l-514 -834v-657h-119v655zM309 1739q0 41 26.5 68.5t67.5 27.5t70 -27.5t29 -68.5t-29 -67.5t-70 -26.5t-67.5 26.5t-26.5 67.5zM698 1739q0 41 26.5 68.5t67.5 27.5t69 -27.5t28 -68.5t-28 -67.5t-69 -26.5t-67.5 26.5t-26.5 67.5z " />
<glyph unicode="&#x17d;" horiz-adv-x="1327" d="M70 0v82l1011 1307h-950l19 102h1087v-84l-1008 -1305h1049l-25 -102h-1183zM404 1874h116l144 -164l145 164h115l-215 -244h-88z" />
<glyph unicode="&#x17e;" horiz-adv-x="1005" d="M47 0v76l752 889h-715l18 100h850l-2 -84l-749 -881h768l-25 -100h-897zM242 1448h116l144 -164l145 164h115l-215 -244h-88z" />
<glyph unicode="&#x192;" horiz-adv-x="1245" d="M-53 -176l53 88q59 -35 147 -35q244 0 332 399l107 492h-178l18 96h182l19 82q117 502 485 502q119 0 170 -51l-53 -86q-59 33 -148 32q-244 0 -336 -397l-18 -82h307l-18 -96h-307l-107 -492q-111 -502 -485 -501q-121 0 -170 49z" />
<glyph unicode="&#x1a0;" horiz-adv-x="1521" d="M70 743q0 334 192.5 554.5t499.5 220.5q272 0 461 -181q131 141 131 295h100q0 -70 -45 -162q-53 -111 -137 -186q182 -215 182 -541q0 -336 -192.5 -555t-499.5 -219t-499.5 219t-192.5 555zM190 743q0 -276 160 -471.5t412 -195.5q250 0 409.5 195.5t159.5 471.5 q0 274 -159.5 470t-409.5 196q-252 0 -412 -196t-160 -470z" />
<glyph unicode="&#x1a1;" horiz-adv-x="1245" d="M88 530q0 233 147.5 395t387.5 162q211 0 360 -135q115 106 123 295h104q-6 -190 -176 -348q125 -156 125 -369q0 -236 -147.5 -398.5t-388.5 -162.5q-240 0 -387.5 162.5t-147.5 398.5zM207 530q0 -195 117.5 -326.5t298.5 -131.5q182 0 299.5 132t117.5 326 q0 193 -117.5 323t-299.5 130q-180 0 -298 -130t-118 -323z" />
<glyph unicode="&#x1af;" horiz-adv-x="1458" d="M170 631v860h121v-858q0 -295 120.5 -426t317.5 -131q201 0 321.5 131t118.5 426v858h121v-137q141 123 152 278h100q-29 -223 -252 -372v-629q0 -659 -561 -660q-559 1 -559 660z" />
<glyph unicode="&#x1b0;" horiz-adv-x="1167" d="M164 467v598h121v-576q0 -412 288 -411q135 0 244 88q119 100 119 254v645h123v-129q125 121 137 311h100q-20 -258 -237 -397v-590q0 -117 53 -256l-115 -27q-39 106 -51 207q-137 -213 -401 -213q-381 0 -381 496z" />
<glyph unicode="&#x2c6;" horiz-adv-x="663" d="M72 1229l217 244h88l215 -244h-115l-145 162l-144 -162h-116z" />
<glyph unicode="&#x2c7;" horiz-adv-x="663" d="M72 1448h116l144 -164l145 164h115l-215 -244h-88z" />
<glyph unicode="&#x2d8;" horiz-adv-x="946" d="M188 1419h109q12 -35 35 -59q51 -57 139 -57q86 0 133 57q27 25 39 59h107q-16 -84 -76 -137q-82 -76 -203 -76q-123 0 -207 76q-58 53 -76 137z" />
<glyph unicode="&#x2d9;" horiz-adv-x="946" d="M367 1692q0 45 29.5 77.5t74.5 32.5t77 -32.5t32 -77.5q0 -43 -32 -73t-77 -30t-74.5 30t-29.5 73z" />
<glyph unicode="&#x2da;" horiz-adv-x="946" d="M242 1378q0 98 67.5 167t157.5 69q96 0 163.5 -68.5t67.5 -167.5q0 -90 -67.5 -157.5t-163.5 -67.5q-90 0 -157.5 67.5t-67.5 157.5zM338 1376q0 -53 38 -91t95 -38q59 0 98 38t39 91q0 59 -39 98t-98 39q-57 0 -95 -39t-38 -98z" />
<glyph unicode="&#x2db;" horiz-adv-x="946" d="M250 -270q0 57 16.5 128.5t40.5 153.5h125q-59 -154 -59 -250q0 -135 123 -145q94 0 184 47l4 -113q-61 -25 -110.5 -36t-102.5 -11q-115 0 -168 68t-53 158z" />
<glyph unicode="&#x2dc;" horiz-adv-x="663" d="M72 1225q4 76 33.5 138t101.5 62q31 0 62.5 -14t62 -32.5t62.5 -33t67 -14.5q23 0 41 23.5t22 77.5h80q-2 -82 -41 -138.5t-112 -56.5q-27 0 -61 14.5t-66.5 29.5t-62.5 29.5t-50 14.5q-27 0 -42 -27.5t-19 -72.5h-78z" />
<glyph unicode="&#x2dd;" horiz-adv-x="872" d="M131 1034l186 504h146l-246 -504h-86zM403 1034l187 504h147l-248 -504h-86z" />
<glyph unicode="&#x300;" d="M-455 1477l123 30l156 -284h-96z" />
<glyph unicode="&#x301;" d="M-485 1223l155 284l123 -30l-182 -254h-96z" />
<glyph unicode="&#x303;" d="M-610 1223q2 94 44 140t109 46q33 0 67 -15.5t66.5 -36t63.5 -35.5t63 -15q53 0 62 110h78q-6 -188 -156 -188q-31 0 -65.5 15.5t-67.5 35.5t-62.5 35.5t-52.5 15.5q-25 0 -47 -27.5t-24 -80.5h-78z" />
<glyph unicode="&#x309;" d="M-717 1526q68 125 215 125q86 0 139.5 -45t53.5 -129q0 -98 -88 -167t-88 -106h-99q4 80 90 142.5t86 130.5q0 43 -29.5 66.5t-78.5 23.5q-82 0 -141 -88z" />
<glyph unicode="&#x323;" d="M-336 -242q0 31 26.5 59.5t65.5 28.5q41 0 65.5 -28.5t24.5 -59.5q0 -37 -24.5 -63.5t-65.5 -26.5q-39 0 -65.5 26.5t-26.5 63.5z" />
<glyph unicode="&#xe00;" />
<glyph unicode="&#xe01;" horiz-adv-x="1208" d="M113 852q25 176 157.5 288.5t315.5 112.5q205 0 326.5 -112.5t121.5 -311.5v-829h-112v817q0 154 -96.5 245t-245.5 91q-106 0 -207 -59.5t-137 -153.5q184 -16 253 -137q-76 -16 -132 -84t-56 -150v-569h-113v567q0 184 162 250q-102 51 -237 35z" />
<glyph unicode="&#xe02;" horiz-adv-x="1183" d="M47 958q0 117 89 206t249 89q139 0 228 -68.5t89 -187.5q0 -92 -75.5 -239.5t-75.5 -214.5v-293q0 -174 172 -174q174 0 174 174v979h113v-969q0 -285 -289 -285q-283 0 -283 285v297q0 80 79 214t79 210q0 72 -61.5 127t-149.5 55q-137 0 -209 -92q27 12 72 12 q82 0 133 -51t51 -129q0 -82 -51 -137t-133 -55q-98 0 -149.5 72.5t-51.5 174.5zM147 899q0 -43 28 -71.5t73 -28.5q43 0 71.5 28.5t28.5 71.5q0 45 -28.5 72.5t-71.5 27.5q-45 0 -73 -27.5t-28 -72.5z" />
<glyph unicode="&#xe03;" horiz-adv-x="1196" d="M47 852q0 135 76 252q80 127 209 153l78 -110l86 110q113 -14 184 -106q63 -88 63 -201q0 -98 -90 -254.5t-90 -246.5v-199q0 -174 174 -174q172 0 172 174v979h113v-969q0 -285 -289 -285q-283 0 -282 285v197q0 100 94 252.5t94 248.5q0 164 -119 189l-110 -131 l-113 127q-100 -68 -133 -180q43 18 100 18q90 0 143.5 -58.5t53.5 -146.5q0 -90 -58.5 -146.5t-142.5 -56.5q-106 0 -164 89q-49 77 -49 190zM160 780q0 -43 28.5 -71.5t71.5 -28.5t71.5 28.5t28.5 71.5t-28.5 72t-71.5 29t-71.5 -29t-28.5 -72z" />
<glyph unicode="&#xe04;" horiz-adv-x="1230" d="M102 799q0 205 138.5 329.5t345.5 124.5q190 0 330.5 -101t140.5 -300v-852h-113v844q0 150 -111.5 229.5t-252.5 79.5q-143 0 -252 -98.5t-109 -243.5q0 -68 25 -166q35 -137 39 -156q27 178 96 304q92 164 229 163q78 0 128 -50t50 -136q0 -78 -53 -132t-131 -54 q-82 0 -145 73q-43 -66 -86 -186q-53 -152 -54 -268v-203h-114v289q0 90 -50.5 256t-50.5 254zM504 770q0 -41 28.5 -68.5t69.5 -27.5t68.5 27.5t27.5 68.5t-27.5 69.5t-68.5 28.5t-69.5 -28.5t-28.5 -69.5z" />
<glyph unicode="&#xe05;" horiz-adv-x="1230" d="M102 805q0 360 342 455l140 -160l125 160q344 -70 348 -377v-883h-113v877q-4 217 -211 266l-149 -168l-168 172q-98 -53 -152 -164q-41 -80 -41 -154q0 -106 60 -372q84 426 319 426q82 0 131 -50.5t49 -130.5t-51 -133t-127 -53q-100 0 -162 74q-41 -45 -80 -166 q-39 -135 -38 -254v-170h-113v250q0 98 -54.5 279.5t-54.5 275.5zM504 702q0 -41 28.5 -69.5t69.5 -28.5t68.5 29t27.5 69q0 41 -27.5 69t-68.5 28t-69.5 -28t-28.5 -69z" />
<glyph unicode="&#xe06;" horiz-adv-x="1277" d="M47 852q0 135 76 252q80 127 209 153l78 -110l86 110q113 -14 180 -100t67 -207q0 -98 -90 -254.5t-90 -246.5v-48q281 -31 426 -231v1059h115v-1229h-115q-133 256 -381 309q43 -49 43 -119q0 -90 -60.5 -152.5t-152.5 -62.5q-94 0 -154.5 62.5t-60.5 152.5 q0 92 62.5 152.5t152.5 60.5h13v54q0 100 94 252.5t94 248.5q0 164 -119 189l-110 -131l-113 127q-100 -68 -133 -180q43 18 100 18q90 0 143.5 -58.5t53.5 -146.5q0 -90 -58.5 -146.5t-142.5 -56.5q-106 0 -164 89q-49 77 -49 190zM160 780q0 -43 28.5 -71.5t71.5 -28.5 t71.5 28.5t28.5 71.5t-28.5 72t-71.5 29t-71.5 -29t-28.5 -72zM330 190q0 -43 32.5 -75.5t75.5 -32.5q45 0 78 32.5t33 75.5q0 45 -33 78t-78 33q-43 0 -75.5 -33t-32.5 -78z" />
<glyph unicode="&#xe07;" horiz-adv-x="919" d="M49 651l64 72l520 -563v702q-43 -23 -96 -22q-86 0 -146.5 61.5t-60.5 140.5q0 92 59.5 151.5t147.5 59.5q100 0 159 -65q49 -59 49 -146v-1042h-112zM430 1051q0 -45 31 -76t76 -31q43 0 74.5 31t31.5 76q0 43 -31.5 74.5t-74.5 31.5q-45 0 -76 -31.5t-31 -74.5z" />
<glyph unicode="&#xe08;" horiz-adv-x="1148" d="M76 928q14 131 121 219q129 106 340 106q438 0 438 -329v-721q0 -231 -223 -232q-174 0 -201 176l-53 351q-47 -27 -107 -27q-78 0 -131 53.5t-53 130.5q0 82 53 136.5t131 54.5q70 0 123 -45t66 -115l90 -532q14 -78 88 -78q104 0 104 112v736q0 123 -97 175t-226 52 q-141 0 -233.5 -60.5t-115.5 -162.5h-114zM301 655q0 -41 26.5 -67.5t67.5 -26.5t69 26.5t28 67.5t-28 69t-69 28t-67.5 -28t-26.5 -69z" />
<glyph unicode="&#xe09;" horiz-adv-x="1179" d="M82 616q0 82 54 137.5t134 55.5t135.5 -55.5t55.5 -137.5q0 -59 -44 -148t-44 -159v-198q104 150 342 221q178 82 178 270v313q0 109 -113 179q-96 57 -225 57q-119 0 -219 -57q-113 -66 -139 -172h-115q8 131 125 225q131 106 342 106q203 0 325 -82q131 -90 132 -260 v-315q0 -152 -84 -236q141 -43 141 -188q0 -82 -53.5 -138.5t-145.5 -56.5q-82 0 -138 56.5t-56 138.5q0 29 4 41q-178 -76 -273 -213h-141v291q0 92 23 139h-13q-80 0 -134 54t-54 132zM178 616q0 -39 26.5 -65.5t67.5 -26.5t68 27t27 65q0 41 -27 68t-68 27t-67.5 -27 t-26.5 -68zM764 172q0 -41 31.5 -71.5t72.5 -30.5q43 0 73 30.5t30 71.5q0 45 -30 74.5t-73 29.5q-41 0 -72.5 -29.5t-31.5 -74.5z" />
<glyph unicode="&#xe0a;" horiz-adv-x="1189" d="M47 958q0 117 89 206t249 89q139 0 228 -68.5t89 -187.5q0 -92 -75.5 -239.5t-75.5 -214.5v-293q0 -174 176 -174t176 174v506q0 137 -135 184q6 18 6 72q172 72 182 291h119q-10 -119 -66.5 -206t-115.5 -120q123 -47 123 -209v-508q0 -285 -293 -285q-285 0 -285 285 v297q0 80 79 214t79 210q0 72 -61.5 127t-149.5 55q-137 0 -209 -92q27 12 72 12q82 0 133 -51t51 -129q0 -82 -51 -137t-133 -55q-98 0 -149.5 72.5t-51.5 174.5zM147 899q0 -43 28 -71.5t73 -28.5q43 0 71.5 28.5t28.5 71.5q0 45 -28.5 72.5t-71.5 27.5q-45 0 -73 -27.5 t-28 -72.5z" />
<glyph unicode="&#xe0b;" horiz-adv-x="1202" d="M47 852q0 135 76 252q80 127 209 153l78 -110l86 110q113 -14 184 -106q63 -88 63 -201q0 -98 -90 -254.5t-90 -246.5v-195q0 -178 176 -178t176 174v506q0 137 -124 180q2 29 -5 76q172 72 183 291h118q-10 -119 -66 -206t-116 -120q123 -47 123 -209v-508 q0 -285 -291 -285q-287 0 -286 285v197q0 100 94 252.5t94 248.5q0 164 -119 189l-110 -131l-113 127q-100 -68 -133 -180q43 18 100 18q90 0 143.5 -58.5t53.5 -146.5q0 -90 -58.5 -146.5t-142.5 -56.5q-106 0 -164 89q-49 77 -49 190zM160 780q0 -43 28.5 -71.5 t71.5 -28.5t71.5 28.5t28.5 71.5t-28.5 72t-71.5 29t-71.5 -29t-28.5 -72z" />
<glyph unicode="&#xe0c;" horiz-adv-x="1626" d="M94 850q29 174 156 288.5t299 114.5q197 0 312.5 -108.5t115.5 -300.5v-471q258 -88 360 -226v1082h113v-1229h-115q-76 117 -252 219q6 -25 7 -41q0 -84 -54.5 -145.5t-152.5 -61.5q-84 0 -145.5 61.5t-61.5 145.5q0 82 55 141.5t133 65.5v444q0 324 -321 324 q-100 0 -189.5 -61.5t-124.5 -155.5q174 -12 250 -137q-76 -16 -132 -82t-56 -148v-196q29 12 71 12q86 0 146.5 -60.5t60.5 -146.5q0 -84 -57 -145.5t-150 -61.5q-90 0 -148 61.5t-58 145.5q0 51 22 92v297q0 170 164 248q-119 47 -248 35zM260 178q0 -43 29.5 -72.5 t72.5 -29.5q45 0 77 29.5t32 72.5q0 45 -31.5 76t-77.5 31q-43 0 -72.5 -31t-29.5 -76zM776 178q0 -43 31 -72.5t74 -29.5t74.5 29.5t31.5 72.5q0 45 -31.5 76t-74.5 31t-74 -31t-31 -76z" />
<glyph unicode="&#xe0d;" horiz-adv-x="1626" d="M94 850q29 174 153 288.5t296 114.5q195 0 302 -106.5t107 -302.5v-594q0 -174 195 -174q190 0 190 174v979h113v-973q0 -281 -307 -281q-303 0 -303 285v569q0 324 -303 324q-100 0 -186.5 -59.5t-121.5 -157.5q174 -12 250 -137q-76 -16 -132 -82t-56 -148v-202 q41 18 94 18q88 0 147.5 -59.5t59.5 -143.5q0 -86 -48 -148.5t-159 -62.5q-90 0 -148.5 58.5t-58.5 154.5v383q0 170 164 248q-119 47 -248 35zM283 178q0 -43 29.5 -72.5t72.5 -29.5q45 0 76 29.5t31 72.5q0 45 -31 76t-76 31q-43 0 -72.5 -31t-29.5 -76zM782 -264 q0 70 50.5 120t119.5 50q72 0 122 -50.5t50 -119.5q0 -115 -108 -160q37 -20 90 -20q270 0 276 338h115q-6 -188 -98 -309.5t-289 -121.5q-127 0 -227.5 79t-100.5 194zM870 -264q0 -33 26 -58.5t60 -25.5q33 0 58.5 25.5t25.5 58.5q0 35 -25.5 60.5t-58.5 25.5 q-35 0 -60.5 -25.5t-25.5 -60.5z" />
<glyph unicode="&#xe0e;" horiz-adv-x="1331" d="M76 178q0 86 59.5 146.5t143.5 60.5q35 0 75 -14q-18 143 -18 219q0 143 125 225q-84 37 -166 37q-41 0 -59 -2q14 174 151 288.5t318 114.5q201 0 326.5 -114.5t125.5 -311.5v-1501h-127q-25 76 -142.5 150.5t-211.5 99.5v-20q0 -100 -59.5 -171t-159.5 -71 q-94 0 -147.5 54t-53.5 136q0 98 69.5 154.5t166.5 56.5q16 0 81 -10q12 117 117 176l84 -51q-94 -59 -98 -149q252 -88 366 -211v1345q0 154 -95 246t-245 92q-106 0 -205.5 -61.5t-136.5 -155.5q166 -14 254 -137q-170 -55 -170 -230q0 -121 29 -250q12 -55 12 -131 q0 -92 -61.5 -152.5t-144.5 -60.5q-84 0 -143.5 59.5t-59.5 143.5zM176 178q0 -43 30 -72.5t73 -29.5q45 0 75.5 29.5t30.5 72.5q0 45 -30.5 76t-75.5 31q-43 0 -73 -31t-30 -76zM356 -489q0 -96 105 -97q109 0 108 142q0 20 -6 47q-27 8 -65 8q-142 0 -142 -100z" />
<glyph unicode="&#xe0f;" horiz-adv-x="1331" d="M76 178q0 86 59.5 146.5t143.5 60.5q35 0 75 -14q-18 143 -18 219q0 143 125 225q-84 37 -166 37q-41 0 -59 -2q14 174 151 288.5t318 114.5q201 0 326.5 -114.5t125.5 -311.5v-1501h-127l-168 191l-139 -187l-172 187q-2 -96 -61.5 -151.5t-139.5 -55.5q-96 0 -148 56 t-52 138q0 92 60 146.5t146 54.5q59 0 105 -22q6 111 129 182l84 -49q-106 -66 -113 -176l154 -164l147 198l180 -204v1345q0 154 -95 246t-245 92q-106 0 -205.5 -61.5t-136.5 -155.5q166 -14 254 -137q-170 -55 -170 -230q0 -121 29 -250q12 -55 12 -131 q0 -92 -61.5 -152.5t-144.5 -60.5q-84 0 -143.5 59.5t-59.5 143.5zM176 178q0 -43 30 -72.5t73 -29.5q45 0 75.5 29.5t30.5 72.5q0 45 -30.5 76t-75.5 31q-43 0 -73 -31t-30 -76zM244 -498q0 -94 100 -94q117 0 117 172q-29 29 -94 29q-123 -1 -123 -107z" />
<glyph unicode="&#xe10;" horiz-adv-x="1073" d="M-43 -510q0 74 62.5 115t146.5 41q72 0 110 -17q18 129 138 193l84 -47q-127 -63 -131 -185l137 -159l135 67l152 -94v141q-16 -2 -52 -2q-66 0 -112.5 42t-46.5 102q0 59 47 101t112 42q63 0 110.5 -39t47.5 -104v-363h-123l-135 84l-137 -82l-142 172q-4 -88 -63 -138 t-141 -50q-199 4 -199 180zM53 -520q0 -82 97 -82q121 0 120 100q0 16 -6 41q-33 23 -108 23q-103 -6 -103 -82zM82 918q8 145 108.5 240t266.5 95q68 0 178 -34.5t170 -34.5q76 0 92 69l96 -22q-49 -162 -182 -162q-68 0 -188.5 37t-184.5 37q-72 0 -139.5 -42t-73.5 -97 q313 -63 445 -113q217 -80 217 -189v-454q0 -276 -250 -277q-248 0 -248 277v160q-35 -12 -80 -13q-78 0 -131 51.5t-53 131.5t53 135t131 55q82 0 137.5 -49t55.5 -135v-346q0 -162 135 -162q137 0 137 162v454q0 76 -303 152q-182 47 -389 74zM229 580q0 -35 23.5 -58.5 t56.5 -23.5q35 0 60.5 23.5t25.5 58.5t-25.5 59.5t-60.5 24.5q-33 0 -56.5 -24.5t-23.5 -59.5zM664 -313q0 -72 75 -72q76 0 76 72q0 70 -76 69q-75 1 -75 -69z" />
<glyph unicode="&#xe11;" horiz-adv-x="1443" d="M47 852q0 135 78 257t207 148l78 -110l86 110q227 -29 227 -307q0 -98 -80 -258t-80 -260l-12 -266q35 131 76 235l256 676q68 176 192 176q195 0 195 -249v-1004h-113v1004q0 139 -92 139q-35 0 -76 -80l-397 -1063h-141v457q0 100 85 252.5t85 248.5q0 170 -101 189 l-110 -131l-113 127q-100 -68 -133 -180q43 18 100 18q90 0 143.5 -58.5t53.5 -146.5q0 -90 -58.5 -146.5t-142.5 -56.5q-106 0 -164 89q-49 77 -49 190zM160 780q0 -43 28.5 -71.5t71.5 -28.5t71.5 28.5t28.5 71.5t-28.5 72t-71.5 29t-71.5 -29t-28.5 -72z" />
<glyph unicode="&#xe12;" horiz-adv-x="1665" d="M100 797q0 154 72 278q82 137 223 174l168 -178l170 182q137 -25 211 -150.5t74 -275.5v-454q258 -88 360 -209v1065h113v-1229h-113q-82 135 -254 223q6 -20 6 -45q0 -82 -56 -142.5t-150 -60.5t-150.5 60.5t-56.5 146.5q0 82 55 141.5t133 65.5v426q0 225 -143 320 l-201 -183l-184 185q-74 -47 -119 -140.5t-45 -187.5q0 -92 64.5 -262t66.5 -277q27 53 94 121q82 76 111 117q-78 8 -124 60.5t-46 123.5q0 78 53 131.5t131 53.5q80 0 134.5 -54.5t52.5 -130.5q-6 -143 -201 -346t-205 -346h-113v285q0 94 -65.5 259t-65.5 253zM463 696 q0 -45 26.5 -71.5t71.5 -26.5q43 0 72 26.5t29 71.5q0 43 -29 72t-72 29q-45 0 -71.5 -29t-26.5 -72zM817 178q0 -43 30 -72.5t75 -29.5q43 0 74.5 29.5t31.5 72.5q0 45 -31.5 76t-74.5 31q-45 0 -75 -31t-30 -76z" />
<glyph unicode="&#xe13;" horiz-adv-x="1699" d="M94 850q29 174 153 288.5t296 114.5q195 0 302 -106.5t107 -302.5v-694q72 94 201 153q154 76 182 98q78 70 78 209v619h113v-613q0 -186 -60 -245q125 -53 125 -195q0 -88 -59 -146.5t-150 -58.5q-88 0 -147 58.5t-59 146.5v19q-113 -45 -201 -195h-135v829 q0 324 -303 324q-100 0 -186.5 -59.5t-121.5 -157.5q174 -12 250 -137q-76 -16 -132 -82t-56 -148v-202q41 18 94 18q88 0 147.5 -59.5t59.5 -143.5q0 -92 -57.5 -151.5t-149.5 -59.5q-90 0 -148.5 61.5t-58.5 151.5v383q0 170 164 248q-119 47 -248 35zM283 178 q0 -43 29.5 -72.5t72.5 -29.5q45 0 76 29.5t31 72.5q0 45 -31 76t-76 31q-43 0 -72.5 -31t-29.5 -76zM1276 176q0 -45 30.5 -75.5t75.5 -30.5q43 0 75 30.5t32 75.5q0 43 -32 75t-75 32q-45 0 -75.5 -32t-30.5 -75z" />
<glyph unicode="&#xe14;" horiz-adv-x="1224" d="M100 797q0 213 141.5 334.5t350.5 121.5q217 0 338 -114.5t121 -309.5v-829h-115v815q0 338 -358 338q-145 0 -255 -98.5t-110 -243.5q0 -90 50 -245.5t50 -239.5q0 -61 -6 -84q37 82 129 182q72 78 148 160q-80 0 -133.5 53t-53.5 131t53.5 131t133.5 53q78 0 131 -53 t53 -131q0 -152 -221 -383t-230 -385h-114v283q0 90 -51.5 258t-51.5 256zM485 768q0 -41 29 -69.5t70 -28.5q39 0 67.5 28.5t28.5 69.5t-28.5 68.5t-67.5 27.5q-41 0 -70 -27.5t-29 -68.5z" />
<glyph unicode="&#xe15;" horiz-adv-x="1224" d="M100 797q0 154 70 278q80 141 221 178l195 -172l178 172q139 -25 217 -159q70 -117 70 -265v-829h-115v815q0 231 -150 322l-200 -185l-213 185q-156 -100 -156 -326q0 -96 50 -267t50 -296q31 61 126.5 140t125.5 126q-72 6 -120 56.5t-48 125.5q0 78 51.5 131.5 t131.5 53.5q78 0 131 -53.5t53 -131.5q0 -145 -219 -345.5t-230 -350.5h-112v283q0 90 -53.5 258t-53.5 256zM492 698q0 -41 28.5 -68.5t69.5 -27.5t68.5 27.5t27.5 68.5t-27.5 70t-68.5 29t-69.5 -29t-28.5 -70z" />
<glyph unicode="&#xe16;" horiz-adv-x="1183" d="M82 852q25 172 163 286.5t316 114.5q201 0 325 -112.5t124 -311.5v-829h-113v817q0 160 -94 248t-248 88q-106 0 -203.5 -61.5t-134.5 -155.5q190 -14 246 -133q-72 -16 -128 -84t-56 -146v-202q51 20 94 20q88 0 149.5 -60.5t61.5 -148.5q0 -94 -60.5 -150.5 t-150.5 -56.5q-88 0 -147.5 59.5t-59.5 147.5v387q0 170 160 248q-84 35 -244 35zM272 178q0 -43 30 -72.5t75 -29.5q43 0 74.5 29.5t31.5 72.5q0 45 -31.5 76t-74.5 31q-45 0 -75 -31t-30 -76z" />
<glyph unicode="&#xe17;" horiz-adv-x="1345" d="M53 1047q0 84 61.5 145t145.5 61t145.5 -61.5t61.5 -144.5v-615q-6 -143 -16 -207q20 63 57 176l254 676q66 176 215 176q195 0 194 -249v-1004h-112v1004q0 139 -90 139q-57 0 -99 -80l-397 -1063h-119v862q-41 -23 -94 -22q-84 0 -145.5 61.5t-61.5 145.5zM154 1047 q0 -43 31.5 -75t74.5 -32t75 32t32 75t-32 74.5t-75 31.5t-74.5 -31.5t-31.5 -74.5z" />
<glyph unicode="&#xe18;" horiz-adv-x="1048" d="M63 922q8 141 100.5 236t252.5 95q74 0 189.5 -34.5t170.5 -34.5q76 0 88 73l99 -22q-47 -154 -181 -154q-68 0 -188.5 36t-183.5 36q-66 0 -129.5 -44t-73.5 -103q338 -70 416 -95q246 -82 245 -206v-467q0 -260 -344 -261q-346 0 -346 261v489h113v-496 q0 -154 233 -153q231 0 232 153v465q0 74 -305 150q-185 47 -388 76z" />
<glyph unicode="&#xe19;" horiz-adv-x="1314" d="M53 1047q0 84 61.5 145t145.5 61t145.5 -61.5t61.5 -144.5v-924q63 68 223 141q178 80 232 125q106 84 106 215v625h113v-639q0 -152 -70 -219q133 -53 133 -193q0 -84 -61.5 -143.5t-145.5 -59.5q-86 0 -145 59.5t-59 143.5v23q-195 -78 -301 -201h-138v862 q-41 -23 -94 -22q-84 0 -145.5 61.5t-61.5 145.5zM154 1047q0 -43 31.5 -75t74.5 -32t75 32t32 75t-32 74.5t-75 31.5t-74.5 -31.5t-31.5 -74.5zM891 182q0 -45 30.5 -75.5t75.5 -30.5q43 0 75 30.5t32 75.5q0 43 -32 75t-75 32q-45 0 -75.5 -32t-30.5 -75z" />
<glyph unicode="&#xe1a;" horiz-adv-x="1339" d="M53 1047q0 84 61.5 145t145.5 61t145.5 -61.5t61.5 -144.5v-771q0 -199 295 -198q291 0 291 198v953h112v-963q0 -291 -403 -291q-408 0 -408 291v596q-41 -23 -94 -22q-84 0 -145.5 61.5t-61.5 145.5zM154 1047q0 -43 31.5 -75t74.5 -32t75 32t32 75t-32 74.5t-75 31.5 t-74.5 -31.5t-31.5 -74.5z" />
<glyph unicode="&#xe1b;" horiz-adv-x="1339" d="M53 1047q0 84 61.5 145t145.5 61t145.5 -61.5t61.5 -144.5v-771q0 -199 295 -198q291 0 291 198v1475h112v-1485q0 -291 -403 -291q-408 0 -408 291v596q-41 -23 -94 -22q-84 0 -145.5 61.5t-61.5 145.5zM154 1047q0 -43 31.5 -75t74.5 -32t75 32t32 75t-32 74.5 t-75 31.5t-74.5 -31.5t-31.5 -74.5z" />
<glyph unicode="&#xe1c;" horiz-adv-x="1191" d="M125 0v1047q0 84 59.5 145t147.5 61q84 0 145.5 -61.5t61.5 -144.5q0 -82 -59.5 -144.5t-147.5 -62.5q-43 0 -94 22v-692l288 444h84l295 -444v1059h113v-1229h-125l-324 496l-319 -496h-125zM229 1047q0 -43 31 -75t76 -32q43 0 74.5 32t31.5 75t-31.5 74.5t-74.5 31.5 q-45 0 -76 -31.5t-31 -74.5z" />
<glyph unicode="&#xe1d;" horiz-adv-x="1191" d="M125 0v1047q0 84 59.5 145t147.5 61q84 0 145.5 -61.5t61.5 -144.5q0 -82 -59.5 -144.5t-147.5 -62.5q-43 0 -94 22v-692l288 444h84l295 -444v1581h113v-1751h-125l-324 496l-319 -496h-125zM229 1047q0 -43 31 -75t76 -32q43 0 74.5 32t31.5 75t-31.5 74.5t-74.5 31.5 q-45 0 -76 -31.5t-31 -74.5z" />
<glyph unicode="&#xe1e;" horiz-adv-x="1398" d="M53 1047q0 84 61.5 145t145.5 61t145.5 -61.5t61.5 -144.5v-656q0 -78 -16 -219q23 104 57 229l229 828h107l227 -828q35 -125 57 -229q-16 141 -16 219v838h113v-1229h-138l-296 1087l-299 -1087h-138v862q-41 -23 -94 -22q-84 0 -145.5 61.5t-61.5 145.5zM154 1047 q0 -43 31.5 -75t74.5 -32t75 32t32 75t-32 74.5t-75 31.5t-74.5 -31.5t-31.5 -74.5z" />
<glyph unicode="&#xe1f;" horiz-adv-x="1398" d="M53 1047q0 84 61.5 145t145.5 61t145.5 -61.5t61.5 -144.5v-656q0 -78 -16 -219q23 104 57 229l229 828h107l227 -828q35 -125 57 -229q-16 141 -16 219v1360h113v-1751h-138l-296 1087l-299 -1087h-138v862q-41 -23 -94 -22q-84 0 -145.5 61.5t-61.5 145.5zM154 1047 q0 -43 31.5 -75t74.5 -32t75 32t32 75t-32 74.5t-75 31.5t-74.5 -31.5t-31.5 -74.5z" />
<glyph unicode="&#xe20;" horiz-adv-x="1331" d="M76 178q0 86 59.5 146.5t143.5 60.5q35 0 75 -14q-18 143 -18 219q0 143 125 225q-84 37 -166 37q-41 0 -59 -2q14 174 151 288.5t318 114.5q201 0 326.5 -114.5t125.5 -311.5v-827h-115v815q0 154 -95 246t-245 92q-106 0 -205.5 -61.5t-136.5 -155.5q166 -14 254 -137 q-170 -55 -170 -230q0 -121 29 -250q12 -55 12 -131q0 -92 -54 -152.5t-152 -60.5q-84 0 -143.5 59.5t-59.5 143.5zM176 178q0 -43 30 -72.5t73 -29.5q45 0 75.5 29.5t30.5 72.5q0 45 -30.5 76t-75.5 31q-43 0 -73 -31t-30 -76z" />
<glyph unicode="&#xe21;" horiz-adv-x="1253" d="M53 1047q0 84 61.5 145t145.5 61t145.5 -61.5t61.5 -144.5v-676q309 -111 498 -254v1112h112v-1229h-121q-246 188 -458 248q10 -29 10 -58q0 -90 -64.5 -152.5t-154.5 -62.5q-92 0 -154.5 62.5t-62.5 152.5q0 92 62.5 156t154.5 64q35 0 65 -9v461q-41 -23 -94 -22 q-84 0 -145.5 61.5t-61.5 145.5zM154 1047q0 -43 31.5 -75t74.5 -32t75 32t32 75t-32 74.5t-75 31.5t-74.5 -31.5t-31.5 -74.5zM172 195q0 -47 35 -82t82 -35t80.5 34.5t33.5 82.5q0 47 -33.5 80.5t-80.5 33.5t-82 -33.5t-35 -80.5z" />
<glyph unicode="&#xe22;" horiz-adv-x="1173" d="M131 977q0 123 70.5 199.5t195.5 76.5q80 0 130.5 -53t50.5 -125t-47.5 -124t-133.5 -52q-115 0 -161 105q-4 -10 -5 -52q0 -88 55.5 -159.5t143.5 -71.5h178v-107h-182q-70 0 -116 -50t-46 -132v-143q0 -211 314 -211q309 0 309 211v940h112v-950q0 -303 -421 -304 q-428 0 -428 304v159q0 72 43 138.5t104 91.5q-166 71 -166 309zM297 1075q0 -98 98 -98q43 0 72 26.5t29 71.5q0 43 -29 72t-72 29q-45 0 -71.5 -29t-26.5 -72z" />
<glyph unicode="&#xe23;" horiz-adv-x="1007" d="M78 922q18 332 305 331q66 0 186.5 -32.5t173.5 -32.5q31 0 60 72l96 -25q-47 -152 -160 -152q-66 0 -189.5 35t-187.5 35q-55 0 -103 -48t-52 -99q201 -35 395.5 -103.5t194.5 -197.5v-523q0 -86 -56.5 -146.5t-150.5 -60.5q-86 0 -146.5 60.5t-60.5 146.5 q0 84 60.5 145.5t146.5 61.5q53 0 94 -22v329q0 128 -606 226zM483 182q0 -45 31 -75.5t76 -30.5q43 0 74.5 30.5t31.5 75.5q0 43 -31.5 75t-74.5 32q-45 0 -76 -32t-31 -75z" />
<glyph unicode="&#xe24;" horiz-adv-x="1183" d="M82 852q25 172 163 286.5t316 114.5q201 0 325 -112.5t124 -311.5v-1456h-113v1444q0 160 -94 248t-248 88q-106 0 -203.5 -61.5t-134.5 -155.5q190 -14 246 -133q-72 -16 -128 -84t-56 -146v-202q51 20 94 20q88 0 149.5 -60.5t61.5 -148.5t-61.5 -147.5t-149.5 -59.5 t-147.5 59.5t-59.5 147.5v387q0 170 160 248q-84 35 -244 35zM272 178q0 -43 30 -72.5t75 -29.5q43 0 74.5 29.5t31.5 72.5q0 45 -31.5 76t-74.5 31q-45 0 -75 -31t-30 -76z" />
<glyph unicode="&#xe25;" horiz-adv-x="1191" d="M66 928q23 143 170 237q137 88 315 88q182 0 313 -84q154 -100 154 -272v-897h-113v537q0 109 -114 174q-98 53 -228 53q-125 0 -212 -66.5t-87 -173.5v-157q43 23 103 22q88 0 147 -61.5t59 -145.5q0 -86 -59 -146.5t-147 -60.5q-96 0 -156.5 62.5t-60.5 146.5v340 q0 156 126 256q115 94 279 94q219 0 350 -124v153q0 113 -119 187q-102 63 -229 63q-131 0 -238 -55q-117 -63 -143 -170h-110zM260 178q0 -43 29.5 -72.5t72.5 -29.5q45 0 77 29.5t32 72.5q0 45 -31.5 76t-77.5 31q-43 0 -72.5 -31t-29.5 -76z" />
<glyph unicode="&#xe26;" horiz-adv-x="1331" d="M76 178q0 86 59.5 146.5t143.5 60.5q35 0 75 -14q-18 143 -18 219q0 143 125 225q-84 37 -166 37q-41 0 -59 -2q14 174 151 288.5t318 114.5q201 0 326.5 -114.5t125.5 -311.5v-1454h-115v1442q0 154 -95 246t-245 92q-106 0 -205.5 -61.5t-136.5 -155.5 q166 -14 254 -137q-170 -55 -170 -230q0 -121 29 -250q12 -55 12 -131q0 -92 -61.5 -152.5t-144.5 -60.5q-84 0 -143.5 59.5t-59.5 143.5zM176 178q0 -43 30 -72.5t73 -29.5q45 0 75.5 29.5t30.5 72.5q0 45 -30.5 76t-75.5 31q-43 0 -73 -31t-30 -76z" />
<glyph unicode="&#xe27;" horiz-adv-x="1048" d="M31 928q70 326 426 325q180 0 298.5 -94t118.5 -266v-711q0 -86 -61 -146.5t-145 -60.5t-145.5 60.5t-61.5 146.5q0 84 61.5 145.5t145.5 61.5q53 0 94 -22v507q0 279 -311 279q-244 0 -304 -225h-116zM561 182q0 -45 31 -75.5t76 -30.5q43 0 74.5 30.5t31.5 75.5 q0 43 -31.5 75t-74.5 32q-45 0 -76 -32t-31 -75z" />
<glyph unicode="&#xe28;" horiz-adv-x="1230" d="M102 799q0 205 138.5 329.5t345.5 124.5q131 0 248 -53q113 100 118 148h146q-14 -76 -170 -207q129 -104 129 -289v-852h-113v844q0 137 -110 221q-23 -18 -160 -121q109 -45 108 -176q0 -76 -53 -129t-127 -53q-94 0 -147 71q-45 -66 -88 -186q-49 -152 -50 -268v-203 h-114v289q0 90 -50.5 256t-50.5 254zM219 811q0 -68 25 -166q35 -137 39 -156q59 319 213 439l247 194q-76 31 -163 31q-143 0 -252 -98.5t-109 -243.5zM502 768q0 -41 27.5 -69.5t68.5 -28.5t69.5 28.5t28.5 69.5t-28.5 68.5t-69.5 27.5t-68.5 -27.5t-27.5 -68.5z" />
<glyph unicode="&#xe29;" horiz-adv-x="1372" d="M53 1047q0 84 61.5 145t145.5 61t145.5 -61.5t61.5 -144.5v-771q0 -199 307 -198q309 0 309 198v228q-94 -20 -153 -21q-143 0 -250 78t-107 191q0 72 50.5 121t119.5 49q72 0 122 -49.5t50 -120.5q0 -109 -110 -160q39 -23 125 -23t153 33v627h113v-565q76 57 123 145 l70 -59q-45 -86 -193 -201v-283q0 -291 -420 -291q-422 0 -422 291v596q-41 -23 -94 -22q-84 0 -145.5 61.5t-61.5 145.5zM154 1047q0 -43 31.5 -75t74.5 -32t75 32t32 75t-32 74.5t-75 31.5t-74.5 -31.5t-31.5 -74.5zM657 752q0 -35 26 -59.5t60 -24.5q33 0 59.5 24.5 t26.5 59.5t-26.5 61.5t-59.5 26.5q-35 0 -60.5 -26.5t-25.5 -61.5z" />
<glyph unicode="&#xe2a;" horiz-adv-x="1191" d="M66 928q23 143 170 237q137 88 315 88t323 -90q66 74 84 174h113q-20 -125 -119 -247q66 -84 66 -193v-897h-113v510q0 111 -114 176q-98 53 -228 53q-125 0 -212 -67.5t-87 -173.5v-131q43 23 103 22q88 0 147 -61.5t59 -145.5q0 -86 -59 -146.5t-147 -60.5 q-96 0 -156.5 62.5t-60.5 146.5v314q0 158 126 258q115 94 279 94h18q141 115 238 225q-115 78 -254 78q-131 0 -238 -55q-117 -63 -143 -170h-110zM260 178q0 -43 29.5 -72.5t72.5 -29.5q45 0 77 29.5t32 72.5q0 45 -31.5 76t-77.5 31q-43 0 -72.5 -31t-29.5 -76zM690 834 q131 -31 215 -111v180q0 43 -28 101q-87 -94 -187 -170z" />
<glyph unicode="&#xe2b;" horiz-adv-x="1337" d="M53 1047q0 84 61.5 145t145.5 61t145.5 -61.5t61.5 -144.5v-680q0 -29 -16 -195q39 78 69 137l254 467q43 80 103 111q-74 59 -74 160q0 84 60.5 145t146.5 61q84 0 145.5 -61.5t61.5 -144.5q0 -119 -105 -179q51 -53 51 -192v-676h-112v676q0 145 -76 145 q-47 0 -113 -110l-405 -711h-103v862q-41 -23 -94 -22q-84 0 -145.5 61.5t-61.5 145.5zM154 1047q0 -43 31.5 -75t74.5 -32t75 32t32 75t-32 74.5t-75 31.5t-74.5 -31.5t-31.5 -74.5zM903 1047q0 -43 31 -75t76 -32q43 0 74.5 32t31.5 75t-31.5 74.5t-74.5 31.5 q-45 0 -76 -31.5t-31 -74.5z" />
<glyph unicode="&#xe2c;" horiz-adv-x="1421" d="M53 1047q0 84 61.5 145t145.5 61t145.5 -61.5t61.5 -144.5v-740q0 -51 -10 -153q20 53 53 135l233 438h107l231 -438q8 -23 60 -135q-6 100 -6 153v555q-41 -23 -95 -22q-84 0 -145 61.5t-61 145.5t61 145t145 61q49 0 95 -24q61 29 77 121h144q-27 -115 -137 -199 q29 -57 28 -104v-1047h-137l-313 610l-314 -610h-129v862q-41 -23 -94 -22q-84 0 -145.5 61.5t-61.5 145.5zM154 1047q0 -43 31.5 -75t74.5 -32t75 32t32 75t-32 74.5t-75 31.5t-74.5 -31.5t-31.5 -74.5zM934 1047q0 -43 31.5 -75t74.5 -32t75 32t32 75t-32 74.5t-75 31.5 t-74.5 -31.5t-31.5 -74.5z" />
<glyph unicode="&#xe2d;" horiz-adv-x="1212" d="M82 928q31 147 164 236t327 89q184 0 314 -88q150 -100 149 -272v-627q-6 -291 -420 -291t-413 291v385q0 86 61.5 146.5t145.5 60.5q86 0 146 -60.5t60 -146.5q0 -84 -56 -145.5t-150 -61.5q-53 0 -93 23v-176q0 -213 306 -213q301 0 301 213v583q0 131 -109 209 q-100 70 -248 70q-129 0 -235 -59q-115 -66 -137 -166h-113zM303 651q0 -43 32 -74.5t75 -31.5q45 0 75.5 31.5t30.5 74.5q0 45 -30.5 76t-75.5 31q-43 0 -75 -31t-32 -76z" />
<glyph unicode="&#xe2e;" horiz-adv-x="1165" d="M117 1028q0 119 155 182q119 47 271 47q238 0 379 -153q49 84 53 153h119q-23 -129 -125 -245q20 -43 20 -125v-608q0 -303 -416 -304q-424 0 -423 304v290q0 86 61 146.5t145 60.5q86 0 146.5 -60.5t60.5 -146.5q0 -84 -53 -145.5t-154 -61.5q-53 0 -92 23v-94 q0 -213 309 -213q303 0 304 217v635q-133 -90 -414 -90q-346 0 -346 188zM229 1028q0 -88 242 -88q233 0 385 76q-35 59 -127 101t-190 42q-109 0 -201 -31q-109 -39 -109 -100zM250 569q0 -43 31.5 -74.5t74.5 -31.5q45 0 76 31.5t31 74.5q0 45 -31 76t-76 31 q-43 0 -74.5 -31t-31.5 -76z" />
<glyph unicode="&#xe2f;" horiz-adv-x="1224" d="M170 1053q0 82 59.5 141t141.5 59q80 0 139 -59t59 -141q0 -70 -43 -123q172 59 217 299h113q186 0 186 -195v-1034h-112v1024q0 98 -96 104q-111 -307 -363 -307q-147 0 -224 65t-77 167zM276 1057q0 -41 25 -66.5t66 -25.5t67.5 25.5t26.5 66.5t-26.5 67.5t-67.5 26.5 t-66 -26.5t-25 -67.5z" />
<glyph unicode="&#xe30;" horiz-adv-x="1118" d="M96 324q0 80 60.5 140t140.5 60q82 0 141.5 -60.5t59.5 -139.5q0 -106 -90 -168q49 -12 77 -13q170 6 257 111.5t96 277.5h112q-6 -213 -129 -349t-317 -136q-160 0 -268 59q-140 73 -140 218zM96 987q0 82 60.5 141.5t140.5 59.5q82 0 141.5 -59.5t59.5 -141.5 q0 -106 -90 -166q49 -12 77 -12q170 6 257 110.5t96 276.5h112q-6 -213 -129 -349t-317 -136q-160 0 -268 59q-140 74 -140 217zM195 324q0 -45 26.5 -72t69.5 -27q45 0 72.5 27t27.5 72q0 43 -27.5 71.5t-72.5 28.5q-43 0 -69.5 -28.5t-26.5 -71.5zM195 987 q0 -43 26.5 -69.5t69.5 -26.5q45 0 72.5 26.5t27.5 69.5t-27.5 71.5t-72.5 28.5q-43 0 -69.5 -28.5t-26.5 -71.5z" />
<glyph unicode="&#xe31;" d="M-737 1726q0 82 60.5 141.5t139.5 59.5q82 0 141.5 -58.5t59.5 -137.5q0 -106 -94 -170q45 -10 117 -11q154 4 254 123q88 111 94 266h119q-4 -213 -141.5 -349t-348.5 -136q-180 0 -290.5 74.5t-110.5 197.5zM-639 1733q0 -43 30.5 -72t71.5 -29t71 29t30 72 q0 45 -30 74.5t-71 29.5t-71.5 -29.5t-30.5 -74.5z" />
<glyph unicode="&#xe32;" horiz-adv-x="989" d="M76 922q2 131 104.5 231t261.5 100q180 0 276.5 -88t96.5 -231v-934h-113v936q0 94 -70.5 155.5t-193.5 61.5q-109 0 -175 -73.5t-73 -157.5h-114z" />
<glyph unicode="&#xe33;" horiz-adv-x="989" d="M-508 1686q0 100 70.5 170.5t171.5 70.5q100 0 168.5 -70.5t68.5 -170.5t-68.5 -169t-168.5 -69t-171 69t-71 169zM-403 1686q0 -55 39.5 -95.5t97.5 -40.5q53 0 94 40t41 96q0 57 -41 97t-94 40q-57 0 -97 -40t-40 -97zM76 922q2 131 104.5 231t261.5 100 q180 0 276.5 -88t96.5 -231v-934h-113v936q0 94 -70.5 155.5t-193.5 61.5q-109 0 -175 -73.5t-73 -157.5h-114z" />
<glyph unicode="&#xe34;" d="M-1081 1536q4 162 135 262q119 92 284 92q424 0 506 -465q-360 129 -678 129q-112 0 -247 -18zM-952 1632q66 10 147 10q301 0 526 -98q-137 254 -378 254q-219 0 -295 -166z" />
<glyph unicode="&#xe35;" d="M-1081 1536q4 162 135 262q119 92 284 92q252 0 383 -166v304h103v-519q12 -39 20 -84q-360 129 -678 129q-112 0 -247 -18zM-952 1632q66 10 147 10q301 0 526 -98q-137 254 -378 254q-219 0 -295 -166z" />
<glyph unicode="&#xe36;" d="M-1081 1536q4 162 135 262q119 92 284 92q170 0 291 -82q-8 25 -8 50q0 63 45 108t109 45q61 0 107 -45t46 -108q0 -61 -46 -107.5t-107 -46.5q-16 0 -41 6q78 -109 110 -285q-360 129 -678 129q-112 0 -247 -18zM-952 1632q66 10 147 10q301 0 526 -98 q-137 254 -378 254q-219 0 -295 -166zM-307 1858q0 -35 23.5 -57.5t58.5 -22.5t58.5 22.5t23.5 57.5t-23.5 58t-58.5 23t-58.5 -23t-23.5 -58z" />
<glyph unicode="&#xe37;" d="M-1081 1536q4 162 135 262q119 92 284 92q72 0 132 -14v152h104v-189q88 -41 147 -115v304h103v-519q12 -39 20 -84q-360 129 -678 129q-112 0 -247 -18zM-952 1632q66 10 147 10q301 0 526 -98q-137 254 -378 254q-219 0 -295 -166z" />
<glyph unicode="&#xe38;" d="M-508 -317q0 70 49 118.5t117 48.5q70 0 118 -49t48 -118v-410h-109v254q-25 -10 -57 -10q-68 0 -117 49t-49 117zM-424 -313q0 -35 23.5 -58.5t58.5 -23.5t58.5 23.5t23.5 58.5t-23.5 58.5t-58.5 23.5t-58.5 -23.5t-23.5 -58.5z" />
<glyph unicode="&#xe39;" d="M-838 -317q0 70 49.5 118.5t118.5 48.5q68 0 117 -49t49 -118v-281q0 -72 109 -72q106 0 106 72v434h113v-409q0 -195 -225 -195q-213 0 -213 188v107q-25 -10 -56 -10q-70 0 -119 49t-49 117zM-752 -313q0 -35 23.5 -58.5t58.5 -23.5q33 0 56.5 23.5t23.5 58.5 t-23.5 58.5t-56.5 23.5q-35 0 -58.5 -23.5t-23.5 -58.5z" />
<glyph unicode="&#xe3a;" d="M-317 -217q0 35 25.5 58.5t60.5 23.5t58 -23.5t23 -58.5q0 -33 -23.5 -58.5t-57.5 -25.5q-35 0 -60.5 25.5t-25.5 58.5z" />
<glyph unicode="&#xe3f;" horiz-adv-x="1286" d="M236 96v1286q174 41 284 41h23v215h102v-221q352 -47 352 -334q0 -209 -200 -297q96 -35 168 -112q86 -94 86 -217q0 -328 -406 -379v-262h-102v254h-51q-115 -1 -256 26zM354 184q59 -14 162 -14q170 0 283 61q137 76 137 224q0 141 -119 215q-106 63 -278 63h-185v-549 zM354 838h219q143 0 225.5 69.5t82.5 173.5q0 129 -119 191q-98 51 -242 51q-63 0 -166 -23v-462z" />
<glyph unicode="&#xe40;" horiz-adv-x="634" d="M166 195v1058h113v-874q45 25 100 24q88 0 149.5 -60t61.5 -148t-61.5 -150.5t-149.5 -62.5q-96 0 -160 67q-53 62 -53 146zM272 195q0 -45 32 -76t75 -31q45 0 75.5 31t30.5 76q0 43 -30.5 74.5t-75.5 31.5q-43 0 -75 -31.5t-32 -74.5z" />
<glyph unicode="&#xe41;" horiz-adv-x="1179" d="M166 195v1058h113v-874q45 25 100 24q88 0 149.5 -60t61.5 -148t-61.5 -150.5t-149.5 -62.5q-96 0 -160 67q-53 62 -53 146zM272 195q0 -45 32 -76t75 -31q45 0 75.5 31t30.5 76q0 43 -30.5 74.5t-75.5 31.5q-43 0 -75 -31.5t-32 -74.5zM709 195v1058h112v-874 q43 25 101 24q88 0 148 -60t60 -148t-60 -150.5t-148 -62.5q-98 0 -160 67q-53 62 -53 146zM815 195q0 -45 31 -76t76 -31q43 0 74.5 31t31.5 76q0 43 -31.5 74.5t-74.5 31.5q-45 0 -76 -31.5t-31 -74.5z" />
<glyph unicode="&#xe42;" horiz-adv-x="741" d="M-123 1745q16 295 289 295q51 0 163.5 -48t149.5 -48q57 0 70 77l94 -24q-45 -158 -147 -158q-51 0 -168 52.5t-172 52.5q-137 0 -146 -117q373 -111 373 -348v-1106q43 25 100 24q86 0 149.5 -60.5t63.5 -148.5t-63.5 -150.5t-149.5 -62.5q-100 0 -159 68 q-53 59 -54 145v1303q0 88 -135 170t-258 84zM379 188q0 -45 29.5 -75.5t74.5 -30.5q43 0 76 30.5t33 75.5q0 43 -33 75t-76 32q-41 0 -72.5 -32t-31.5 -75z" />
<glyph unicode="&#xe43;" horiz-adv-x="757" d="M-131 1755q0 129 90 216t244 87q115 0 204 -70.5t89 -179.5q0 -66 -49.5 -182.5t-49.5 -177.5v-1075q45 25 105 24q84 0 146.5 -60.5t62.5 -148.5t-62.5 -150.5t-146.5 -62.5q-100 0 -164 68q-53 59 -53 145v1282q0 53 28 121q66 160 66 199q0 78 -53.5 128t-130.5 50 q-117 0 -179 -72q84 12 140.5 -38t56.5 -132q0 -72 -50 -122t-120 -50q-68 0 -121 50.5t-53 150.5zM-47 1726q0 -35 23.5 -61.5t64.5 -26.5t64.5 27t23.5 61q0 35 -23.5 62t-64.5 27t-64.5 -27t-23.5 -62zM395 188q0 -45 30 -75.5t73 -30.5q45 0 77.5 30.5t32.5 75.5 q0 43 -32.5 75t-77.5 32q-41 0 -72 -32t-31 -75z" />
<glyph unicode="&#xe44;" horiz-adv-x="763" d="M-111 2083h99q49 -272 59 -410l256 379q41 -2 70.5 -37t29.5 -71v-1571q45 25 105 24q84 0 146.5 -60.5t62.5 -148.5t-62.5 -150.5t-146.5 -62.5q-100 0 -164 68q-53 59 -53 145v1696l-225 -328l-103 39q-17 209 -74 488zM397 188q0 -45 32 -75.5t75 -30.5 q45 0 75.5 30.5t30.5 75.5q0 43 -30.5 75t-75.5 32q-43 0 -75 -32t-32 -75z" />
<glyph unicode="&#xe45;" horiz-adv-x="641" d="M-272 922q2 131 104 231t262 100q182 0 277.5 -88t95.5 -231v-1561h-113v1563q0 94 -70.5 155.5t-193.5 61.5q-109 0 -174.5 -73.5t-71.5 -157.5h-116z" />
<glyph unicode="&#xe46;" horiz-adv-x="1249" d="M190 893q-8 311 289 401l154 -104l143 104q270 -104 271 -354v-1472h-117v1472q0 160 -144 248l-147 -113l-172 115q-131 -55 -150 -232q45 31 97 31q82 0 138 -56t56 -136q0 -82 -56 -137.5t-138 -55.5q-96 0 -158 73t-66 216zM324 797q0 -41 24.5 -66.5t65.5 -25.5 t67.5 25.5t26.5 66.5t-26.5 67.5t-67.5 26.5t-65.5 -26.5t-24.5 -67.5z" />
<glyph unicode="&#xe47;" d="M-915 1686q0 244 266 243h207q154 0 163 228h107q0 -135 -68.5 -226.5t-203.5 -91.5h-218q-150 0 -149 -143q0 -70 35 -123q78 88 160 100q53 -47 153 -112q-4 25 -4 41q0 61 42 104t106 43q63 0 106 -44t43 -103q0 -70 -48 -114t-112 -44q-131 0 -301 135 q-84 -29 -160 -137q-124 78 -124 244zM-389 1602q0 -29 20.5 -49.5t49.5 -20.5t49 20.5t20 49.5t-20.5 48t-48.5 19q-29 0 -49.5 -19t-20.5 -48z" />
<glyph unicode="&#xe48;" d="M-279 2130v348h103v-348h-103z" />
<glyph unicode="&#xe49;" d="M-584 2460q0 66 47.5 112.5t112.5 46.5q63 0 107.5 -44t50.5 -115q0 -156 -142 -256q373 31 424 385h115q-43 -270 -231 -379q-150 -88 -416 -88h-57v59q102 43 147 123q-63 0 -110.5 45t-47.5 111zM-502 2460q0 -31 22.5 -51.5t53.5 -20.5t51.5 20.5t20.5 51.5t-20.5 53 t-51.5 22t-53.5 -22t-22.5 -53z" />
<glyph unicode="&#xe4a;" d="M-702 2316q0 115 73.5 204t173.5 89l76 -92l70 92q92 -2 147.5 -63.5t55.5 -155.5q0 -113 -70 -184q74 6 133 90q78 109 78 287h100q-10 -467 -452 -467v67q127 63 127 201q0 106 -105 139l-88 -98l-88 98q-31 -4 -74 -35q-35 -25 -47 -65q14 6 28.5 9t31.5 3 q66 0 110.5 -47t44.5 -113t-45 -111.5t-110 -45.5q-82 0 -126 53t-44 145zM-608 2271q0 -31 22.5 -51t53.5 -20t51 20.5t20 50.5q0 33 -20.5 54.5t-50.5 21.5q-31 0 -53.5 -21.5t-22.5 -54.5z" />
<glyph unicode="&#xe4b;" d="M-442 2253v88h166v135h98v-135h166v-88h-166v-123h-98v123h-166z" />
<glyph unicode="&#xe4c;" d="M-557 2134q0 207 213 266l137 41q76 25 76 88h96q-8 -100 -100 -145q-49 -27 -141 -47q-86 -14 -109 -41q66 -6 110 -51t44 -111q0 -70 -47.5 -115t-112.5 -45q-70 0 -118 45t-48 115zM-471 2130q0 -31 23.5 -55.5t58.5 -24.5q33 0 56.5 24.5t23.5 55.5q0 33 -23.5 57.5 t-56.5 24.5q-35 0 -58.5 -24.5t-23.5 -57.5z" />
<glyph unicode="&#xe4d;" d="M-508 1686q0 100 70.5 170.5t171.5 70.5q100 0 168.5 -70.5t68.5 -170.5t-68.5 -169t-168.5 -69t-171 69t-71 169zM-403 1686q0 -55 39.5 -95.5t97.5 -40.5q53 0 94 40t41 96q0 57 -41 97t-94 40q-57 0 -97 -40t-40 -97z" />
<glyph unicode="&#xe4e;" d="M-621 1616q0 80 62.5 133t142.5 53q-63 41 -63 119q0 182 241 182q84 0 142 -22l-29 -78q-53 14 -117 14q-143 0 -143 -96q0 -104 156 -123l-27 -72q-39 12 -76 13q-88 0 -143 -39t-55 -86q0 -84 141 -84q41 0 100 24l4 -77q-59 -27 -145 -27q-78 0 -134.5 46t-56.5 120z " />
<glyph unicode="&#xe4f;" horiz-adv-x="1409" d="M176 510q0 219 153.5 374.5t375.5 155.5q217 0 373.5 -156.5t156.5 -373.5q0 -221 -155.5 -374.5t-374.5 -153.5q-221 0 -375 153.5t-154 374.5zM285 510q0 -178 120.5 -300t299.5 -122q176 0 297.5 124t121.5 298q0 176 -121.5 298t-297.5 122q-174 0 -297 -122 t-123 -298zM395 510q0 129 91.5 220t218.5 91q129 0 220 -91t91 -220q0 -127 -91 -220t-220 -93q-127 0 -218.5 93t-91.5 220zM504 510q0 -84 58.5 -142.5t142.5 -58.5q86 0 143 58.5t57 142.5q0 82 -57 141.5t-143 59.5q-84 0 -142.5 -59.5t-58.5 -141.5z" />
<glyph unicode="&#xe50;" horiz-adv-x="1404" d="M119 451q0 201 158.5 337t424.5 136t426 -136.5t160 -336.5q0 -201 -159.5 -337.5t-426.5 -136.5q-266 0 -424.5 136.5t-158.5 337.5zM236 451q0 -160 126.5 -266.5t335.5 -106.5q211 0 338 106.5t127 266.5t-127 268t-338 108q-209 0 -335.5 -108t-126.5 -268z" />
<glyph unicode="&#xe51;" horiz-adv-x="1404" d="M113 420q0 236 164.5 369t392.5 133q301 0 462.5 -153t161.5 -380q0 -287 -153 -448h-137q178 147 178 426q0 201 -132 328.5t-376 127.5q-184 0 -316.5 -112.5t-132.5 -294.5q0 -150 88 -245t226 -95q178 0 254 162q-55 -25 -107 -25q-90 0 -149.5 58.5t-59.5 144.5 q0 92 65.5 151.5t149.5 59.5q106 0 166 -72t60 -176q0 -154 -91 -268q-106 -135 -317 -136q-180 0 -293 138q-104 125 -104 307zM569 416q0 -53 34 -86t87 -33t87 32.5t34 86.5q0 55 -34 89t-87 34t-87 -34t-34 -89z" />
<glyph unicode="&#xe52;" horiz-adv-x="1404" d="M49 1331v111q193 -16 193 -205v-817q0 -354 501 -354q446 0 447 376q0 190 -43 295q-37 84 -90 84q-68 0 -110 -53t-48 -129h-72q-25 184 -157 184q-150 0 -172 -149q23 12 80 12q78 0 135 -58.5t57 -135.5q0 -78 -59.5 -136.5t-132.5 -58.5q-92 0 -151.5 72.5 t-59.5 197.5q0 150 76.5 252.5t220.5 102.5q141 0 200 -152q51 152 183 152q111 0 178 -111q76 -121 75 -354q0 -494 -561 -494q-608 0 -608 473v801q0 92 -82 94zM473 492q0 -41 32 -72t73 -31q43 0 72.5 31t29.5 72q0 45 -29.5 74.5t-72.5 29.5q-41 0 -73 -29.5t-32 -74.5 z" />
<glyph unicode="&#xe53;" horiz-adv-x="1404" d="M106 420q0 502 367 502q213 0 295 -199q72 199 244 199q131 0 209.5 -86t78.5 -238v-598h-110v590q0 106 -48 171.5t-130 65.5q-72 0 -128.5 -78.5t-56.5 -170.5v-578h-116v580q0 94 -78 170.5t-170 76.5q-115 0 -184 -112q-59 -100 -60 -266q0 -53 10 -107q47 66 148 66 q84 0 143.5 -62.5t59.5 -148.5q0 -84 -59.5 -143.5t-160.5 -59.5q-119 0 -186.5 118t-67.5 308zM244 201q0 -51 34.5 -85t83.5 -34q51 0 86 34t35 85q0 49 -34.5 83.5t-86.5 34.5q-49 0 -83.5 -34.5t-34.5 -83.5z" />
<glyph unicode="&#xe54;" horiz-adv-x="1404" d="M90 430q0 238 162 368t432 130q299 0 403 47q201 94 242 321h107q-72 -328 -318 -426q-119 -47 -438 -47q-463 0 -463 -403q0 -164 81 -257t222 -93q182 0 344 47q-379 100 -372 350q4 88 64 142.5t146 54.5q90 0 148.5 -57.5t58.5 -149.5q0 -66 -44 -125.5t-109 -71.5 q82 -57 237 -90q82 -20 189.5 -50t173.5 -63l-56 -92q-170 76 -278 76q-72 0 -223 -31q-160 -33 -279 -35q-197 -6 -313.5 118t-116.5 337zM586 457q0 -49 34.5 -84t81.5 -35t81 36t34 83q0 51 -32.5 86t-82.5 35q-51 0 -83.5 -37t-32.5 -84z" />
<glyph unicode="&#xe55;" horiz-adv-x="1404" d="M90 430q0 238 162 368t438 130q-123 53 -123 184q0 84 59.5 144.5t141.5 60.5q84 0 143.5 -60.5t59.5 -144.5q0 -129 -119 -182q166 14 235 45q201 94 242 321h107q-72 -328 -318 -426q-119 -47 -438 -47q-463 0 -463 -403q0 -164 81 -257t222 -93q182 0 344 47 q-379 100 -372 350q4 88 64 142.5t146 54.5q90 0 148.5 -57.5t58.5 -149.5q0 -66 -44 -125.5t-109 -71.5q82 -57 237 -90q82 -20 189.5 -50t173.5 -63l-56 -92q-170 76 -278 76q-72 0 -223 -31q-160 -33 -279 -35q-197 -6 -313.5 118t-116.5 337zM586 457q0 -49 34.5 -84 t81.5 -35t81 36t34 83q0 51 -32.5 86t-82.5 35q-51 0 -83.5 -37t-32.5 -84zM662 1112q0 -41 32.5 -73.5t73.5 -32.5q43 0 76 31.5t33 74.5q0 45 -33 78t-76 33q-45 0 -75.5 -33t-30.5 -78z" />
<glyph unicode="&#xe56;" horiz-adv-x="1404" d="M57 1296h133q119 -219 123 -505q166 131 404 131q287 0 440 -111q162 -119 162 -328q4 -508 -623 -508q-229 0 -351 80t-122 211q0 90 60.5 150.5t148.5 60.5q92 0 151.5 -60.5t59.5 -150.5q0 -119 -98 -178q94 -12 178 -12q240 2 360.5 96t120.5 305q0 156 -126 251 t-335 95q-336 0 -505 -233q-19 475 -181 706zM313 266q0 -53 33 -86t86 -33t88 33t35 86t-35 88t-88 35t-86 -35t-33 -88z" />
<glyph unicode="&#xe57;" horiz-adv-x="1404" d="M76 410q0 236 83 374t218 138q172 0 237 -199q47 199 220 199q266 0 266 -390q0 -209 -78 -407q188 45 188 512q0 541 39 659h117q-55 -137 -53 -503v-109q0 -446 -127 -568t-299 -122h-17q119 315 119 538q0 295 -162 295q-63 0 -108 -78.5t-45 -170.5v-148h-119v150 q0 90 -56.5 168.5t-121.5 78.5q-86 0 -139.5 -103t-53.5 -269q0 -70 11 -117q47 70 143 70q88 0 149.5 -62.5t61.5 -150.5q0 -84 -62.5 -144.5t-148.5 -60.5q-125 0 -193.5 111.5t-68.5 308.5zM223 195q0 -45 36 -81t79 -36q51 0 87 34.5t36 82.5q0 55 -38 88.5t-85 33.5 t-81 -36.5t-34 -85.5z" />
<glyph unicode="&#xe58;" horiz-adv-x="1404" d="M100 444q0 477 568 478q47 0 121.5 -6.5t113.5 -6.5q133 0 197 60q82 78 82 274v53h108v-61q0 -436 -372 -436q-55 0 -141.5 6t-133.5 6q-211 0 -317.5 -97.5t-106.5 -256.5q0 -225 76 -301q129 176 291 235q45 -84 159 -180q141 -123 242 -123q119 0 178 84 q-55 -8 -67 -8q-88 0 -149.5 60.5t-61.5 148.5t61.5 149.5t149.5 61.5q86 0 147.5 -61.5t61.5 -149.5q0 -389 -310 -389q-229 0 -440 270q-41 -18 -133 -124.5t-105 -158.5q-219 111 -219 473zM981 373q0 -47 35 -82t82 -35q45 0 79.5 35t34.5 82t-34.5 81.5t-79.5 34.5 q-47 0 -82 -34.5t-35 -81.5z" />
<glyph unicode="&#xe59;" horiz-adv-x="1404" d="M82 451q0 207 118.5 340t291.5 133q178 0 290 -156q14 154 123 154q29 0 109 -49.5t114 -49.5q100 0 101 181q0 168 -25 292h92q27 -160 27 -284q0 -289 -170 -289q-35 0 -130 50t-105 50q-47 0 -62 -114q20 -125 131 -301q143 -213 320 -359l-60 -84q-141 111 -307 352 q-131 186 -190 340q-23 57 -94.5 111.5t-159.5 58.5q-111 0 -206 -112.5t-95 -278.5q23 -233 159 -319q-12 33 -12 78q0 84 59.5 145t143.5 61q86 0 146.5 -61t60.5 -145t-60.5 -144.5t-146.5 -60.5q-225 -2 -344 125t-119 336zM430 195q0 -47 34 -82t81 -35t82 34.5 t35 82.5q0 47 -35 80.5t-82 33.5t-81 -33.5t-34 -80.5z" />
<glyph unicode="&#xe5a;" horiz-adv-x="1634" d="M170 1053q0 82 59.5 141t141.5 59q80 0 139 -59t59 -141q0 -70 -43 -123q172 59 217 299h113q186 0 186 -195v-47q86 82 117 242h113q188 0 188 -195v-1034h-112v1024q0 98 -99 104q-68 -207 -207 -276v-852h-112v1024q0 98 -96 104q-111 -307 -363 -307q-147 0 -224 65 t-77 167zM276 1057q0 -41 25 -66.5t66 -25.5t67.5 25.5t26.5 66.5t-26.5 67.5t-67.5 26.5t-66 -26.5t-25 -67.5z" />
<glyph unicode="&#xe5b;" horiz-adv-x="2183" d="M242 573q0 236 97 364t271 128q141 0 223 -86t82 -236q0 -135 -53 -227q-66 -113 -192 -113q-68 0 -118 52.5t-50 122.5q0 72 48 122t120 50q82 0 135 -64v6q6 31 6 76q0 201 -190 201q-129 0 -198 -109.5t-69 -302.5q0 -172 86 -275.5t222 -103.5q184 0 282 135.5 t98 382.5q0 96 -8 148q176 -35 236 -334q27 92 26 176q0 59 -24 152q131 -39 229 -275q16 80 17 117q0 29 -17 117q135 -39 201 -265q31 41 31 111q0 37 -9 84q14 -4 134 -88q106 -78 223 -78h16q-63 -35 -129 -35q-104 0 -182 78q-18 -150 -88 -172q-29 0 -62 105 q-45 131 -65 153q0 -289 -86 -289q-18 0 -53 113q-37 125 -66 160q-18 -307 -119 -307q-18 0 -53 122q-43 156 -66 185q0 -598 -466 -598q-195 0 -307.5 134t-112.5 363zM461 1004q0 -23 18 -23t19 16h-6q0 -14 -13 -14q-12 0 -12 21q0 18 12 18q10 0 13 -12h6q-6 14 -19 14 q-18 0 -18 -20zM504 981h6v23h22v-23h7v43h-7v-18h-22v18h-6v-43zM549 981h29v6h-23v37h-6v-43zM584 578q0 -35 26.5 -62t59.5 -27q35 0 61.5 27t26.5 62q0 33 -26.5 59.5t-61.5 26.5q-33 0 -59.5 -26.5t-26.5 -59.5zM584 981h6v18h8q16 0 16 13q0 12 -16 12h-14v-43z M590 1004v18h8q10 0 10 -10q0 -8 -10 -8h-8zM637 997q0 -16 14 -16q16 0 17 12q-10 10 -25 19q0 10 8 10q6 -6 6 -10h7q0 12 -13 12q-14 0 -14 -12q8 -8 25 -19q0 -10 -11 -10q-8 0 -8 14h-6zM674 981h6v18h10q14 0 15 13q0 12 -15 12h-16v-43zM680 1004v18h10q8 0 8 -10 q0 -8 -8 -8h-10zM715 981h6v16l6 7l10 -23h8l-16 25l16 18h-8l-16 -20v20h-6v-43z" />
<glyph unicode="&#x2000;" horiz-adv-x="1308" />
<glyph unicode="&#x2001;" horiz-adv-x="2619" />
<glyph unicode="&#x2002;" horiz-adv-x="1308" />
<glyph unicode="&#x2003;" horiz-adv-x="2619" />
<glyph unicode="&#x2004;" horiz-adv-x="872" />
<glyph unicode="&#x2005;" horiz-adv-x="653" />
<glyph unicode="&#x2006;" horiz-adv-x="436" />
<glyph unicode="&#x2007;" horiz-adv-x="436" />
<glyph unicode="&#x2008;" horiz-adv-x="325" />
<glyph unicode="&#x2009;" horiz-adv-x="522" />
<glyph unicode="&#x200a;" horiz-adv-x="145" />
<glyph unicode="&#x200c;" d="M-43 -483v1683h90v-1683h-90z" />
<glyph unicode="&#x200d;" d="M-160 911l117 117l-117 123l58 49l102 -117l106 117l58 -49l-117 -123l117 -117l-58 -53l-59 64v-1405h-90v1405l-63 -64z" />
<glyph unicode="&#x200e;" d="M-43 -483v1573h393l-53 57l51 49l162 -162l-162 -164l-51 54l53 57h-303v-1464h-90z" />
<glyph unicode="&#x200f;" d="M-508 1034l164 162q6 -8 21.5 -23.5t27.5 -25.5l-53 -57h395v-1573h-90v1464h-305l53 -57l-49 -54z" />
<glyph unicode="&#x2010;" horiz-adv-x="675" d="M63 516v105h547v-105h-547z" />
<glyph unicode="&#x2011;" horiz-adv-x="675" d="M63 516v105h547v-105h-547z" />
<glyph unicode="&#x2012;" horiz-adv-x="675" d="M63 516v105h547v-105h-547z" />
<glyph unicode="&#x2013;" horiz-adv-x="1126" d="M66 516v105h993v-105h-993z" />
<glyph unicode="&#x2014;" horiz-adv-x="2254" d="M70 516v105h2107v-105h-2107z" />
<glyph unicode="&#x2018;" horiz-adv-x="772" d="M229 1169q0 186 121 332q70 82 129 113l47 -53q-176 -113 -188 -283q18 4 16 4q43 0 78 -35t35 -78q0 -51 -35 -86.5t-82 -35.5q-49 0 -85 35.5t-36 86.5z" />
<glyph unicode="&#x2019;" horiz-adv-x="772" d="M229 1063q174 113 187 280q-18 -2 -15 -2q-45 0 -78.5 34t-33.5 79q0 49 33.5 86t80.5 37q53 0 88 -35t35 -88q0 -188 -118 -332q-72 -82 -132 -112z" />
<glyph unicode="&#x201a;" horiz-adv-x="772" d="M229 -295q174 113 187 283q-12 -4 -21 -4q-53 0 -79.5 34.5t-26.5 77.5q0 51 33.5 87t80.5 36q53 0 88 -34.5t35 -88.5q0 -186 -118 -332q-72 -82 -132 -112z" />
<glyph unicode="&#x201c;" horiz-adv-x="1159" d="M244 1169q0 186 123 332q70 82 129 113l47 -53q-176 -113 -189 -283q18 4 17 4q43 0 77.5 -35t34.5 -78q0 -51 -34.5 -86.5t-81.5 -35.5q-49 0 -86 35.5t-37 86.5zM608 1169q0 186 121 332q70 82 129 113l47 -53q-176 -113 -188 -283q20 4 16 4q43 0 78 -35t35 -78 q0 -51 -35 -86.5t-82 -35.5q-49 0 -85 35.5t-36 86.5z" />
<glyph unicode="&#x201d;" horiz-adv-x="1159" d="M244 1063q176 113 188 280q-18 -2 -16 -2q-43 0 -78 34t-35 79q0 49 35 86t82 37q53 0 88 -35t35 -88q0 -188 -119 -332q-74 -82 -133 -112zM608 1063q174 113 189 280q-20 -2 -17 -2q-43 0 -77.5 34t-34.5 79q0 49 34.5 86t79.5 37q55 0 89 -35t34 -88q0 -188 -119 -332 q-72 -82 -131 -112z" />
<glyph unicode="&#x201e;" horiz-adv-x="1159" d="M244 -295q176 113 188 283q-12 -4 -22 -4q-53 0 -80 34.5t-27 77.5q0 51 35 87t82 36q53 0 88 -34.5t35 -88.5q0 -186 -119 -332q-74 -82 -133 -112zM608 -295q174 113 189 283q-14 -4 -23 -4q-53 0 -79.5 34.5t-26.5 77.5q0 51 34.5 87t79.5 36q55 0 89 -34.5t34 -88.5 q0 -186 -119 -332q-72 -82 -131 -112z" />
<glyph unicode="&#x2020;" horiz-adv-x="1171" d="M123 905v105l407 -13v488h113v-488l408 13v-105l-408 13v-1024h-113v1024z" />
<glyph unicode="&#x2021;" horiz-adv-x="1171" d="M123 350v105l407 -13v476l-407 -13v105l407 -13v488h113v-488l408 13v-105l-408 13v-476l408 13v-105l-408 12v-468h-113v468z" />
<glyph unicode="&#x2022;" horiz-adv-x="675" d="M76 627q0 111 74.5 187.5t187.5 76.5q111 0 187.5 -79t76.5 -185q0 -111 -76.5 -188t-187.5 -77q-109 0 -185.5 77t-76.5 188z" />
<glyph unicode="&#x2026;" horiz-adv-x="1499" d="M143 88q0 43 32 76t75 33q45 0 77.5 -33t32.5 -76q0 -45 -32.5 -75.5t-77.5 -30.5q-43 0 -75 30.5t-32 75.5zM645 88q0 43 32 76t75 33q45 0 77.5 -33t32.5 -76q0 -45 -32.5 -75.5t-77.5 -30.5q-43 0 -75 30.5t-32 75.5zM1143 88q0 43 31.5 76t74.5 33q45 0 78 -33 t33 -76q0 -45 -33 -75.5t-78 -30.5q-43 0 -74.5 30.5t-31.5 75.5z" />
<glyph unicode="&#x202f;" horiz-adv-x="522" />
<glyph unicode="&#x2030;" horiz-adv-x="2596" d="M106 1047q0 444 336 444q334 0 334 -444t-334 -445q-336 1 -336 445zM219 1047q0 -344 223 -345q221 0 222 345q0 344 -222 344q-223 0 -223 -344zM389 -29l907 1520h107l-907 -1520h-107zM1040 436q0 444 336 445q334 0 334 -445q0 -446 -334 -446q-336 0 -336 446z M1153 436q0 -346 223 -346q221 0 221 346q0 344 -221 344q-223 0 -223 -344zM1817 436q0 444 335 445q336 0 336 -445q0 -446 -336 -446q-335 0 -335 446zM1929 436q0 -346 223 -346t224 346q0 344 -224 344q-223 0 -223 -344z" />
<glyph unicode="&#x2032;" horiz-adv-x="391" d="M47 1163l119 328h172l-207 -328h-84z" />
<glyph unicode="&#x2033;" horiz-adv-x="669" d="M47 1163l119 328h172l-207 -328h-84zM326 1163l118 328h172l-206 -328h-84z" />
<glyph unicode="&#x2039;" horiz-adv-x="571" d="M35 555l344 414h131l-344 -414l348 -405h-131z" />
<glyph unicode="&#x203a;" horiz-adv-x="571" d="M59 150l349 405l-345 414h132l344 -414l-349 -405h-131z" />
<glyph unicode="&#x2044;" horiz-adv-x="505" d="M-113 0l621 1491h113l-621 -1491h-113z" />
<glyph unicode="&#x205f;" horiz-adv-x="653" />
<glyph unicode="&#x20a3;" horiz-adv-x="1126" d="M-41 295v96h229v1100h842v-102h-721v-568h674v-104h-674v-326h420v-96h-420v-295h-121v295h-229z" />
<glyph unicode="&#x20ab;" horiz-adv-x="1255" d="M72 -242h1104v-96h-1104v96zM88 545q0 236 128 389t351 153q270 0 404 -225v473h-408v103h408v145h123v-145h149v-103h-149v-1075q0 -178 10 -260h-115q-6 82 -6 188q-143 -217 -397 -217q-229 0 -363.5 159t-134.5 415zM207 543q0 -467 395 -467q156 0 262.5 100 t106.5 250v178q0 172 -116 278.5t-265 106.5q-182 0 -282.5 -124.5t-100.5 -321.5z" />
<glyph unicode="&#x20ac;" horiz-adv-x="1271" d="M0 471v98h88q-16 94 -16 181q0 72 10 137h-82v100h102q68 238 251.5 382t426.5 144q242 0 408 -77l-37 -101q-170 72 -365 72q-188 0 -339.5 -112.5t-215.5 -307.5h787v-100h-811q-10 -66 -10 -142q0 -94 20 -176h801v-98h-774q70 -180 218 -283.5t324 -103.5 q195 0 365 72l37 -99q-166 -80 -408 -80q-236 0 -414 133.5t-249 360.5h-117z" />
<glyph unicode="&#x2113;" horiz-adv-x="653" d="M70 639l153 106v396q0 262 162 262q88 0 133 -63.5t45 -174.5q0 -172 -60.5 -292.5t-172.5 -192.5v-473q0 -100 61 -101q57 0 170 78v-114q-63 -35 -117.5 -57.5t-87.5 -22.5q-133 0 -133 221v405l-98 -65zM330 809q72 66 102.5 148.5t30.5 185.5q0 70 -13.5 117 t-58.5 47q-61 0 -61 -166v-332z" />
<glyph unicode="&#x2122;" horiz-adv-x="1581" d="M43 1454v88h641v-88h-274v-696h-93v696h-274zM702 758l54 784h102l258 -661l256 661h105l53 -784h-98l-37 620l-244 -620h-70l-243 620l-39 -620h-97z" />
<glyph unicode="&#x2126;" horiz-adv-x="1419" d="M111 0v102h362v187q-125 49 -225.5 198.5t-100.5 335.5q0 276 154 427t408 151t407.5 -150.5t153.5 -427.5q0 -186 -100.5 -335.5t-225.5 -198.5v-187h363v-102h-478v360q317 150 318 474q0 203 -124 331.5t-314 128.5q-193 0 -316 -129t-123 -331q0 -324 316 -474v-360 h-475z" />
<glyph unicode="&#x212e;" horiz-adv-x="978" d="M96 627q0 285 117 431t285 146q188 0 283.5 -155.5t101.5 -440.5h-660q6 -276 75 -401t200 -125q94 0 161.5 62.5t90.5 179.5h114q-74 -346 -366 -347q-197 0 -299.5 162t-102.5 488zM225 698h545q-14 199 -84 300.5t-188 101.5q-125 0 -191 -101.5t-82 -300.5z" />
<glyph unicode="&#x2153;" horiz-adv-x="1679" d="M94 1260l223 196q66 -6 66 -86v-713h133v-73h-381v73h137v631l-118 -104zM354 -29l889 1493h105l-891 -1493h-103zM1042 59l48 101q74 -59 167 -60q115 0 180.5 59.5t65.5 153.5q0 137 -131 138q-88 0 -137 -43l-45 77q158 111 176 125q72 59 72 117q0 63 -103 64 q-141 0 -182 -140l-90 47q84 195 280 195q199 0 199 -164q0 -55 -44 -114.5t-97 -82.5q207 -31 207 -215q0 -145 -94.5 -231t-247.5 -90q-138 -3 -224 63z" />
<glyph unicode="&#x2154;" horiz-adv-x="1679" d="M49 584q8 127 217 327q84 78 164 163t80 169q0 135 -133 135q-152 0 -166 -172l-109 19q14 119 86 185.5t179 66.5q113 0 183.5 -61.5t70.5 -172.5q0 -127 -170 -303q-127 -131 -244 -260h424l-15 -96h-567zM354 -29l889 1493h105l-891 -1493h-103zM1042 59l48 101 q74 -59 167 -60q115 0 180.5 59.5t65.5 153.5q0 137 -131 138q-88 0 -137 -43l-45 77q158 111 176 125q72 59 72 117q0 63 -103 64q-141 0 -182 -140l-90 47q84 195 280 195q199 0 199 -164q0 -55 -44 -114.5t-97 -82.5q207 -31 207 -215q0 -145 -94.5 -231t-247.5 -90 q-138 -3 -224 63z" />
<glyph unicode="&#x2155;" horiz-adv-x="1679" d="M94 1260l223 196q66 -6 66 -86v-713h133v-73h-381v73h137v631l-118 -104zM354 -29l889 1493h105l-891 -1493h-103zM1028 66l43 77q51 -31 96 -46t99 -15q90 0 162.5 59.5t72.5 161.5q0 80 -59.5 124t-134.5 44q-70 0 -117 -63l-66 -5l29 467h430l-12 -96h-314l-16 -205 q23 8 42 9h46q125 0 202 -81t77 -190q0 -147 -97.5 -238.5t-257.5 -91.5q-141 1 -225 89z" />
<glyph unicode="&#x2156;" horiz-adv-x="1679" d="M49 584q8 127 217 327q84 78 164 163t80 169q0 135 -133 135q-152 0 -166 -172l-109 19q14 119 86 185.5t179 66.5q113 0 183.5 -61.5t70.5 -172.5q0 -127 -170 -303q-127 -131 -244 -260h424l-15 -96h-567zM354 -29l889 1493h105l-891 -1493h-103zM1028 66l43 77 q51 -31 96 -46t99 -15q90 0 162.5 59.5t72.5 161.5q0 80 -59.5 124t-134.5 44q-70 0 -117 -63l-66 -5l29 467h430l-12 -96h-314l-16 -205q23 8 42 9h46q125 0 202 -81t77 -190q0 -147 -97.5 -238.5t-257.5 -91.5q-141 1 -225 89z" />
<glyph unicode="&#x2157;" horiz-adv-x="1679" d="M111 639l45 100q74 -59 168 -59q115 0 180 59.5t65 153.5q0 137 -131 137q-88 0 -137 -43l-45 78q158 111 176 125q72 59 72 117q0 63 -103 63q-141 0 -182 -139l-90 47q84 195 281 195q199 0 198 -162q0 -57 -44 -116.5t-97 -82.5q207 -31 207 -215q0 -145 -94.5 -231 t-247.5 -88q-137 -5 -221 61zM354 -29l889 1493h105l-891 -1493h-103zM1028 66l43 77q51 -31 96 -46t99 -15q90 0 162.5 59.5t72.5 161.5q0 80 -59.5 124t-134.5 44q-70 0 -117 -63l-66 -5l29 467h430l-12 -96h-314l-16 -205q23 8 42 9h46q125 0 202 -81t77 -190 q0 -147 -97.5 -238.5t-257.5 -91.5q-141 1 -225 89z" />
<glyph unicode="&#x2158;" horiz-adv-x="1679" d="M100 809q2 209 119 428q137 266 342 272v-598h137l-6 -102h-131v-195h-110v195h-351zM217 911h234v465q-88 -76 -160 -225q-68 -140 -74 -240zM354 -29l889 1493h105l-891 -1493h-103zM1028 66l43 77q51 -31 96 -46t99 -15q90 0 162.5 59.5t72.5 161.5q0 80 -59.5 124 t-134.5 44q-70 0 -117 -63l-66 -5l29 467h430l-12 -96h-314l-16 -205q23 8 42 9h46q125 0 202 -81t77 -190q0 -147 -97.5 -238.5t-257.5 -91.5q-141 1 -225 89z" />
<glyph unicode="&#x2159;" horiz-adv-x="1679" d="M94 1260l223 196q66 -6 66 -86v-713h133v-73h-381v73h137v631l-118 -104zM319 -29l891 1493h103l-889 -1493h-105zM1018 309q0 217 141 388t359 206l2 -86q-131 -37 -238 -133q-92 -82 -131 -182q66 55 178 55q100 0 175 -73.5t75 -213.5q0 -123 -70.5 -204.5 t-189.5 -81.5q-150 0 -229 100q-72 92 -72 225zM1128 270q0 -82 48.5 -135t126.5 -53q82 0 126 53t44 135q0 84 -45.5 140.5t-124.5 56.5q-78 0 -126.5 -56.5t-48.5 -140.5z" />
<glyph unicode="&#x215a;" horiz-adv-x="1679" d="M84 655l45 78q49 -31 95 -47t100 -16q90 0 161.5 60.5t71.5 162.5q0 78 -59.5 122t-135.5 44q-68 0 -114 -62l-66 -4l29 467h428l-12 -96h-314l-16 -205q23 6 43 6h45q125 0 202 -79.5t77 -188.5q0 -147 -96.5 -238.5t-258.5 -91.5q-139 0 -225 88zM319 -29l891 1493h103 l-889 -1493h-105zM1018 309q0 217 141 388t359 206l2 -86q-131 -37 -238 -133q-92 -82 -131 -182q66 55 178 55q100 0 175 -73.5t75 -213.5q0 -123 -70.5 -204.5t-189.5 -81.5q-150 0 -229 100q-72 92 -72 225zM1128 270q0 -82 48.5 -135t126.5 -53q82 0 126 53t44 135 q0 84 -45.5 140.5t-124.5 56.5q-78 0 -126.5 -56.5t-48.5 -140.5z" />
<glyph unicode="&#x215b;" horiz-adv-x="1679" d="M94 1260l223 196q66 -6 66 -86v-713h133v-73h-381v73h137v631l-118 -104zM319 -29l891 1493h103l-889 -1493h-105zM1034 242q0 76 38 135t93 96q-55 31 -78.5 77t-23.5 99q0 102 68.5 167t181.5 65t181.5 -64.5t68.5 -167.5q0 -53 -22.5 -99t-76.5 -77q127 -72 127 -231 q0 -123 -73.5 -191.5t-204.5 -68.5q-129 0 -204 68.5t-75 191.5zM1137 236q0 -70 49 -112t127 -42q76 0 126 42t50 112q0 66 -44 120t-132 60q-88 -6 -132 -59t-44 -121zM1165 655q0 -45 39 -80.5t109 -54.5q70 16 108.5 55t38.5 80q0 47 -39 86t-108 39q-70 0 -109 -39 t-39 -86z" />
<glyph unicode="&#x215c;" horiz-adv-x="1679" d="M111 639l45 100q74 -59 168 -59q115 0 180 59.5t65 153.5q0 137 -131 137q-88 0 -137 -43l-45 78q158 111 176 125q72 59 72 117q0 63 -103 63q-141 0 -182 -139l-90 47q84 195 281 195q199 0 198 -162q0 -57 -44 -116.5t-97 -82.5q207 -31 207 -215q0 -145 -94.5 -231 t-247.5 -88q-137 -5 -221 61zM319 -29l891 1493h103l-889 -1493h-105zM1034 242q0 76 38 135t93 96q-55 31 -78.5 77t-23.5 99q0 102 68.5 167t181.5 65t181.5 -64.5t68.5 -167.5q0 -53 -22.5 -99t-76.5 -77q127 -72 127 -231q0 -123 -73.5 -191.5t-204.5 -68.5 q-129 0 -204 68.5t-75 191.5zM1137 236q0 -70 49 -112t127 -42q76 0 126 42t50 112q0 66 -44 120t-132 60q-88 -6 -132 -59t-44 -121zM1165 655q0 -45 39 -80.5t109 -54.5q70 16 108.5 55t38.5 80q0 47 -39 86t-108 39q-70 0 -109 -39t-39 -86z" />
<glyph unicode="&#x215d;" horiz-adv-x="1679" d="M84 655l45 78q49 -31 95 -47t100 -16q90 0 161.5 60.5t71.5 162.5q0 78 -59.5 122t-135.5 44q-68 0 -114 -62l-66 -4l29 467h428l-12 -96h-314l-16 -205q23 6 43 6h45q125 0 202 -79.5t77 -188.5q0 -147 -96.5 -238.5t-258.5 -91.5q-139 0 -225 88zM319 -29l891 1493h103 l-889 -1493h-105zM1034 242q0 76 38 135t93 96q-55 31 -78.5 77t-23.5 99q0 102 68.5 167t181.5 65t181.5 -64.5t68.5 -167.5q0 -53 -22.5 -99t-76.5 -77q127 -72 127 -231q0 -123 -73.5 -191.5t-204.5 -68.5q-129 0 -204 68.5t-75 191.5zM1137 236q0 -70 49 -112t127 -42 q76 0 126 42t50 112q0 66 -44 120t-132 60q-88 -6 -132 -59t-44 -121zM1165 655q0 -45 39 -80.5t109 -54.5q70 16 108.5 55t38.5 80q0 47 -39 86t-108 39q-70 0 -109 -39t-39 -86z" />
<glyph unicode="&#x215e;" horiz-adv-x="1679" d="M137 1360l47 104h549l-16 -100q-119 -164 -196 -341t-77 -443h-114q2 225 67.5 410.5t188.5 369.5h-449zM319 -29l891 1493h103l-889 -1493h-105zM1034 242q0 76 38 135t93 96q-55 31 -78.5 77t-23.5 99q0 102 68.5 167t181.5 65t181.5 -64.5t68.5 -167.5 q0 -53 -22.5 -99t-76.5 -77q127 -72 127 -231q0 -123 -73.5 -191.5t-204.5 -68.5q-129 0 -204 68.5t-75 191.5zM1137 236q0 -70 49 -112t127 -42q76 0 126 42t50 112q0 66 -44 120t-132 60q-88 -6 -132 -59t-44 -121zM1165 655q0 -45 39 -80.5t109 -54.5q70 16 108.5 55 t38.5 80q0 47 -39 86t-108 39q-70 0 -109 -39t-39 -86z" />
<glyph unicode="&#x2202;" horiz-adv-x="993" d="M88 317q0 272 201 433q172 137 422 137q41 0 63 -4q-6 418 -172 417q-139 0 -211 -217l-102 60q113 276 309 276q305 0 305 -536q0 -328 -104 -570q-143 -330 -445 -329q-113 0 -184 82q-82 89 -82 251zM223 317q0 -205 166 -204q172 0 285 260q88 201 96 401 q-20 2 -59 2q-231 0 -367 -145q-121 -134 -121 -314z" />
<glyph unicode="&#x2206;" horiz-adv-x="1484" d="M0 0l743 1479l742 -1479h-1485zM201 111h1083l-541 1085z" />
<glyph unicode="&#x220f;" horiz-adv-x="1396" d="M170 -172v1663h1059v-1663h-123v1561h-815v-1561h-121z" />
<glyph unicode="&#x2211;" horiz-adv-x="1286" d="M78 -31l624 715l-624 672v135h1118v-102h-989l614 -668v-82l-614 -709h1036v-102h-1165v141z" />
<glyph unicode="&#x2212;" horiz-adv-x="1286" d="M172 516v105h944v-105h-944z" />
<glyph unicode="&#x221a;" horiz-adv-x="1095" d="M72 721v88h245l207 -686l463 1356h111l-531 -1510h-96l-240 752h-159z" />
<glyph unicode="&#x221e;" horiz-adv-x="1935" d="M166 696q0 133 89 227.5t269 94.5q203 0 453 -281q195 281 432 281q164 0 262 -97.5t98 -263.5q0 -133 -89 -227t-267 -94q-223 0 -457 285q-188 -285 -430 -285q-164 0 -262 97t-98 263zM264 690q0 -117 68.5 -190.5t197.5 -73.5q106 0 210 83t159 183 q-215 238 -373 238q-131 0 -196.5 -72t-65.5 -168zM1036 662q217 -238 373 -238q133 0 198.5 71.5t65.5 168.5q0 117 -68.5 190.5t-197.5 73.5q-106 0 -210 -83t-161 -183z" />
<glyph unicode="&#x222b;" horiz-adv-x="757" d="M-123 -307l17 100q37 -16 110 -12q131 8 162 170l201 1280q41 279 290 278q66 0 111 -8l-23 -98q-16 4 -49 4q-94 0 -149 -39t-70 -143l-201 -1260q-47 -289 -270 -289q-76 1 -129 17z" />
<glyph unicode="&#x2248;" horiz-adv-x="1286" d="M141 236v24q0 131 74 207t176 76q119 0 262.5 -99.5t255.5 -99.5q133 0 142 199h96v-19q0 -145 -78 -223q-66 -66 -166 -65q-123 0 -262 101t-250 101q-147 0 -153 -202h-97zM141 651v25q0 133 74 207.5t176 74.5q119 0 262.5 -98t255.5 -98q133 0 142 196h96v-18 q0 -143 -78 -223q-66 -66 -166 -66q-123 0 -262 102.5t-250 102.5q-147 0 -153 -205h-97z" />
<glyph unicode="&#x2260;" horiz-adv-x="1286" d="M172 319v105h326l147 303h-473v102h524l133 281h129l-137 -281h295v-102h-346l-149 -303h495v-105h-549l-170 -348h-118l170 348h-277z" />
<glyph unicode="&#x2264;" horiz-adv-x="1286" d="M178 49v94h928v-94h-928zM244 549v147l786 373v-119l-676 -329l676 -330v-115z" />
<glyph unicode="&#x2265;" horiz-adv-x="1286" d="M178 49v94h928v-94h-928zM244 176v115l678 330l-678 329v119l786 -373v-147z" />
<glyph unicode="&#x25ca;" horiz-adv-x="1208" d="M102 621l437 626h131l436 -626l-436 -621h-131zM207 621l397 -572l400 572l-400 569z" />
<glyph unicode="&#x25cc;" horiz-adv-x="1253" d="M53 643q0 25 15.5 42t42.5 17q25 0 42 -17t17 -42q0 -27 -17.5 -42t-41.5 -15q-27 0 -42.5 15t-15.5 42zM94 449q0 25 15.5 40t40.5 15q27 0 44 -15.5t17 -39.5q0 -25 -17.5 -42.5t-43.5 -17.5q-25 0 -40.5 17.5t-15.5 42.5zM94 834q0 25 15.5 42t40.5 17q27 0 44 -17.5 t17 -41.5q0 -25 -17.5 -41.5t-43.5 -16.5q-25 0 -40.5 16.5t-15.5 41.5zM203 276q0 25 16.5 40.5t40.5 15.5q25 0 42 -15.5t17 -40.5q0 -27 -17 -43t-42 -16t-41 16t-16 43zM203 1006q0 25 16.5 42t40.5 17q25 0 42 -17.5t17 -41.5q0 -25 -17 -40.5t-42 -15.5t-41 15.5 t-16 40.5zM371 166q0 25 15 41t40 16t42 -16.5t17 -40.5q0 -25 -17 -42.5t-42 -17.5t-40 17.5t-15 42.5zM371 1116q0 25 15 42.5t40 17.5t42 -17.5t17 -42.5q0 -27 -17 -42t-42 -15t-40 15t-15 42zM563 129q0 25 17.5 42t42.5 17q27 0 44 -17t17 -42q0 -27 -17.5 -43 t-43.5 -16q-25 0 -42.5 16t-17.5 43zM563 1153q0 25 17.5 42t42.5 17q27 0 44 -17t17 -42t-17.5 -42t-43.5 -17q-25 0 -42.5 17t-17.5 42zM762 1116q0 25 17.5 42.5t41.5 17.5q25 0 40.5 -17.5t15.5 -42.5q0 -27 -15.5 -42t-40.5 -15t-42 15t-17 42zM764 166q0 25 17.5 41 t41.5 16q27 0 42.5 -16.5t15.5 -40.5q0 -25 -15.5 -42.5t-42.5 -17.5q-25 0 -42 17.5t-17 42.5zM928 1006q0 25 17.5 42t41.5 17q25 0 40 -17.5t15 -41.5q0 -25 -15 -40.5t-40 -15.5t-42 15.5t-17 40.5zM930 276q0 25 17.5 40.5t41.5 15.5q27 0 42.5 -15.5t15.5 -40.5 q0 -27 -15.5 -43t-42.5 -16q-25 0 -42 16t-17 43zM1036 834q0 25 17.5 42t44.5 17q25 0 40 -17.5t15 -41.5q0 -25 -15.5 -41.5t-39.5 -16.5q-27 0 -44.5 16.5t-17.5 41.5zM1040 449q0 25 17.5 40t42.5 15t41 -15.5t16 -39.5q0 -25 -16.5 -42.5t-40.5 -17.5q-25 0 -42.5 17.5 t-17.5 42.5zM1081 643q0 25 15.5 42t40.5 17q27 0 43 -17t16 -42q0 -27 -16.5 -42t-42.5 -15q-25 0 -40.5 15t-15.5 42z" />
<glyph unicode="&#x25fc;" horiz-adv-x="1065" d="M0 0v1065h1065v-1065h-1065z" />
<glyph unicode="&#xe000;" horiz-adv-x="1065" d="M0 0v1065h1065v-1065h-1065z" />
<glyph unicode="&#xf700;" horiz-adv-x="1052" d="M82 918q8 145 108.5 240t266.5 95q68 0 178 -34.5t170 -34.5q76 0 92 69l96 -22q-49 -162 -182 -162q-68 0 -188.5 37t-184.5 37q-72 0 -139.5 -42t-73.5 -97q313 -63 445 -113q217 -80 217 -189v-454q0 -276 -250 -277q-248 0 -248 277v160q-35 -12 -80 -13 q-78 0 -131 51.5t-53 131.5t53 135t131 55q82 0 137.5 -49t55.5 -135v-346q0 -162 135 -162q137 0 137 162v454q0 76 -303 152q-182 47 -389 74zM229 580q0 -35 23.5 -58.5t56.5 -23.5q35 0 60.5 23.5t25.5 58.5t-25.5 59.5t-60.5 24.5q-33 0 -56.5 -24.5t-23.5 -59.5z" />
<glyph unicode="&#xf701;" d="M-1337 1536q2 162 133 262q121 92 286 92q422 0 504 -465q-360 129 -676 129q-114 0 -247 -18zM-1210 1632q68 10 147 10q301 0 526 -98q-137 254 -378 254q-219 0 -295 -166z" />
<glyph unicode="&#xf702;" d="M-1337 1536q2 162 133 262q121 92 286 92q250 0 381 -166v304h105v-519q12 -39 18 -84q-360 129 -676 129q-114 0 -247 -18zM-1210 1632q68 10 147 10q301 0 526 -98q-137 254 -378 254q-219 0 -295 -166z" />
<glyph unicode="&#xf703;" d="M-1337 1536q2 162 133 262q121 92 286 92q168 0 291 -82q-10 25 -10 50q0 63 46 108t108 45q63 0 108 -45t45 -108q0 -61 -45 -107.5t-108 -46.5q-14 0 -41 6q80 -109 110 -285q-360 129 -676 129q-114 0 -247 -18zM-1210 1632q68 10 147 10q301 0 526 -98 q-137 254 -378 254q-219 0 -295 -166zM-563 1858q0 -35 23.5 -57.5t56.5 -22.5q35 0 58.5 22.5t23.5 57.5t-24 58t-58 23q-33 0 -56.5 -23t-23.5 -58z" />
<glyph unicode="&#xf704;" d="M-1337 1536q2 162 133 262q121 92 286 92q72 0 132 -14v152h102v-189q88 -41 147 -115v304h105v-519q12 -39 18 -84q-360 129 -676 129q-114 0 -247 -18zM-1210 1632q68 10 147 10q301 0 526 -98q-137 254 -378 254q-219 0 -295 -166z" />
<glyph unicode="&#xf705;" d="M-623 1473v450h115v-450h-115z" />
<glyph unicode="&#xf706;" d="M-930 1845q0 70 50.5 115t117.5 45q78 0 124 -50t46 -124q0 -176 -145 -283q420 31 471 428h129q-47 -297 -258 -420q-172 -100 -463 -100h-64v68q123 49 170 143q-178 22 -178 178zM-840 1837q0 -35 23.5 -58.5t58.5 -23.5t58.5 23.5t23.5 58.5q0 33 -23.5 56.5 t-58.5 23.5t-58.5 -23.5t-23.5 -56.5z" />
<glyph unicode="&#xf707;" d="M-1057 1698q0 117 79 212t181 95l76 -100l76 100q96 -2 152.5 -66.5t56.5 -160.5q0 -117 -68 -195q72 6 133 94q82 115 82 299h107q-14 -487 -469 -487v72q127 63 127 208q0 115 -107 142l-92 -101l-92 105q-29 -4 -72 -37t-53 -63q43 6 57 6q168 -10 168 -170 q-14 -160 -166 -160q-84 0 -130 59.5t-46 147.5zM-956 1651q0 -35 23.5 -54.5t55.5 -19.5q31 0 52.5 19.5t21.5 54.5t-21.5 57.5t-52.5 22.5q-33 0 -56 -22.5t-23 -57.5z" />
<glyph unicode="&#xf708;" d="M-887 1649v84h178v165h107v-165h178v-84h-178v-176h-107v176h-178z" />
<glyph unicode="&#xf709;" d="M-803 1645q0 219 223 278l148 45q78 29 78 94h100q-10 -106 -102 -153q-53 -29 -152 -51q-90 -14 -113 -41q70 -6 115 -54.5t45 -117.5q0 -72 -48 -120t-122 -48q-72 0 -122 48t-50 120zM-711 1642q0 -35 24.5 -60.5t59.5 -25.5t59.5 26t24.5 60q0 35 -24.5 59.5 t-59.5 24.5t-59.5 -24.5t-24.5 -59.5z" />
<glyph unicode="&#xf70a;" d="M-291 1503v453h115v-453h-115z" />
<glyph unicode="&#xf70b;" d="M-733 1884q0 68 50 114t120 46q78 0 123 -50t45 -126q0 -176 -144 -283q420 31 469 430h129q-47 -299 -256 -420q-174 -100 -465 -100h-61v66q121 49 168 143q-178 22 -178 180zM-643 1874q0 -35 23.5 -58.5t58.5 -23.5t58.5 23.5t23.5 58.5t-23.5 58.5t-58.5 23.5 t-58.5 -23.5t-23.5 -58.5z" />
<glyph unicode="&#xf70c;" d="M-899 1669q0 117 78 212t182 95l76 -100l74 100q98 -2 154 -66.5t56 -160.5q0 -117 -69 -195q72 6 135 95q82 115 82 301h106q-16 -489 -471 -490v72q129 63 129 211q0 113 -106 141l-94 -100l-90 102q-29 -2 -73 -35.5t-52 -64.5q43 6 55 6q170 -8 170 -168t-166 -160 q-86 0 -131 59.5t-45 145.5zM-799 1624q0 -35 23.5 -55.5t54.5 -20.5t53.5 20.5t22.5 55.5q0 33 -22.5 55.5t-53.5 22.5t-54.5 -22.5t-23.5 -55.5z" />
<glyph unicode="&#xf70d;" d="M-467 1667v94h178v166h113v-166h180v-94h-180v-176h-113v176h-178z" />
<glyph unicode="&#xf70e;" d="M-586 1645q0 219 224 278l145 45q80 29 80 94h100q-10 -106 -104 -153q-53 -29 -150 -51q-92 -14 -112 -41q68 -6 113.5 -54.5t45.5 -117.5q0 -72 -49 -120t-121 -48t-122 48t-50 120zM-496 1642q0 -35 26 -60.5t60 -25.5q33 0 58.5 26t25.5 60q0 35 -25.5 59.5 t-58.5 24.5q-35 0 -60.5 -24.5t-25.5 -59.5z" />
<glyph unicode="&#xf70f;" horiz-adv-x="1603" d="M94 850q29 174 153 288.5t296 114.5q195 0 302 -106.5t107 -302.5v-594q0 -174 195 -174q190 0 190 174v979h113v-973q0 -281 -307 -281q-303 0 -303 285v569q0 324 -303 324q-100 0 -186.5 -59.5t-121.5 -157.5q174 -12 250 -137q-76 -16 -132 -82t-56 -148v-202 q41 18 94 18q88 0 147.5 -59.5t59.5 -143.5q0 -86 -48 -148.5t-159 -62.5q-90 0 -148.5 58.5t-58.5 154.5v383q0 170 164 248q-119 47 -248 35zM283 178q0 -43 29.5 -72.5t72.5 -29.5q45 0 76 29.5t31 72.5q0 45 -31 76t-76 31q-43 0 -72.5 -31t-29.5 -76z" />
<glyph unicode="&#xf710;" d="M-1071 1724q0 80 59.5 139.5t141.5 59.5q80 0 140 -57.5t60 -139.5q0 -106 -94 -170q43 -8 115 -8q154 2 254 121q88 111 94 268h119q-2 -213 -140.5 -350t-347.5 -137q-182 0 -291.5 75.5t-109.5 198.5zM-975 1731q0 -45 32 -73t73 -28t70.5 28t29.5 73q0 43 -29.5 72.5 t-70.5 29.5t-73 -29.5t-32 -72.5z" />
<glyph unicode="&#xf711;" d="M-950 1686q0 100 70.5 170.5t170.5 70.5t169 -70.5t69 -170.5t-68.5 -169t-169.5 -69q-100 0 -170.5 69t-70.5 169zM-846 1686q0 -55 41 -95.5t96 -40.5q53 0 94.5 40t41.5 96q0 57 -41 97t-95 40q-55 0 -96 -40t-41 -97z" />
<glyph unicode="&#xf712;" d="M-1163 1686q0 244 266 243h207q154 0 164 228h106q0 -135 -68.5 -226.5t-203.5 -91.5h-217q-150 0 -150 -143q0 -70 35 -123q78 88 160 100q53 -47 153 -112q-4 25 -4 41q0 61 42 104t106 43q63 0 107 -44t44 -103q0 -70 -49 -114t-113 -44q-131 0 -299 135 q-86 -29 -159 -137q-127 78 -127 244zM-637 1602q0 -29 20.5 -49.5t49.5 -20.5t49 20.5t20 49.5t-20.5 48t-48.5 19q-29 0 -49.5 -19t-20.5 -48z" />
<glyph unicode="&#xf713;" d="M-537 2130v348h105v-348h-105z" />
<glyph unicode="&#xf714;" d="M-911 2460q0 66 47 112.5t112 46.5q61 0 105.5 -44t50.5 -115q0 -156 -141 -256q375 31 424 385h116q-45 -270 -233 -379q-150 -88 -416 -88h-57v59q104 43 147 123q-61 0 -108 45t-47 111zM-829 2460q0 -31 21.5 -51.5t51.5 -20.5q33 0 52.5 20.5t19.5 51.5t-19.5 53 t-52.5 22q-31 0 -52 -22t-21 -53z" />
<glyph unicode="&#xf715;" d="M-1098 2316q0 115 74 204t174 89l76 -92l69 92q94 -2 148.5 -63.5t54.5 -155.5q0 -113 -67 -184q72 6 131 90q78 109 78 287h100q-10 -467 -451 -467v67q125 63 125 201q0 106 -104 139l-86 -98l-88 98q-33 -4 -76 -35q-35 -25 -47 -65q16 6 29.5 9t29.5 3q66 0 112 -47 t46 -113t-46 -111.5t-112 -45.5q-82 0 -126 53t-44 145zM-1004 2271q0 -31 23 -51t53 -20q31 0 51.5 20.5t20.5 50.5q0 33 -20.5 54.5t-51.5 21.5t-53.5 -21.5t-22.5 -54.5z" />
<glyph unicode="&#xf716;" d="M-698 2253v88h166v135h96v-135h166v-88h-166v-123h-96v123h-166z" />
<glyph unicode="&#xf717;" d="M-729 2157q0 219 221 278l148 43q78 29 77 94h101q-8 -106 -103 -153q-53 -29 -151 -49q-90 -16 -113 -41q70 -6 115 -55.5t45 -116.5q0 -74 -48 -122t-120 -48q-74 0 -123 48t-49 122zM-639 2152q0 -35 24.5 -59.5t59.5 -24.5t59.5 25t24.5 59q0 35 -24.5 59.5 t-59.5 24.5t-59.5 -24.5t-24.5 -59.5z" />
<glyph unicode="&#xf718;" d="M-508 -934q0 70 49 118t117 48q70 0 118 -48t48 -118v-385h-109v229q-25 -10 -57 -10q-68 0 -117 48t-49 118zM-424 -930q0 -35 23.5 -58.5t58.5 -23.5t58.5 23.5t23.5 58.5q0 33 -23.5 56.5t-58.5 23.5t-58.5 -23.5t-23.5 -56.5z" />
<glyph unicode="&#xf719;" d="M-838 -936q0 68 49.5 117t118.5 49q68 0 117 -49t49 -117v-215q0 -72 109 -72q106 0 106 72v369h113v-342q0 -195 -225 -195q-213 0 -213 189v36q-25 -10 -56 -10q-70 0 -119 49t-49 119zM-752 -934q0 -35 23.5 -58.5t58.5 -23.5q33 0 56.5 23.5t23.5 58.5t-23.5 58.5 t-56.5 23.5q-35 0 -58.5 -23.5t-23.5 -58.5z" />
<glyph unicode="&#xf71a;" d="M-317 -852q0 35 25.5 58.5t60.5 23.5t58 -23.5t23 -58.5t-23.5 -59.5t-57.5 -24.5q-35 0 -60.5 24.5t-25.5 59.5z" />
<glyph unicode="&#xf71b;" horiz-adv-x="1331" d="M76 178q0 86 59.5 146.5t143.5 60.5q35 0 75 -14q-18 143 -18 219q0 143 125 225q-84 37 -166 37q-41 0 -59 -2q14 174 151 288.5t318 114.5q201 0 326.5 -114.5t125.5 -311.5v-1501h-127q-25 76 -142.5 150.5t-211.5 99.5v-20q0 -100 -59.5 -171t-159.5 -71 q-94 0 -147.5 54t-53.5 136q0 98 69.5 154.5t166.5 56.5q16 0 81 -10q12 117 117 176l84 -51q-94 -59 -98 -149q252 -88 366 -211v1345q0 154 -95 246t-245 92q-106 0 -205.5 -61.5t-136.5 -155.5q166 -14 254 -137q-170 -55 -170 -230q0 -121 29 -250q12 -55 12 -131 q0 -92 -61.5 -152.5t-144.5 -60.5q-84 0 -143.5 59.5t-59.5 143.5zM176 178q0 -43 30 -72.5t73 -29.5q45 0 75.5 29.5t30.5 72.5q0 45 -30.5 76t-75.5 31q-43 0 -73 -31t-30 -76zM356 -489q0 -96 105 -97q109 0 108 142q0 20 -6 47q-27 8 -65 8q-142 0 -142 -100z" />
<glyph unicode="&#xf71c;" horiz-adv-x="1331" d="M76 178q0 86 59.5 146.5t143.5 60.5q35 0 75 -14q-18 143 -18 219q0 143 125 225q-84 37 -166 37q-41 0 -59 -2q14 174 151 288.5t318 114.5q201 0 326.5 -114.5t125.5 -311.5v-1501h-127l-168 191l-139 -187l-172 187q-2 -96 -61.5 -151.5t-139.5 -55.5q-96 0 -148 56 t-52 138q0 92 60 146.5t146 54.5q59 0 105 -22q6 111 129 182l84 -49q-106 -66 -113 -176l154 -164l147 198l180 -204v1345q0 154 -95 246t-245 92q-106 0 -205.5 -61.5t-136.5 -155.5q166 -14 254 -137q-170 -55 -170 -230q0 -121 29 -250q12 -55 12 -131 q0 -92 -61.5 -152.5t-144.5 -60.5q-84 0 -143.5 59.5t-59.5 143.5zM176 178q0 -43 30 -72.5t73 -29.5q45 0 75.5 29.5t30.5 72.5q0 45 -30.5 76t-75.5 31q-43 0 -73 -31t-30 -76zM244 -498q0 -94 100 -94q117 0 117 172q-29 29 -94 29q-123 -1 -123 -107z" />
<glyph unicode="&#xf71d;" horiz-adv-x="1421" d="M53 1047q0 84 61.5 145t145.5 61t145.5 -61.5t61.5 -144.5v-740q0 -51 -10 -153q20 53 53 135l233 438h107l231 -438q8 -23 60 -135q-6 100 -6 153v555q-41 -23 -95 -22q-84 0 -145 61.5t-61 145.5t61 145t145 61q49 0 95 -24q61 29 77 121h144q-27 -115 -137 -199 q29 -57 28 -104v-1047h-137l-313 610l-314 -610h-129v862q-41 -23 -94 -22q-84 0 -145.5 61.5t-61.5 145.5zM154 1047q0 -43 31.5 -75t74.5 -32t75 32t32 75t-32 74.5t-75 31.5t-74.5 -31.5t-31.5 -74.5zM934 1047q0 -43 31.5 -75t74.5 -32t75 32t32 75t-32 74.5t-75 31.5 t-74.5 -31.5t-31.5 -74.5z" />
<glyph horiz-adv-x="989" d="M-950 1686q0 100 70.5 170.5t170.5 70.5t169 -70.5t69 -170.5t-68.5 -169t-169.5 -69q-100 0 -170.5 69t-70.5 169zM-846 1686q0 -55 41 -95.5t96 -40.5q53 0 94.5 40t41.5 96q0 57 -41 97t-95 40q-55 0 -96 -40t-41 -97zM76 922q2 131 104.5 231t261.5 100 q180 0 276.5 -88t96.5 -231v-934h-113v936q0 94 -70.5 155.5t-193.5 61.5q-109 0 -175 -73.5t-73 -157.5h-114z" />
<glyph />
<glyph horiz-adv-x="675" />
<glyph d="M-905 1616q0 80 62.5 133t140.5 53q-61 41 -62 119q0 182 240 182q86 0 141 -22l-27 -78q-53 14 -116 14q-143 0 -144 -96q0 -104 156 -123l-29 -72q-37 12 -73 13q-88 0 -143.5 -39t-55.5 -86q0 -84 141 -84q41 0 101 24l4 -77q-61 -27 -146 -27q-78 0 -134 46t-56 120z " />
</font>
</defs>
</svg>
